G04 #@! TF.GenerationSoftware,KiCad,Pcbnew,(5.1.5)-3*
G04 #@! TF.CreationDate,2020-04-16T18:29:46-07:00*
G04 #@! TF.ProjectId,E_Grrrl,455f4772-7272-46c2-9e6b-696361645f70,Version A2*
G04 #@! TF.SameCoordinates,Original*
G04 #@! TF.FileFunction,Soldermask,Top*
G04 #@! TF.FilePolarity,Negative*
%FSLAX46Y46*%
G04 Gerber Fmt 4.6, Leading zero omitted, Abs format (unit mm)*
G04 Created by KiCad (PCBNEW (5.1.5)-3) date 2020-04-16 18:29:46*
%MOMM*%
%LPD*%
G04 APERTURE LIST*
%ADD10C,0.010000*%
%ADD11C,0.100000*%
G04 APERTURE END LIST*
D10*
G36*
X111290682Y-93755216D02*
G01*
X111384733Y-93856667D01*
X111419627Y-94018470D01*
X111393323Y-94168342D01*
X111304204Y-94234000D01*
X111205165Y-94160942D01*
X111142347Y-94001167D01*
X111118390Y-93798581D01*
X111165123Y-93727570D01*
X111290682Y-93755216D01*
G37*
X111290682Y-93755216D02*
X111384733Y-93856667D01*
X111419627Y-94018470D01*
X111393323Y-94168342D01*
X111304204Y-94234000D01*
X111205165Y-94160942D01*
X111142347Y-94001167D01*
X111118390Y-93798581D01*
X111165123Y-93727570D01*
X111290682Y-93755216D01*
G36*
X111903735Y-91323812D02*
G01*
X112136037Y-91456440D01*
X112303241Y-91628338D01*
X112352667Y-91768629D01*
X112278653Y-92005301D01*
X112087742Y-92173659D01*
X111826630Y-92249106D01*
X111542011Y-92207047D01*
X111529700Y-92202122D01*
X111348160Y-92054496D01*
X111267904Y-91838510D01*
X111281777Y-91604510D01*
X111382622Y-91402847D01*
X111563281Y-91283870D01*
X111662100Y-91270667D01*
X111903735Y-91323812D01*
G37*
X111903735Y-91323812D02*
X112136037Y-91456440D01*
X112303241Y-91628338D01*
X112352667Y-91768629D01*
X112278653Y-92005301D01*
X112087742Y-92173659D01*
X111826630Y-92249106D01*
X111542011Y-92207047D01*
X111529700Y-92202122D01*
X111348160Y-92054496D01*
X111267904Y-91838510D01*
X111281777Y-91604510D01*
X111382622Y-91402847D01*
X111563281Y-91283870D01*
X111662100Y-91270667D01*
X111903735Y-91323812D01*
G36*
X111849606Y-89752748D02*
G01*
X111871807Y-89767833D01*
X112033551Y-89975000D01*
X112045128Y-90225778D01*
X111906631Y-90485701D01*
X111869763Y-90526658D01*
X111628135Y-90716857D01*
X111420043Y-90743273D01*
X111238125Y-90606444D01*
X111214468Y-90574494D01*
X111114589Y-90339221D01*
X111086983Y-90068869D01*
X111134428Y-89838044D01*
X111184267Y-89763600D01*
X111371225Y-89677739D01*
X111621207Y-89674295D01*
X111849606Y-89752748D01*
G37*
X111849606Y-89752748D02*
X111871807Y-89767833D01*
X112033551Y-89975000D01*
X112045128Y-90225778D01*
X111906631Y-90485701D01*
X111869763Y-90526658D01*
X111628135Y-90716857D01*
X111420043Y-90743273D01*
X111238125Y-90606444D01*
X111214468Y-90574494D01*
X111114589Y-90339221D01*
X111086983Y-90068869D01*
X111134428Y-89838044D01*
X111184267Y-89763600D01*
X111371225Y-89677739D01*
X111621207Y-89674295D01*
X111849606Y-89752748D01*
G36*
X113466376Y-89419571D02*
G01*
X113559167Y-89507844D01*
X113697155Y-89769174D01*
X113685834Y-90017786D01*
X113543431Y-90216372D01*
X113288176Y-90327624D01*
X113152904Y-90339333D01*
X112903863Y-90295349D01*
X112733503Y-90138843D01*
X112721582Y-90121105D01*
X112619031Y-89850785D01*
X112673165Y-89620562D01*
X112872042Y-89455086D01*
X113073960Y-89393802D01*
X113314692Y-89370492D01*
X113466376Y-89419571D01*
G37*
X113466376Y-89419571D02*
X113559167Y-89507844D01*
X113697155Y-89769174D01*
X113685834Y-90017786D01*
X113543431Y-90216372D01*
X113288176Y-90327624D01*
X113152904Y-90339333D01*
X112903863Y-90295349D01*
X112733503Y-90138843D01*
X112721582Y-90121105D01*
X112619031Y-89850785D01*
X112673165Y-89620562D01*
X112872042Y-89455086D01*
X113073960Y-89393802D01*
X113314692Y-89370492D01*
X113466376Y-89419571D01*
G36*
X114636950Y-88203216D02*
G01*
X114846204Y-88296286D01*
X115034589Y-88423399D01*
X115140299Y-88548277D01*
X115146667Y-88578449D01*
X115083440Y-88689927D01*
X114928802Y-88846585D01*
X114735320Y-89004469D01*
X114555561Y-89119627D01*
X114461289Y-89151518D01*
X114302667Y-89094865D01*
X114186122Y-88999166D01*
X114050936Y-88748161D01*
X114064732Y-88498664D01*
X114212470Y-88294259D01*
X114468632Y-88180468D01*
X114636950Y-88203216D01*
G37*
X114636950Y-88203216D02*
X114846204Y-88296286D01*
X115034589Y-88423399D01*
X115140299Y-88548277D01*
X115146667Y-88578449D01*
X115083440Y-88689927D01*
X114928802Y-88846585D01*
X114735320Y-89004469D01*
X114555561Y-89119627D01*
X114461289Y-89151518D01*
X114302667Y-89094865D01*
X114186122Y-88999166D01*
X114050936Y-88748161D01*
X114064732Y-88498664D01*
X114212470Y-88294259D01*
X114468632Y-88180468D01*
X114636950Y-88203216D01*
G36*
X112775991Y-87941860D02*
G01*
X112843733Y-87985600D01*
X112937360Y-88185388D01*
X112931373Y-88445783D01*
X112833880Y-88696741D01*
X112749377Y-88800575D01*
X112514572Y-88957959D01*
X112313717Y-88951228D01*
X112137850Y-88780073D01*
X112137474Y-88779501D01*
X112034938Y-88541281D01*
X111999231Y-88281218D01*
X112032724Y-88062370D01*
X112106720Y-87961898D01*
X112308098Y-87898077D01*
X112559477Y-87892308D01*
X112775991Y-87941860D01*
G37*
X112775991Y-87941860D02*
X112843733Y-87985600D01*
X112937360Y-88185388D01*
X112931373Y-88445783D01*
X112833880Y-88696741D01*
X112749377Y-88800575D01*
X112514572Y-88957959D01*
X112313717Y-88951228D01*
X112137850Y-88780073D01*
X112137474Y-88779501D01*
X112034938Y-88541281D01*
X111999231Y-88281218D01*
X112032724Y-88062370D01*
X112106720Y-87961898D01*
X112308098Y-87898077D01*
X112559477Y-87892308D01*
X112775991Y-87941860D01*
G36*
X113495338Y-86612418D02*
G01*
X113571424Y-86721024D01*
X113629493Y-86940717D01*
X113557817Y-87147620D01*
X113394818Y-87309080D01*
X113178915Y-87392444D01*
X112948529Y-87365060D01*
X112866735Y-87319920D01*
X112732728Y-87193616D01*
X112713625Y-87055791D01*
X112814434Y-86869277D01*
X112950287Y-86700053D01*
X113156385Y-86510252D01*
X113329952Y-86480766D01*
X113495338Y-86612418D01*
G37*
X113495338Y-86612418D02*
X113571424Y-86721024D01*
X113629493Y-86940717D01*
X113557817Y-87147620D01*
X113394818Y-87309080D01*
X113178915Y-87392444D01*
X112948529Y-87365060D01*
X112866735Y-87319920D01*
X112732728Y-87193616D01*
X112713625Y-87055791D01*
X112814434Y-86869277D01*
X112950287Y-86700053D01*
X113156385Y-86510252D01*
X113329952Y-86480766D01*
X113495338Y-86612418D01*
G36*
X114960882Y-86484395D02*
G01*
X115177582Y-86620145D01*
X115344771Y-86831565D01*
X115402990Y-87080905D01*
X115341992Y-87305826D01*
X115299067Y-87359067D01*
X115140087Y-87434823D01*
X114908194Y-87462580D01*
X114669224Y-87444804D01*
X114489012Y-87383960D01*
X114436059Y-87326742D01*
X114384773Y-87038220D01*
X114430004Y-86759888D01*
X114539500Y-86584789D01*
X114746475Y-86461561D01*
X114960882Y-86484395D01*
G37*
X114960882Y-86484395D02*
X115177582Y-86620145D01*
X115344771Y-86831565D01*
X115402990Y-87080905D01*
X115341992Y-87305826D01*
X115299067Y-87359067D01*
X115140087Y-87434823D01*
X114908194Y-87462580D01*
X114669224Y-87444804D01*
X114489012Y-87383960D01*
X114436059Y-87326742D01*
X114384773Y-87038220D01*
X114430004Y-86759888D01*
X114539500Y-86584789D01*
X114746475Y-86461561D01*
X114960882Y-86484395D01*
G36*
X116984190Y-86725053D02*
G01*
X117086557Y-86807407D01*
X117034186Y-86950519D01*
X116827573Y-87159181D01*
X116778376Y-87200502D01*
X116507959Y-87387604D01*
X116305031Y-87455022D01*
X116186482Y-87400156D01*
X116162667Y-87295317D01*
X116197567Y-87092587D01*
X116260924Y-86914317D01*
X116351774Y-86775003D01*
X116494055Y-86712422D01*
X116726590Y-86698667D01*
X116984190Y-86725053D01*
G37*
X116984190Y-86725053D02*
X117086557Y-86807407D01*
X117034186Y-86950519D01*
X116827573Y-87159181D01*
X116778376Y-87200502D01*
X116507959Y-87387604D01*
X116305031Y-87455022D01*
X116186482Y-87400156D01*
X116162667Y-87295317D01*
X116197567Y-87092587D01*
X116260924Y-86914317D01*
X116351774Y-86775003D01*
X116494055Y-86712422D01*
X116726590Y-86698667D01*
X116984190Y-86725053D01*
G36*
X118462104Y-86019909D02*
G01*
X118533334Y-86113337D01*
X118465799Y-86200366D01*
X118302118Y-86304816D01*
X118100675Y-86399516D01*
X117919851Y-86457292D01*
X117818032Y-86450970D01*
X117815406Y-86447481D01*
X117817555Y-86313593D01*
X117911174Y-86144767D01*
X118052835Y-86008416D01*
X118119030Y-85976134D01*
X118298480Y-85965621D01*
X118462104Y-86019909D01*
G37*
X118462104Y-86019909D02*
X118533334Y-86113337D01*
X118465799Y-86200366D01*
X118302118Y-86304816D01*
X118100675Y-86399516D01*
X117919851Y-86457292D01*
X117818032Y-86450970D01*
X117815406Y-86447481D01*
X117817555Y-86313593D01*
X117911174Y-86144767D01*
X118052835Y-86008416D01*
X118119030Y-85976134D01*
X118298480Y-85965621D01*
X118462104Y-86019909D01*
G36*
X123143532Y-85549341D02*
G01*
X123307361Y-85669470D01*
X123359334Y-85839775D01*
X123308304Y-85990831D01*
X123183685Y-86188872D01*
X123028177Y-86378941D01*
X122884484Y-86506081D01*
X122823530Y-86529333D01*
X122683006Y-86484629D01*
X122510339Y-86386074D01*
X122276262Y-86203742D01*
X122189332Y-86054951D01*
X122243441Y-85901222D01*
X122405968Y-85728426D01*
X122649519Y-85573760D01*
X122909812Y-85515751D01*
X123143532Y-85549341D01*
G37*
X123143532Y-85549341D02*
X123307361Y-85669470D01*
X123359334Y-85839775D01*
X123308304Y-85990831D01*
X123183685Y-86188872D01*
X123028177Y-86378941D01*
X122884484Y-86506081D01*
X122823530Y-86529333D01*
X122683006Y-86484629D01*
X122510339Y-86386074D01*
X122276262Y-86203742D01*
X122189332Y-86054951D01*
X122243441Y-85901222D01*
X122405968Y-85728426D01*
X122649519Y-85573760D01*
X122909812Y-85515751D01*
X123143532Y-85549341D01*
G36*
X126707355Y-85450251D02*
G01*
X126772886Y-85537182D01*
X126733247Y-85722729D01*
X126688607Y-85837739D01*
X126572596Y-86095032D01*
X126484144Y-86202853D01*
X126398492Y-86172775D01*
X126294259Y-86022108D01*
X126207680Y-85769223D01*
X126250644Y-85564278D01*
X126408702Y-85444726D01*
X126523201Y-85428667D01*
X126707355Y-85450251D01*
G37*
X126707355Y-85450251D02*
X126772886Y-85537182D01*
X126733247Y-85722729D01*
X126688607Y-85837739D01*
X126572596Y-86095032D01*
X126484144Y-86202853D01*
X126398492Y-86172775D01*
X126294259Y-86022108D01*
X126207680Y-85769223D01*
X126250644Y-85564278D01*
X126408702Y-85444726D01*
X126523201Y-85428667D01*
X126707355Y-85450251D01*
G36*
X125135551Y-85045160D02*
G01*
X125166545Y-85075500D01*
X125289563Y-85312462D01*
X125289574Y-85571006D01*
X125189596Y-85809738D01*
X125012650Y-85987266D01*
X124781757Y-86062197D01*
X124629334Y-86041455D01*
X124437200Y-85902483D01*
X124319357Y-85666170D01*
X124288368Y-85392853D01*
X124356791Y-85142870D01*
X124423714Y-85053714D01*
X124642678Y-84940520D01*
X124906795Y-84938455D01*
X125135551Y-85045160D01*
G37*
X125135551Y-85045160D02*
X125166545Y-85075500D01*
X125289563Y-85312462D01*
X125289574Y-85571006D01*
X125189596Y-85809738D01*
X125012650Y-85987266D01*
X124781757Y-86062197D01*
X124629334Y-86041455D01*
X124437200Y-85902483D01*
X124319357Y-85666170D01*
X124288368Y-85392853D01*
X124356791Y-85142870D01*
X124423714Y-85053714D01*
X124642678Y-84940520D01*
X124906795Y-84938455D01*
X125135551Y-85045160D01*
G36*
X115817554Y-84992126D02*
G01*
X115809658Y-85167152D01*
X115773701Y-85386710D01*
X115719296Y-85591771D01*
X115657319Y-85721804D01*
X115462134Y-85836582D01*
X115207751Y-85823128D01*
X114996172Y-85720199D01*
X114855863Y-85586848D01*
X114808000Y-85483836D01*
X114876450Y-85407087D01*
X115049209Y-85286296D01*
X115277386Y-85149564D01*
X115512095Y-85024992D01*
X115704446Y-84940681D01*
X115787776Y-84920667D01*
X115817554Y-84992126D01*
G37*
X115817554Y-84992126D02*
X115809658Y-85167152D01*
X115773701Y-85386710D01*
X115719296Y-85591771D01*
X115657319Y-85721804D01*
X115462134Y-85836582D01*
X115207751Y-85823128D01*
X114996172Y-85720199D01*
X114855863Y-85586848D01*
X114808000Y-85483836D01*
X114876450Y-85407087D01*
X115049209Y-85286296D01*
X115277386Y-85149564D01*
X115512095Y-85024992D01*
X115704446Y-84940681D01*
X115787776Y-84920667D01*
X115817554Y-84992126D01*
G36*
X119877091Y-84820946D02*
G01*
X120059898Y-84989805D01*
X120192522Y-85197944D01*
X120226667Y-85339236D01*
X120154970Y-85562026D01*
X119975395Y-85727537D01*
X119741217Y-85813732D01*
X119505709Y-85798570D01*
X119353692Y-85700374D01*
X119227713Y-85460210D01*
X119222799Y-85197161D01*
X119321369Y-84959687D01*
X119505840Y-84796248D01*
X119698022Y-84751333D01*
X119877091Y-84820946D01*
G37*
X119877091Y-84820946D02*
X120059898Y-84989805D01*
X120192522Y-85197944D01*
X120226667Y-85339236D01*
X120154970Y-85562026D01*
X119975395Y-85727537D01*
X119741217Y-85813732D01*
X119505709Y-85798570D01*
X119353692Y-85700374D01*
X119227713Y-85460210D01*
X119222799Y-85197161D01*
X119321369Y-84959687D01*
X119505840Y-84796248D01*
X119698022Y-84751333D01*
X119877091Y-84820946D01*
G36*
X121589079Y-84851037D02*
G01*
X121749731Y-84922356D01*
X121783942Y-84969925D01*
X121832225Y-85246908D01*
X121729649Y-85453056D01*
X121584926Y-85553809D01*
X121404128Y-85632982D01*
X121288734Y-85616249D01*
X121171042Y-85507827D01*
X121061912Y-85295274D01*
X121071527Y-85068358D01*
X121192907Y-84900796D01*
X121377542Y-84840817D01*
X121589079Y-84851037D01*
G37*
X121589079Y-84851037D02*
X121749731Y-84922356D01*
X121783942Y-84969925D01*
X121832225Y-85246908D01*
X121729649Y-85453056D01*
X121584926Y-85553809D01*
X121404128Y-85632982D01*
X121288734Y-85616249D01*
X121171042Y-85507827D01*
X121061912Y-85295274D01*
X121071527Y-85068358D01*
X121192907Y-84900796D01*
X121377542Y-84840817D01*
X121589079Y-84851037D01*
G36*
X117698147Y-84559441D02*
G01*
X117886582Y-84686608D01*
X117986605Y-84869988D01*
X117977317Y-85030831D01*
X117817933Y-85329802D01*
X117566664Y-85487624D01*
X117375116Y-85513333D01*
X117158868Y-85484114D01*
X117040627Y-85370852D01*
X117007238Y-85296155D01*
X116934710Y-85046598D01*
X116956078Y-84860277D01*
X117056468Y-84685505D01*
X117237680Y-84541860D01*
X117466710Y-84505515D01*
X117698147Y-84559441D01*
G37*
X117698147Y-84559441D02*
X117886582Y-84686608D01*
X117986605Y-84869988D01*
X117977317Y-85030831D01*
X117817933Y-85329802D01*
X117566664Y-85487624D01*
X117375116Y-85513333D01*
X117158868Y-85484114D01*
X117040627Y-85370852D01*
X117007238Y-85296155D01*
X116934710Y-85046598D01*
X116956078Y-84860277D01*
X117056468Y-84685505D01*
X117237680Y-84541860D01*
X117466710Y-84505515D01*
X117698147Y-84559441D01*
G36*
X123705366Y-84417908D02*
G01*
X123828506Y-84532756D01*
X123825011Y-84724320D01*
X123747691Y-84878987D01*
X123563309Y-85031371D01*
X123312118Y-85095628D01*
X123067519Y-85061653D01*
X122952934Y-84988400D01*
X122852307Y-84804984D01*
X122914959Y-84633096D01*
X123134867Y-84487452D01*
X123162712Y-84475916D01*
X123476474Y-84394165D01*
X123705366Y-84417908D01*
G37*
X123705366Y-84417908D02*
X123828506Y-84532756D01*
X123825011Y-84724320D01*
X123747691Y-84878987D01*
X123563309Y-85031371D01*
X123312118Y-85095628D01*
X123067519Y-85061653D01*
X122952934Y-84988400D01*
X122852307Y-84804984D01*
X122914959Y-84633096D01*
X123134867Y-84487452D01*
X123162712Y-84475916D01*
X123476474Y-84394165D01*
X123705366Y-84417908D01*
G36*
X118400169Y-83316403D02*
G01*
X118608843Y-83485845D01*
X118700734Y-83762349D01*
X118702667Y-83815199D01*
X118631365Y-84061834D01*
X118451184Y-84238057D01*
X118212707Y-84322112D01*
X117966520Y-84292242D01*
X117819714Y-84194952D01*
X117724827Y-84006915D01*
X117689197Y-83745653D01*
X117719999Y-83499064D01*
X117756307Y-83418080D01*
X117880735Y-83336041D01*
X118090671Y-83281472D01*
X118103625Y-83279861D01*
X118400169Y-83316403D01*
G37*
X118400169Y-83316403D02*
X118608843Y-83485845D01*
X118700734Y-83762349D01*
X118702667Y-83815199D01*
X118631365Y-84061834D01*
X118451184Y-84238057D01*
X118212707Y-84322112D01*
X117966520Y-84292242D01*
X117819714Y-84194952D01*
X117724827Y-84006915D01*
X117689197Y-83745653D01*
X117719999Y-83499064D01*
X117756307Y-83418080D01*
X117880735Y-83336041D01*
X118090671Y-83281472D01*
X118103625Y-83279861D01*
X118400169Y-83316403D01*
G36*
X120012037Y-83113132D02*
G01*
X120125120Y-83300774D01*
X120133718Y-83324634D01*
X120214233Y-83667757D01*
X120209464Y-83957710D01*
X120125067Y-84141733D01*
X119962800Y-84222407D01*
X119758113Y-84240502D01*
X119606604Y-84187706D01*
X119605778Y-84186889D01*
X119570951Y-84069932D01*
X119553162Y-83847677D01*
X119552732Y-83583333D01*
X119569982Y-83340107D01*
X119600725Y-83191925D01*
X119716691Y-83086197D01*
X119846443Y-83058000D01*
X120012037Y-83113132D01*
G37*
X120012037Y-83113132D02*
X120125120Y-83300774D01*
X120133718Y-83324634D01*
X120214233Y-83667757D01*
X120209464Y-83957710D01*
X120125067Y-84141733D01*
X119962800Y-84222407D01*
X119758113Y-84240502D01*
X119606604Y-84187706D01*
X119605778Y-84186889D01*
X119570951Y-84069932D01*
X119553162Y-83847677D01*
X119552732Y-83583333D01*
X119569982Y-83340107D01*
X119600725Y-83191925D01*
X119716691Y-83086197D01*
X119846443Y-83058000D01*
X120012037Y-83113132D01*
G36*
X118846439Y-81347011D02*
G01*
X119036734Y-81507693D01*
X119175978Y-81701522D01*
X119210667Y-81825142D01*
X119150686Y-81946222D01*
X119003903Y-82118996D01*
X118820057Y-82295009D01*
X118648887Y-82425806D01*
X118553522Y-82465333D01*
X118450010Y-82400769D01*
X118304220Y-82237928D01*
X118240052Y-82149346D01*
X118109415Y-81936070D01*
X118033290Y-81771114D01*
X118025334Y-81732158D01*
X118095531Y-81595312D01*
X118266265Y-81446196D01*
X118477745Y-81327033D01*
X118665606Y-81280000D01*
X118846439Y-81347011D01*
G37*
X118846439Y-81347011D02*
X119036734Y-81507693D01*
X119175978Y-81701522D01*
X119210667Y-81825142D01*
X119150686Y-81946222D01*
X119003903Y-82118996D01*
X118820057Y-82295009D01*
X118648887Y-82425806D01*
X118553522Y-82465333D01*
X118450010Y-82400769D01*
X118304220Y-82237928D01*
X118240052Y-82149346D01*
X118109415Y-81936070D01*
X118033290Y-81771114D01*
X118025334Y-81732158D01*
X118095531Y-81595312D01*
X118266265Y-81446196D01*
X118477745Y-81327033D01*
X118665606Y-81280000D01*
X118846439Y-81347011D01*
G36*
X117141595Y-80900273D02*
G01*
X117231628Y-81034541D01*
X117237398Y-81047167D01*
X117299923Y-81329661D01*
X117217860Y-81619128D01*
X117141225Y-81750084D01*
X117012104Y-81913580D01*
X116895388Y-81937875D01*
X116734167Y-81839473D01*
X116624441Y-81671352D01*
X116586205Y-81374353D01*
X116586000Y-81344041D01*
X116598927Y-81099257D01*
X116652529Y-80972151D01*
X116769037Y-80912073D01*
X116776500Y-80910031D01*
X117008862Y-80864416D01*
X117141595Y-80900273D01*
G37*
X117141595Y-80900273D02*
X117231628Y-81034541D01*
X117237398Y-81047167D01*
X117299923Y-81329661D01*
X117217860Y-81619128D01*
X117141225Y-81750084D01*
X117012104Y-81913580D01*
X116895388Y-81937875D01*
X116734167Y-81839473D01*
X116624441Y-81671352D01*
X116586205Y-81374353D01*
X116586000Y-81344041D01*
X116598927Y-81099257D01*
X116652529Y-80972151D01*
X116769037Y-80912073D01*
X116776500Y-80910031D01*
X117008862Y-80864416D01*
X117141595Y-80900273D01*
D11*
G36*
X145282228Y-112933703D02*
G01*
X145437100Y-112997853D01*
X145576481Y-113090985D01*
X145695015Y-113209519D01*
X145788147Y-113348900D01*
X145852297Y-113503772D01*
X145885000Y-113668184D01*
X145885000Y-113835816D01*
X145852297Y-114000228D01*
X145788147Y-114155100D01*
X145695015Y-114294481D01*
X145576481Y-114413015D01*
X145437100Y-114506147D01*
X145282228Y-114570297D01*
X145117816Y-114603000D01*
X144950184Y-114603000D01*
X144785772Y-114570297D01*
X144630900Y-114506147D01*
X144491519Y-114413015D01*
X144372985Y-114294481D01*
X144279853Y-114155100D01*
X144215703Y-114000228D01*
X144183000Y-113835816D01*
X144183000Y-113668184D01*
X144215703Y-113503772D01*
X144279853Y-113348900D01*
X144372985Y-113209519D01*
X144491519Y-113090985D01*
X144630900Y-112997853D01*
X144785772Y-112933703D01*
X144950184Y-112901000D01*
X145117816Y-112901000D01*
X145282228Y-112933703D01*
G37*
G36*
X145282228Y-110433703D02*
G01*
X145437100Y-110497853D01*
X145576481Y-110590985D01*
X145695015Y-110709519D01*
X145788147Y-110848900D01*
X145852297Y-111003772D01*
X145885000Y-111168184D01*
X145885000Y-111335816D01*
X145852297Y-111500228D01*
X145788147Y-111655100D01*
X145695015Y-111794481D01*
X145576481Y-111913015D01*
X145437100Y-112006147D01*
X145282228Y-112070297D01*
X145117816Y-112103000D01*
X144950184Y-112103000D01*
X144785772Y-112070297D01*
X144630900Y-112006147D01*
X144491519Y-111913015D01*
X144372985Y-111794481D01*
X144279853Y-111655100D01*
X144215703Y-111500228D01*
X144183000Y-111335816D01*
X144183000Y-111168184D01*
X144215703Y-111003772D01*
X144279853Y-110848900D01*
X144372985Y-110709519D01*
X144491519Y-110590985D01*
X144630900Y-110497853D01*
X144785772Y-110433703D01*
X144950184Y-110401000D01*
X145117816Y-110401000D01*
X145282228Y-110433703D01*
G37*
G36*
X153220823Y-105079313D02*
G01*
X153381242Y-105127976D01*
X153513906Y-105198886D01*
X153529078Y-105206996D01*
X153658659Y-105313341D01*
X153765004Y-105442922D01*
X153765005Y-105442924D01*
X153844024Y-105590758D01*
X153892687Y-105751177D01*
X153909117Y-105918000D01*
X153892687Y-106084823D01*
X153844024Y-106245242D01*
X153773114Y-106377906D01*
X153765004Y-106393078D01*
X153658659Y-106522659D01*
X153529078Y-106629004D01*
X153529076Y-106629005D01*
X153381242Y-106708024D01*
X153220823Y-106756687D01*
X153095804Y-106769000D01*
X152212196Y-106769000D01*
X152087177Y-106756687D01*
X151926758Y-106708024D01*
X151778924Y-106629005D01*
X151778922Y-106629004D01*
X151649341Y-106522659D01*
X151542996Y-106393078D01*
X151534886Y-106377906D01*
X151463976Y-106245242D01*
X151415313Y-106084823D01*
X151398883Y-105918000D01*
X151415313Y-105751177D01*
X151463976Y-105590758D01*
X151542995Y-105442924D01*
X151542996Y-105442922D01*
X151649341Y-105313341D01*
X151778922Y-105206996D01*
X151794094Y-105198886D01*
X151926758Y-105127976D01*
X152087177Y-105079313D01*
X152212196Y-105067000D01*
X153095804Y-105067000D01*
X153220823Y-105079313D01*
G37*
G36*
X145600823Y-105079313D02*
G01*
X145761242Y-105127976D01*
X145893906Y-105198886D01*
X145909078Y-105206996D01*
X146038659Y-105313341D01*
X146145004Y-105442922D01*
X146145005Y-105442924D01*
X146224024Y-105590758D01*
X146272687Y-105751177D01*
X146289117Y-105918000D01*
X146272687Y-106084823D01*
X146224024Y-106245242D01*
X146153114Y-106377906D01*
X146145004Y-106393078D01*
X146038659Y-106522659D01*
X145909078Y-106629004D01*
X145909076Y-106629005D01*
X145761242Y-106708024D01*
X145600823Y-106756687D01*
X145475804Y-106769000D01*
X144592196Y-106769000D01*
X144467177Y-106756687D01*
X144306758Y-106708024D01*
X144158924Y-106629005D01*
X144158922Y-106629004D01*
X144029341Y-106522659D01*
X143922996Y-106393078D01*
X143914886Y-106377906D01*
X143843976Y-106245242D01*
X143795313Y-106084823D01*
X143778883Y-105918000D01*
X143795313Y-105751177D01*
X143843976Y-105590758D01*
X143922995Y-105442924D01*
X143922996Y-105442922D01*
X144029341Y-105313341D01*
X144158922Y-105206996D01*
X144174094Y-105198886D01*
X144306758Y-105127976D01*
X144467177Y-105079313D01*
X144592196Y-105067000D01*
X145475804Y-105067000D01*
X145600823Y-105079313D01*
G37*
G36*
X153220823Y-102539313D02*
G01*
X153381242Y-102587976D01*
X153513906Y-102658886D01*
X153529078Y-102666996D01*
X153658659Y-102773341D01*
X153765004Y-102902922D01*
X153765005Y-102902924D01*
X153844024Y-103050758D01*
X153892687Y-103211177D01*
X153909117Y-103378000D01*
X153892687Y-103544823D01*
X153844024Y-103705242D01*
X153773114Y-103837906D01*
X153765004Y-103853078D01*
X153658659Y-103982659D01*
X153529078Y-104089004D01*
X153529076Y-104089005D01*
X153381242Y-104168024D01*
X153220823Y-104216687D01*
X153095804Y-104229000D01*
X152212196Y-104229000D01*
X152087177Y-104216687D01*
X151926758Y-104168024D01*
X151778924Y-104089005D01*
X151778922Y-104089004D01*
X151649341Y-103982659D01*
X151542996Y-103853078D01*
X151534886Y-103837906D01*
X151463976Y-103705242D01*
X151415313Y-103544823D01*
X151398883Y-103378000D01*
X151415313Y-103211177D01*
X151463976Y-103050758D01*
X151542995Y-102902924D01*
X151542996Y-102902922D01*
X151649341Y-102773341D01*
X151778922Y-102666996D01*
X151794094Y-102658886D01*
X151926758Y-102587976D01*
X152087177Y-102539313D01*
X152212196Y-102527000D01*
X153095804Y-102527000D01*
X153220823Y-102539313D01*
G37*
G36*
X145600823Y-102539313D02*
G01*
X145761242Y-102587976D01*
X145893906Y-102658886D01*
X145909078Y-102666996D01*
X146038659Y-102773341D01*
X146145004Y-102902922D01*
X146145005Y-102902924D01*
X146224024Y-103050758D01*
X146272687Y-103211177D01*
X146289117Y-103378000D01*
X146272687Y-103544823D01*
X146224024Y-103705242D01*
X146153114Y-103837906D01*
X146145004Y-103853078D01*
X146038659Y-103982659D01*
X145909078Y-104089004D01*
X145909076Y-104089005D01*
X145761242Y-104168024D01*
X145600823Y-104216687D01*
X145475804Y-104229000D01*
X144592196Y-104229000D01*
X144467177Y-104216687D01*
X144306758Y-104168024D01*
X144158924Y-104089005D01*
X144158922Y-104089004D01*
X144029341Y-103982659D01*
X143922996Y-103853078D01*
X143914886Y-103837906D01*
X143843976Y-103705242D01*
X143795313Y-103544823D01*
X143778883Y-103378000D01*
X143795313Y-103211177D01*
X143843976Y-103050758D01*
X143922995Y-102902924D01*
X143922996Y-102902922D01*
X144029341Y-102773341D01*
X144158922Y-102666996D01*
X144174094Y-102658886D01*
X144306758Y-102587976D01*
X144467177Y-102539313D01*
X144592196Y-102527000D01*
X145475804Y-102527000D01*
X145600823Y-102539313D01*
G37*
G36*
X153220823Y-99999313D02*
G01*
X153381242Y-100047976D01*
X153513906Y-100118886D01*
X153529078Y-100126996D01*
X153658659Y-100233341D01*
X153765004Y-100362922D01*
X153765005Y-100362924D01*
X153844024Y-100510758D01*
X153892687Y-100671177D01*
X153909117Y-100838000D01*
X153892687Y-101004823D01*
X153844024Y-101165242D01*
X153773114Y-101297906D01*
X153765004Y-101313078D01*
X153658659Y-101442659D01*
X153529078Y-101549004D01*
X153529076Y-101549005D01*
X153381242Y-101628024D01*
X153220823Y-101676687D01*
X153095804Y-101689000D01*
X152212196Y-101689000D01*
X152087177Y-101676687D01*
X151926758Y-101628024D01*
X151778924Y-101549005D01*
X151778922Y-101549004D01*
X151649341Y-101442659D01*
X151542996Y-101313078D01*
X151534886Y-101297906D01*
X151463976Y-101165242D01*
X151415313Y-101004823D01*
X151398883Y-100838000D01*
X151415313Y-100671177D01*
X151463976Y-100510758D01*
X151542995Y-100362924D01*
X151542996Y-100362922D01*
X151649341Y-100233341D01*
X151778922Y-100126996D01*
X151794094Y-100118886D01*
X151926758Y-100047976D01*
X152087177Y-99999313D01*
X152212196Y-99987000D01*
X153095804Y-99987000D01*
X153220823Y-99999313D01*
G37*
G36*
X145600823Y-99999313D02*
G01*
X145761242Y-100047976D01*
X145893906Y-100118886D01*
X145909078Y-100126996D01*
X146038659Y-100233341D01*
X146145004Y-100362922D01*
X146145005Y-100362924D01*
X146224024Y-100510758D01*
X146272687Y-100671177D01*
X146289117Y-100838000D01*
X146272687Y-101004823D01*
X146224024Y-101165242D01*
X146153114Y-101297906D01*
X146145004Y-101313078D01*
X146038659Y-101442659D01*
X145909078Y-101549004D01*
X145909076Y-101549005D01*
X145761242Y-101628024D01*
X145600823Y-101676687D01*
X145475804Y-101689000D01*
X144592196Y-101689000D01*
X144467177Y-101676687D01*
X144306758Y-101628024D01*
X144158924Y-101549005D01*
X144158922Y-101549004D01*
X144029341Y-101442659D01*
X143922996Y-101313078D01*
X143914886Y-101297906D01*
X143843976Y-101165242D01*
X143795313Y-101004823D01*
X143778883Y-100838000D01*
X143795313Y-100671177D01*
X143843976Y-100510758D01*
X143922995Y-100362924D01*
X143922996Y-100362922D01*
X144029341Y-100233341D01*
X144158922Y-100126996D01*
X144174094Y-100118886D01*
X144306758Y-100047976D01*
X144467177Y-99999313D01*
X144592196Y-99987000D01*
X145475804Y-99987000D01*
X145600823Y-99999313D01*
G37*
G36*
X146285000Y-99149000D02*
G01*
X143783000Y-99149000D01*
X143783000Y-97447000D01*
X146285000Y-97447000D01*
X146285000Y-99149000D01*
G37*
G36*
X153220823Y-97459313D02*
G01*
X153381242Y-97507976D01*
X153513906Y-97578886D01*
X153529078Y-97586996D01*
X153658659Y-97693341D01*
X153765004Y-97822922D01*
X153765005Y-97822924D01*
X153844024Y-97970758D01*
X153892687Y-98131177D01*
X153909117Y-98298000D01*
X153892687Y-98464823D01*
X153844024Y-98625242D01*
X153773114Y-98757906D01*
X153765004Y-98773078D01*
X153658659Y-98902659D01*
X153529078Y-99009004D01*
X153529076Y-99009005D01*
X153381242Y-99088024D01*
X153220823Y-99136687D01*
X153095804Y-99149000D01*
X152212196Y-99149000D01*
X152087177Y-99136687D01*
X151926758Y-99088024D01*
X151778924Y-99009005D01*
X151778922Y-99009004D01*
X151649341Y-98902659D01*
X151542996Y-98773078D01*
X151534886Y-98757906D01*
X151463976Y-98625242D01*
X151415313Y-98464823D01*
X151398883Y-98298000D01*
X151415313Y-98131177D01*
X151463976Y-97970758D01*
X151542995Y-97822924D01*
X151542996Y-97822922D01*
X151649341Y-97693341D01*
X151778922Y-97586996D01*
X151794094Y-97578886D01*
X151926758Y-97507976D01*
X152087177Y-97459313D01*
X152212196Y-97447000D01*
X153095804Y-97447000D01*
X153220823Y-97459313D01*
G37*
G36*
X145282228Y-92653703D02*
G01*
X145437100Y-92717853D01*
X145576481Y-92810985D01*
X145695015Y-92929519D01*
X145788147Y-93068900D01*
X145852297Y-93223772D01*
X145885000Y-93388184D01*
X145885000Y-93555816D01*
X145852297Y-93720228D01*
X145788147Y-93875100D01*
X145695015Y-94014481D01*
X145576481Y-94133015D01*
X145437100Y-94226147D01*
X145282228Y-94290297D01*
X145117816Y-94323000D01*
X144950184Y-94323000D01*
X144785772Y-94290297D01*
X144630900Y-94226147D01*
X144491519Y-94133015D01*
X144372985Y-94014481D01*
X144279853Y-93875100D01*
X144215703Y-93720228D01*
X144183000Y-93555816D01*
X144183000Y-93388184D01*
X144215703Y-93223772D01*
X144279853Y-93068900D01*
X144372985Y-92929519D01*
X144491519Y-92810985D01*
X144630900Y-92717853D01*
X144785772Y-92653703D01*
X144950184Y-92621000D01*
X145117816Y-92621000D01*
X145282228Y-92653703D01*
G37*
G36*
X152902228Y-92615603D02*
G01*
X153057100Y-92679753D01*
X153196481Y-92772885D01*
X153315015Y-92891419D01*
X153408147Y-93030800D01*
X153472297Y-93185672D01*
X153505000Y-93350084D01*
X153505000Y-93517716D01*
X153472297Y-93682128D01*
X153408147Y-93837000D01*
X153315015Y-93976381D01*
X153196481Y-94094915D01*
X153057100Y-94188047D01*
X152902228Y-94252197D01*
X152737816Y-94284900D01*
X152570184Y-94284900D01*
X152405772Y-94252197D01*
X152250900Y-94188047D01*
X152111519Y-94094915D01*
X151992985Y-93976381D01*
X151899853Y-93837000D01*
X151835703Y-93682128D01*
X151803000Y-93517716D01*
X151803000Y-93350084D01*
X151835703Y-93185672D01*
X151899853Y-93030800D01*
X151992985Y-92891419D01*
X152111519Y-92772885D01*
X152250900Y-92679753D01*
X152405772Y-92615603D01*
X152570184Y-92582900D01*
X152737816Y-92582900D01*
X152902228Y-92615603D01*
G37*
G36*
X145282228Y-82493703D02*
G01*
X145437100Y-82557853D01*
X145576481Y-82650985D01*
X145695015Y-82769519D01*
X145788147Y-82908900D01*
X145852297Y-83063772D01*
X145885000Y-83228184D01*
X145885000Y-83395816D01*
X145852297Y-83560228D01*
X145788147Y-83715100D01*
X145695015Y-83854481D01*
X145576481Y-83973015D01*
X145437100Y-84066147D01*
X145282228Y-84130297D01*
X145117816Y-84163000D01*
X144950184Y-84163000D01*
X144785772Y-84130297D01*
X144630900Y-84066147D01*
X144491519Y-83973015D01*
X144372985Y-83854481D01*
X144279853Y-83715100D01*
X144215703Y-83560228D01*
X144183000Y-83395816D01*
X144183000Y-83228184D01*
X144215703Y-83063772D01*
X144279853Y-82908900D01*
X144372985Y-82769519D01*
X144491519Y-82650985D01*
X144630900Y-82557853D01*
X144785772Y-82493703D01*
X144950184Y-82461000D01*
X145117816Y-82461000D01*
X145282228Y-82493703D01*
G37*
G36*
X152902228Y-82455603D02*
G01*
X153057100Y-82519753D01*
X153196481Y-82612885D01*
X153315015Y-82731419D01*
X153408147Y-82870800D01*
X153472297Y-83025672D01*
X153505000Y-83190084D01*
X153505000Y-83357716D01*
X153472297Y-83522128D01*
X153408147Y-83677000D01*
X153315015Y-83816381D01*
X153196481Y-83934915D01*
X153057100Y-84028047D01*
X152902228Y-84092197D01*
X152737816Y-84124900D01*
X152570184Y-84124900D01*
X152405772Y-84092197D01*
X152250900Y-84028047D01*
X152111519Y-83934915D01*
X151992985Y-83816381D01*
X151899853Y-83677000D01*
X151835703Y-83522128D01*
X151803000Y-83357716D01*
X151803000Y-83190084D01*
X151835703Y-83025672D01*
X151899853Y-82870800D01*
X151992985Y-82731419D01*
X152111519Y-82612885D01*
X152250900Y-82519753D01*
X152405772Y-82455603D01*
X152570184Y-82422900D01*
X152737816Y-82422900D01*
X152902228Y-82455603D01*
G37*
G36*
X149041428Y-80269303D02*
G01*
X149196300Y-80333453D01*
X149335681Y-80426585D01*
X149454215Y-80545119D01*
X149547347Y-80684500D01*
X149611497Y-80839372D01*
X149644200Y-81003784D01*
X149644200Y-81171416D01*
X149611497Y-81335828D01*
X149547347Y-81490700D01*
X149454215Y-81630081D01*
X149335681Y-81748615D01*
X149196300Y-81841747D01*
X149041428Y-81905897D01*
X148877016Y-81938600D01*
X148709384Y-81938600D01*
X148544972Y-81905897D01*
X148390100Y-81841747D01*
X148250719Y-81748615D01*
X148132185Y-81630081D01*
X148039053Y-81490700D01*
X147974903Y-81335828D01*
X147942200Y-81171416D01*
X147942200Y-81003784D01*
X147974903Y-80839372D01*
X148039053Y-80684500D01*
X148132185Y-80545119D01*
X148250719Y-80426585D01*
X148390100Y-80333453D01*
X148544972Y-80269303D01*
X148709384Y-80236600D01*
X148877016Y-80236600D01*
X149041428Y-80269303D01*
G37*
G36*
X145103799Y-78349217D02*
G01*
X143646783Y-79571799D01*
X142424201Y-78114783D01*
X143881217Y-76892201D01*
X145103799Y-78349217D01*
G37*
G36*
X149041428Y-77769303D02*
G01*
X149196300Y-77833453D01*
X149335681Y-77926585D01*
X149454215Y-78045119D01*
X149547347Y-78184500D01*
X149611497Y-78339372D01*
X149644200Y-78503784D01*
X149644200Y-78671416D01*
X149611497Y-78835828D01*
X149547347Y-78990700D01*
X149454215Y-79130081D01*
X149335681Y-79248615D01*
X149196300Y-79341747D01*
X149041428Y-79405897D01*
X148877016Y-79438600D01*
X148709384Y-79438600D01*
X148544972Y-79405897D01*
X148390100Y-79341747D01*
X148250719Y-79248615D01*
X148132185Y-79130081D01*
X148039053Y-78990700D01*
X147974903Y-78835828D01*
X147942200Y-78671416D01*
X147942200Y-78503784D01*
X147974903Y-78339372D01*
X148039053Y-78184500D01*
X148132185Y-78045119D01*
X148250719Y-77926585D01*
X148390100Y-77833453D01*
X148544972Y-77769303D01*
X148709384Y-77736600D01*
X148877016Y-77736600D01*
X149041428Y-77769303D01*
G37*
G36*
X136595428Y-77007303D02*
G01*
X136750300Y-77071453D01*
X136889681Y-77164585D01*
X137008215Y-77283119D01*
X137101347Y-77422500D01*
X137165497Y-77577372D01*
X137198200Y-77741784D01*
X137198200Y-77909416D01*
X137165497Y-78073828D01*
X137101347Y-78228700D01*
X137008215Y-78368081D01*
X136889681Y-78486615D01*
X136750300Y-78579747D01*
X136595428Y-78643897D01*
X136431016Y-78676600D01*
X136263384Y-78676600D01*
X136098972Y-78643897D01*
X135944100Y-78579747D01*
X135804719Y-78486615D01*
X135686185Y-78368081D01*
X135593053Y-78228700D01*
X135528903Y-78073828D01*
X135496200Y-77909416D01*
X135496200Y-77741784D01*
X135528903Y-77577372D01*
X135593053Y-77422500D01*
X135686185Y-77283119D01*
X135804719Y-77164585D01*
X135944100Y-77071453D01*
X136098972Y-77007303D01*
X136263384Y-76974600D01*
X136431016Y-76974600D01*
X136595428Y-77007303D01*
G37*
G36*
X142408714Y-75371793D02*
G01*
X142581785Y-75443481D01*
X142659137Y-75495166D01*
X142737546Y-75547557D01*
X142870009Y-75680020D01*
X142870010Y-75680022D01*
X142974085Y-75835781D01*
X143045773Y-76008852D01*
X143082319Y-76192580D01*
X143082319Y-76379914D01*
X143045773Y-76563642D01*
X142974085Y-76736713D01*
X142974084Y-76736714D01*
X142870009Y-76892474D01*
X142737546Y-77024937D01*
X142659137Y-77077328D01*
X142581785Y-77129013D01*
X142408714Y-77200701D01*
X142224986Y-77237247D01*
X142037652Y-77237247D01*
X141853924Y-77200701D01*
X141680853Y-77129013D01*
X141603501Y-77077328D01*
X141525092Y-77024937D01*
X141392629Y-76892474D01*
X141288554Y-76736714D01*
X141288553Y-76736713D01*
X141216865Y-76563642D01*
X141180319Y-76379914D01*
X141180319Y-76192580D01*
X141216865Y-76008852D01*
X141288553Y-75835781D01*
X141392628Y-75680022D01*
X141392629Y-75680020D01*
X141525092Y-75547557D01*
X141603501Y-75495166D01*
X141680853Y-75443481D01*
X141853924Y-75371793D01*
X142037652Y-75335247D01*
X142224986Y-75335247D01*
X142408714Y-75371793D01*
G37*
G36*
X118857800Y-76135000D02*
G01*
X116955800Y-76135000D01*
X116955800Y-74233000D01*
X118857800Y-74233000D01*
X118857800Y-76135000D01*
G37*
G36*
X120684195Y-74269546D02*
G01*
X120857266Y-74341234D01*
X120857267Y-74341235D01*
X121013027Y-74445310D01*
X121145490Y-74577773D01*
X121145491Y-74577775D01*
X121249566Y-74733534D01*
X121321254Y-74906605D01*
X121357800Y-75090333D01*
X121357800Y-75277667D01*
X121321254Y-75461395D01*
X121249566Y-75634466D01*
X121249565Y-75634467D01*
X121145490Y-75790227D01*
X121013027Y-75922690D01*
X120934618Y-75975081D01*
X120857266Y-76026766D01*
X120684195Y-76098454D01*
X120500467Y-76135000D01*
X120313133Y-76135000D01*
X120129405Y-76098454D01*
X119956334Y-76026766D01*
X119878982Y-75975081D01*
X119800573Y-75922690D01*
X119668110Y-75790227D01*
X119564035Y-75634467D01*
X119564034Y-75634466D01*
X119492346Y-75461395D01*
X119455800Y-75277667D01*
X119455800Y-75090333D01*
X119492346Y-74906605D01*
X119564034Y-74733534D01*
X119668109Y-74577775D01*
X119668110Y-74577773D01*
X119800573Y-74445310D01*
X119956333Y-74341235D01*
X119956334Y-74341234D01*
X120129405Y-74269546D01*
X120313133Y-74233000D01*
X120500467Y-74233000D01*
X120684195Y-74269546D01*
G37*
G36*
X123184195Y-74269546D02*
G01*
X123357266Y-74341234D01*
X123357267Y-74341235D01*
X123513027Y-74445310D01*
X123645490Y-74577773D01*
X123645491Y-74577775D01*
X123749566Y-74733534D01*
X123821254Y-74906605D01*
X123857800Y-75090333D01*
X123857800Y-75277667D01*
X123821254Y-75461395D01*
X123749566Y-75634466D01*
X123749565Y-75634467D01*
X123645490Y-75790227D01*
X123513027Y-75922690D01*
X123434618Y-75975081D01*
X123357266Y-76026766D01*
X123184195Y-76098454D01*
X123000467Y-76135000D01*
X122813133Y-76135000D01*
X122629405Y-76098454D01*
X122456334Y-76026766D01*
X122378982Y-75975081D01*
X122300573Y-75922690D01*
X122168110Y-75790227D01*
X122064035Y-75634467D01*
X122064034Y-75634466D01*
X121992346Y-75461395D01*
X121955800Y-75277667D01*
X121955800Y-75090333D01*
X121992346Y-74906605D01*
X122064034Y-74733534D01*
X122168109Y-74577775D01*
X122168110Y-74577773D01*
X122300573Y-74445310D01*
X122456333Y-74341235D01*
X122456334Y-74341234D01*
X122629405Y-74269546D01*
X122813133Y-74233000D01*
X123000467Y-74233000D01*
X123184195Y-74269546D01*
G37*
G36*
X118184195Y-71069546D02*
G01*
X118357266Y-71141234D01*
X118357267Y-71141235D01*
X118513027Y-71245310D01*
X118645490Y-71377773D01*
X118645491Y-71377775D01*
X118749566Y-71533534D01*
X118821254Y-71706605D01*
X118857800Y-71890333D01*
X118857800Y-72077667D01*
X118821254Y-72261395D01*
X118749566Y-72434466D01*
X118749565Y-72434467D01*
X118645490Y-72590227D01*
X118513027Y-72722690D01*
X118434618Y-72775081D01*
X118357266Y-72826766D01*
X118184195Y-72898454D01*
X118000467Y-72935000D01*
X117813133Y-72935000D01*
X117629405Y-72898454D01*
X117456334Y-72826766D01*
X117378982Y-72775081D01*
X117300573Y-72722690D01*
X117168110Y-72590227D01*
X117064035Y-72434467D01*
X117064034Y-72434466D01*
X116992346Y-72261395D01*
X116955800Y-72077667D01*
X116955800Y-71890333D01*
X116992346Y-71706605D01*
X117064034Y-71533534D01*
X117168109Y-71377775D01*
X117168110Y-71377773D01*
X117300573Y-71245310D01*
X117456333Y-71141235D01*
X117456334Y-71141234D01*
X117629405Y-71069546D01*
X117813133Y-71033000D01*
X118000467Y-71033000D01*
X118184195Y-71069546D01*
G37*
G36*
X120684195Y-71069546D02*
G01*
X120857266Y-71141234D01*
X120857267Y-71141235D01*
X121013027Y-71245310D01*
X121145490Y-71377773D01*
X121145491Y-71377775D01*
X121249566Y-71533534D01*
X121321254Y-71706605D01*
X121357800Y-71890333D01*
X121357800Y-72077667D01*
X121321254Y-72261395D01*
X121249566Y-72434466D01*
X121249565Y-72434467D01*
X121145490Y-72590227D01*
X121013027Y-72722690D01*
X120934618Y-72775081D01*
X120857266Y-72826766D01*
X120684195Y-72898454D01*
X120500467Y-72935000D01*
X120313133Y-72935000D01*
X120129405Y-72898454D01*
X119956334Y-72826766D01*
X119878982Y-72775081D01*
X119800573Y-72722690D01*
X119668110Y-72590227D01*
X119564035Y-72434467D01*
X119564034Y-72434466D01*
X119492346Y-72261395D01*
X119455800Y-72077667D01*
X119455800Y-71890333D01*
X119492346Y-71706605D01*
X119564034Y-71533534D01*
X119668109Y-71377775D01*
X119668110Y-71377773D01*
X119800573Y-71245310D01*
X119956333Y-71141235D01*
X119956334Y-71141234D01*
X120129405Y-71069546D01*
X120313133Y-71033000D01*
X120500467Y-71033000D01*
X120684195Y-71069546D01*
G37*
G36*
X123184195Y-71069546D02*
G01*
X123357266Y-71141234D01*
X123357267Y-71141235D01*
X123513027Y-71245310D01*
X123645490Y-71377773D01*
X123645491Y-71377775D01*
X123749566Y-71533534D01*
X123821254Y-71706605D01*
X123857800Y-71890333D01*
X123857800Y-72077667D01*
X123821254Y-72261395D01*
X123749566Y-72434466D01*
X123749565Y-72434467D01*
X123645490Y-72590227D01*
X123513027Y-72722690D01*
X123434618Y-72775081D01*
X123357266Y-72826766D01*
X123184195Y-72898454D01*
X123000467Y-72935000D01*
X122813133Y-72935000D01*
X122629405Y-72898454D01*
X122456334Y-72826766D01*
X122378982Y-72775081D01*
X122300573Y-72722690D01*
X122168110Y-72590227D01*
X122064035Y-72434467D01*
X122064034Y-72434466D01*
X121992346Y-72261395D01*
X121955800Y-72077667D01*
X121955800Y-71890333D01*
X121992346Y-71706605D01*
X122064034Y-71533534D01*
X122168109Y-71377775D01*
X122168110Y-71377773D01*
X122300573Y-71245310D01*
X122456333Y-71141235D01*
X122456334Y-71141234D01*
X122629405Y-71069546D01*
X122813133Y-71033000D01*
X123000467Y-71033000D01*
X123184195Y-71069546D01*
G37*
G36*
X130169256Y-66463298D02*
G01*
X130275579Y-66484447D01*
X130576042Y-66608903D01*
X130846451Y-66789585D01*
X131076415Y-67019549D01*
X131257097Y-67289958D01*
X131381553Y-67590421D01*
X131445000Y-67909391D01*
X131445000Y-68234609D01*
X131381553Y-68553579D01*
X131257097Y-68854042D01*
X131076415Y-69124451D01*
X130846451Y-69354415D01*
X130576042Y-69535097D01*
X130275579Y-69659553D01*
X130169256Y-69680702D01*
X129956611Y-69723000D01*
X129631389Y-69723000D01*
X129418744Y-69680702D01*
X129312421Y-69659553D01*
X129011958Y-69535097D01*
X128741549Y-69354415D01*
X128511585Y-69124451D01*
X128330903Y-68854042D01*
X128206447Y-68553579D01*
X128143000Y-68234609D01*
X128143000Y-67909391D01*
X128206447Y-67590421D01*
X128330903Y-67289958D01*
X128511585Y-67019549D01*
X128741549Y-66789585D01*
X129011958Y-66608903D01*
X129312421Y-66484447D01*
X129418744Y-66463298D01*
X129631389Y-66421000D01*
X129956611Y-66421000D01*
X130169256Y-66463298D01*
G37*
G36*
X136595428Y-66847303D02*
G01*
X136750300Y-66911453D01*
X136889681Y-67004585D01*
X137008215Y-67123119D01*
X137101347Y-67262500D01*
X137165497Y-67417372D01*
X137198200Y-67581784D01*
X137198200Y-67749416D01*
X137165497Y-67913828D01*
X137101347Y-68068700D01*
X137008215Y-68208081D01*
X136889681Y-68326615D01*
X136750300Y-68419747D01*
X136595428Y-68483897D01*
X136431016Y-68516600D01*
X136263384Y-68516600D01*
X136098972Y-68483897D01*
X135944100Y-68419747D01*
X135804719Y-68326615D01*
X135686185Y-68208081D01*
X135593053Y-68068700D01*
X135528903Y-67913828D01*
X135496200Y-67749416D01*
X135496200Y-67581784D01*
X135528903Y-67417372D01*
X135593053Y-67262500D01*
X135686185Y-67123119D01*
X135804719Y-67004585D01*
X135944100Y-66911453D01*
X136098972Y-66847303D01*
X136263384Y-66814600D01*
X136431016Y-66814600D01*
X136595428Y-66847303D01*
G37*
M02*
