G04 #@! TF.GenerationSoftware,KiCad,Pcbnew,(5.1.5)-3*
G04 #@! TF.CreationDate,2020-04-16T18:29:44-07:00*
G04 #@! TF.ProjectId,E_Grrrl,455f4772-7272-46c2-9e6b-696361645f70,Version A2*
G04 #@! TF.SameCoordinates,Original*
G04 #@! TF.FileFunction,Legend,Top*
G04 #@! TF.FilePolarity,Positive*
%FSLAX46Y46*%
G04 Gerber Fmt 4.6, Leading zero omitted, Abs format (unit mm)*
G04 Created by KiCad (PCBNEW (5.1.5)-3) date 2020-04-16 18:29:44*
%MOMM*%
%LPD*%
G04 APERTURE LIST*
%ADD10C,0.150000*%
%ADD11C,0.010000*%
%ADD12C,0.120000*%
G04 APERTURE END LIST*
D10*
X139827047Y-77033428D02*
X140588952Y-77033428D01*
X140208000Y-77414380D02*
X140208000Y-76652476D01*
D11*
G36*
X133353020Y-86812061D02*
G01*
X133453861Y-87051631D01*
X133487853Y-87197429D01*
X133496786Y-87416149D01*
X133424131Y-87663282D01*
X133303278Y-87909026D01*
X132966147Y-88498066D01*
X132662962Y-88952367D01*
X132374822Y-89298065D01*
X132142797Y-89513701D01*
X131866524Y-89784725D01*
X131702617Y-90073057D01*
X131655951Y-90214890D01*
X131623209Y-90347293D01*
X131603432Y-90483402D01*
X131599761Y-90640627D01*
X131615335Y-90836381D01*
X131653296Y-91088074D01*
X131716785Y-91413119D01*
X131808941Y-91828925D01*
X131932907Y-92352905D01*
X132091823Y-93002470D01*
X132288830Y-93795031D01*
X132335409Y-93981563D01*
X132488073Y-94603632D01*
X132637365Y-95231964D01*
X132774489Y-95828050D01*
X132890653Y-96353380D01*
X132977063Y-96769445D01*
X133002406Y-96902563D01*
X133088583Y-97372093D01*
X133180345Y-97867058D01*
X133263712Y-98312237D01*
X133301120Y-98509667D01*
X133364480Y-98890074D01*
X133430644Y-99366738D01*
X133490008Y-99867037D01*
X133519500Y-100160667D01*
X133558105Y-100559167D01*
X133595246Y-100902445D01*
X133626426Y-101151227D01*
X133645516Y-101261333D01*
X133683122Y-101450597D01*
X133729551Y-101774915D01*
X133781286Y-102200460D01*
X133834809Y-102693403D01*
X133886602Y-103219915D01*
X133933148Y-103746170D01*
X133970928Y-104238338D01*
X133993848Y-104610910D01*
X134014854Y-105156335D01*
X134012651Y-105562498D01*
X133986204Y-105858009D01*
X133941729Y-106050243D01*
X133791411Y-106389809D01*
X133566254Y-106696376D01*
X133252363Y-106977862D01*
X132835841Y-107242185D01*
X132302794Y-107497261D01*
X131639327Y-107751008D01*
X130831543Y-108011343D01*
X130159044Y-108205566D01*
X129292089Y-108441164D01*
X128554732Y-108627929D01*
X127916532Y-108772355D01*
X127347045Y-108880935D01*
X126815830Y-108960164D01*
X126407334Y-109005874D01*
X126103235Y-109036258D01*
X125686575Y-109079195D01*
X125213126Y-109128882D01*
X124756334Y-109177615D01*
X124211506Y-109234709D01*
X123602819Y-109296014D01*
X123014791Y-109353128D01*
X122639667Y-109388024D01*
X122136467Y-109434044D01*
X121594623Y-109484410D01*
X121092044Y-109531845D01*
X120819334Y-109558047D01*
X120345008Y-109600785D01*
X119801135Y-109644769D01*
X119287250Y-109682052D01*
X119168334Y-109689827D01*
X118758547Y-109728045D01*
X118314551Y-109789491D01*
X117873606Y-109866651D01*
X117472969Y-109952014D01*
X117149899Y-110038068D01*
X116941655Y-110117300D01*
X116896123Y-110147951D01*
X116858794Y-110219718D01*
X116940846Y-110255214D01*
X117155433Y-110255022D01*
X117515709Y-110219727D01*
X117771334Y-110186837D01*
X118247444Y-110121212D01*
X118579293Y-110081952D01*
X118791204Y-110079485D01*
X118907497Y-110124241D01*
X118952494Y-110226647D01*
X118950516Y-110397132D01*
X118925885Y-110646123D01*
X118922678Y-110680500D01*
X118831515Y-111415060D01*
X118699831Y-112013723D01*
X118518426Y-112507004D01*
X118278103Y-112925415D01*
X118222939Y-113001754D01*
X117940430Y-113336270D01*
X117646607Y-113576573D01*
X117298957Y-113745055D01*
X116854968Y-113864104D01*
X116459000Y-113930746D01*
X116029398Y-113989470D01*
X115708127Y-114020738D01*
X115436302Y-114023802D01*
X115155041Y-113997911D01*
X114805461Y-113942317D01*
X114609082Y-113907212D01*
X114064544Y-113763717D01*
X113575993Y-113530569D01*
X113112962Y-113187255D01*
X112644983Y-112713262D01*
X112397424Y-112418122D01*
X111826137Y-111611535D01*
X111412268Y-110798576D01*
X111248617Y-110278333D01*
X116670667Y-110278333D01*
X116713000Y-110320667D01*
X116755334Y-110278333D01*
X116713000Y-110236000D01*
X116670667Y-110278333D01*
X111248617Y-110278333D01*
X111145417Y-109950266D01*
X111015186Y-109037623D01*
X110998000Y-108518330D01*
X111023721Y-107929148D01*
X111107346Y-107354741D01*
X111258572Y-106757076D01*
X111487095Y-106098120D01*
X111802610Y-105339843D01*
X111816102Y-105309335D01*
X112108423Y-104691168D01*
X112385263Y-104207427D01*
X112670775Y-103827908D01*
X112989112Y-103522409D01*
X113364425Y-103260724D01*
X113531759Y-103163853D01*
X114116733Y-102880954D01*
X114715390Y-102680794D01*
X115351579Y-102561771D01*
X116049153Y-102522284D01*
X116831960Y-102560731D01*
X117723853Y-102675511D01*
X118557804Y-102826356D01*
X119009079Y-102915525D01*
X119413150Y-102992956D01*
X119789009Y-103060981D01*
X120155651Y-103121929D01*
X120532070Y-103178132D01*
X120937259Y-103231922D01*
X121390213Y-103285629D01*
X121909926Y-103341585D01*
X122515390Y-103402120D01*
X123225601Y-103469565D01*
X124059553Y-103546252D01*
X125036238Y-103634512D01*
X125433667Y-103670216D01*
X126286592Y-103746953D01*
X126987922Y-103810524D01*
X127554744Y-103862586D01*
X128004145Y-103904795D01*
X128353213Y-103938810D01*
X128619036Y-103966287D01*
X128818701Y-103988883D01*
X128969296Y-104008256D01*
X129064702Y-104022354D01*
X129274192Y-104048478D01*
X129357197Y-104021343D01*
X129353886Y-103917720D01*
X129340687Y-103862745D01*
X129342365Y-103645626D01*
X129403340Y-103555350D01*
X129468456Y-103468186D01*
X129465794Y-103334157D01*
X129398129Y-103108371D01*
X129339058Y-102865747D01*
X129283480Y-102514080D01*
X129240168Y-102113576D01*
X129227109Y-101934953D01*
X129206912Y-101543664D01*
X129208814Y-101262742D01*
X129241389Y-101033758D01*
X129313213Y-100798286D01*
X129432863Y-100497899D01*
X129440860Y-100478675D01*
X129572885Y-100121149D01*
X129717021Y-99666084D01*
X129852423Y-99182038D01*
X129926661Y-98880930D01*
X130042578Y-98402024D01*
X130174868Y-97893501D01*
X130303769Y-97429844D01*
X130373393Y-97197333D01*
X130479660Y-96827063D01*
X130546841Y-96498120D01*
X130583103Y-96148784D01*
X130596612Y-95717335D01*
X130597472Y-95504000D01*
X130594312Y-95095741D01*
X130579226Y-94781314D01*
X130542775Y-94509483D01*
X130475520Y-94229012D01*
X130368022Y-93888665D01*
X130223131Y-93472000D01*
X129849498Y-92413667D01*
X129864130Y-91302613D01*
X129863201Y-90736734D01*
X129842041Y-90312071D01*
X129798591Y-90001487D01*
X129752794Y-89834529D01*
X129685996Y-89525397D01*
X129719161Y-89293526D01*
X129844808Y-89168023D01*
X129927724Y-89154000D01*
X130079238Y-89101770D01*
X130330470Y-88958883D01*
X130653580Y-88746045D01*
X131020722Y-88483963D01*
X131404055Y-88193343D01*
X131775736Y-87894890D01*
X132107922Y-87609311D01*
X132372769Y-87357311D01*
X132440197Y-87285545D01*
X132767938Y-86950466D01*
X133021617Y-86760507D01*
X133212791Y-86714696D01*
X133353020Y-86812061D01*
G37*
X133353020Y-86812061D02*
X133453861Y-87051631D01*
X133487853Y-87197429D01*
X133496786Y-87416149D01*
X133424131Y-87663282D01*
X133303278Y-87909026D01*
X132966147Y-88498066D01*
X132662962Y-88952367D01*
X132374822Y-89298065D01*
X132142797Y-89513701D01*
X131866524Y-89784725D01*
X131702617Y-90073057D01*
X131655951Y-90214890D01*
X131623209Y-90347293D01*
X131603432Y-90483402D01*
X131599761Y-90640627D01*
X131615335Y-90836381D01*
X131653296Y-91088074D01*
X131716785Y-91413119D01*
X131808941Y-91828925D01*
X131932907Y-92352905D01*
X132091823Y-93002470D01*
X132288830Y-93795031D01*
X132335409Y-93981563D01*
X132488073Y-94603632D01*
X132637365Y-95231964D01*
X132774489Y-95828050D01*
X132890653Y-96353380D01*
X132977063Y-96769445D01*
X133002406Y-96902563D01*
X133088583Y-97372093D01*
X133180345Y-97867058D01*
X133263712Y-98312237D01*
X133301120Y-98509667D01*
X133364480Y-98890074D01*
X133430644Y-99366738D01*
X133490008Y-99867037D01*
X133519500Y-100160667D01*
X133558105Y-100559167D01*
X133595246Y-100902445D01*
X133626426Y-101151227D01*
X133645516Y-101261333D01*
X133683122Y-101450597D01*
X133729551Y-101774915D01*
X133781286Y-102200460D01*
X133834809Y-102693403D01*
X133886602Y-103219915D01*
X133933148Y-103746170D01*
X133970928Y-104238338D01*
X133993848Y-104610910D01*
X134014854Y-105156335D01*
X134012651Y-105562498D01*
X133986204Y-105858009D01*
X133941729Y-106050243D01*
X133791411Y-106389809D01*
X133566254Y-106696376D01*
X133252363Y-106977862D01*
X132835841Y-107242185D01*
X132302794Y-107497261D01*
X131639327Y-107751008D01*
X130831543Y-108011343D01*
X130159044Y-108205566D01*
X129292089Y-108441164D01*
X128554732Y-108627929D01*
X127916532Y-108772355D01*
X127347045Y-108880935D01*
X126815830Y-108960164D01*
X126407334Y-109005874D01*
X126103235Y-109036258D01*
X125686575Y-109079195D01*
X125213126Y-109128882D01*
X124756334Y-109177615D01*
X124211506Y-109234709D01*
X123602819Y-109296014D01*
X123014791Y-109353128D01*
X122639667Y-109388024D01*
X122136467Y-109434044D01*
X121594623Y-109484410D01*
X121092044Y-109531845D01*
X120819334Y-109558047D01*
X120345008Y-109600785D01*
X119801135Y-109644769D01*
X119287250Y-109682052D01*
X119168334Y-109689827D01*
X118758547Y-109728045D01*
X118314551Y-109789491D01*
X117873606Y-109866651D01*
X117472969Y-109952014D01*
X117149899Y-110038068D01*
X116941655Y-110117300D01*
X116896123Y-110147951D01*
X116858794Y-110219718D01*
X116940846Y-110255214D01*
X117155433Y-110255022D01*
X117515709Y-110219727D01*
X117771334Y-110186837D01*
X118247444Y-110121212D01*
X118579293Y-110081952D01*
X118791204Y-110079485D01*
X118907497Y-110124241D01*
X118952494Y-110226647D01*
X118950516Y-110397132D01*
X118925885Y-110646123D01*
X118922678Y-110680500D01*
X118831515Y-111415060D01*
X118699831Y-112013723D01*
X118518426Y-112507004D01*
X118278103Y-112925415D01*
X118222939Y-113001754D01*
X117940430Y-113336270D01*
X117646607Y-113576573D01*
X117298957Y-113745055D01*
X116854968Y-113864104D01*
X116459000Y-113930746D01*
X116029398Y-113989470D01*
X115708127Y-114020738D01*
X115436302Y-114023802D01*
X115155041Y-113997911D01*
X114805461Y-113942317D01*
X114609082Y-113907212D01*
X114064544Y-113763717D01*
X113575993Y-113530569D01*
X113112962Y-113187255D01*
X112644983Y-112713262D01*
X112397424Y-112418122D01*
X111826137Y-111611535D01*
X111412268Y-110798576D01*
X111248617Y-110278333D01*
X116670667Y-110278333D01*
X116713000Y-110320667D01*
X116755334Y-110278333D01*
X116713000Y-110236000D01*
X116670667Y-110278333D01*
X111248617Y-110278333D01*
X111145417Y-109950266D01*
X111015186Y-109037623D01*
X110998000Y-108518330D01*
X111023721Y-107929148D01*
X111107346Y-107354741D01*
X111258572Y-106757076D01*
X111487095Y-106098120D01*
X111802610Y-105339843D01*
X111816102Y-105309335D01*
X112108423Y-104691168D01*
X112385263Y-104207427D01*
X112670775Y-103827908D01*
X112989112Y-103522409D01*
X113364425Y-103260724D01*
X113531759Y-103163853D01*
X114116733Y-102880954D01*
X114715390Y-102680794D01*
X115351579Y-102561771D01*
X116049153Y-102522284D01*
X116831960Y-102560731D01*
X117723853Y-102675511D01*
X118557804Y-102826356D01*
X119009079Y-102915525D01*
X119413150Y-102992956D01*
X119789009Y-103060981D01*
X120155651Y-103121929D01*
X120532070Y-103178132D01*
X120937259Y-103231922D01*
X121390213Y-103285629D01*
X121909926Y-103341585D01*
X122515390Y-103402120D01*
X123225601Y-103469565D01*
X124059553Y-103546252D01*
X125036238Y-103634512D01*
X125433667Y-103670216D01*
X126286592Y-103746953D01*
X126987922Y-103810524D01*
X127554744Y-103862586D01*
X128004145Y-103904795D01*
X128353213Y-103938810D01*
X128619036Y-103966287D01*
X128818701Y-103988883D01*
X128969296Y-104008256D01*
X129064702Y-104022354D01*
X129274192Y-104048478D01*
X129357197Y-104021343D01*
X129353886Y-103917720D01*
X129340687Y-103862745D01*
X129342365Y-103645626D01*
X129403340Y-103555350D01*
X129468456Y-103468186D01*
X129465794Y-103334157D01*
X129398129Y-103108371D01*
X129339058Y-102865747D01*
X129283480Y-102514080D01*
X129240168Y-102113576D01*
X129227109Y-101934953D01*
X129206912Y-101543664D01*
X129208814Y-101262742D01*
X129241389Y-101033758D01*
X129313213Y-100798286D01*
X129432863Y-100497899D01*
X129440860Y-100478675D01*
X129572885Y-100121149D01*
X129717021Y-99666084D01*
X129852423Y-99182038D01*
X129926661Y-98880930D01*
X130042578Y-98402024D01*
X130174868Y-97893501D01*
X130303769Y-97429844D01*
X130373393Y-97197333D01*
X130479660Y-96827063D01*
X130546841Y-96498120D01*
X130583103Y-96148784D01*
X130596612Y-95717335D01*
X130597472Y-95504000D01*
X130594312Y-95095741D01*
X130579226Y-94781314D01*
X130542775Y-94509483D01*
X130475520Y-94229012D01*
X130368022Y-93888665D01*
X130223131Y-93472000D01*
X129849498Y-92413667D01*
X129864130Y-91302613D01*
X129863201Y-90736734D01*
X129842041Y-90312071D01*
X129798591Y-90001487D01*
X129752794Y-89834529D01*
X129685996Y-89525397D01*
X129719161Y-89293526D01*
X129844808Y-89168023D01*
X129927724Y-89154000D01*
X130079238Y-89101770D01*
X130330470Y-88958883D01*
X130653580Y-88746045D01*
X131020722Y-88483963D01*
X131404055Y-88193343D01*
X131775736Y-87894890D01*
X132107922Y-87609311D01*
X132372769Y-87357311D01*
X132440197Y-87285545D01*
X132767938Y-86950466D01*
X133021617Y-86760507D01*
X133212791Y-86714696D01*
X133353020Y-86812061D01*
G36*
X118431744Y-91425861D02*
G01*
X118845059Y-91742995D01*
X119185012Y-91934146D01*
X119478802Y-92009573D01*
X119753627Y-91979534D01*
X119830893Y-91953617D01*
X120206821Y-91860134D01*
X120518553Y-91907593D01*
X120809303Y-92106026D01*
X120904919Y-92202995D01*
X121089665Y-92395819D01*
X121214747Y-92483436D01*
X121334571Y-92485784D01*
X121503543Y-92422802D01*
X121504085Y-92422574D01*
X121727181Y-92350059D01*
X121897433Y-92366599D01*
X122003006Y-92414020D01*
X122309298Y-92639782D01*
X122604371Y-92970313D01*
X122812874Y-93302667D01*
X122915767Y-93614090D01*
X122974189Y-94013248D01*
X122984807Y-94431465D01*
X122944283Y-94800071D01*
X122893822Y-94969354D01*
X122790216Y-95149032D01*
X122631566Y-95294380D01*
X122389245Y-95420587D01*
X122034623Y-95542842D01*
X121581334Y-95665703D01*
X121179068Y-95779711D01*
X120901802Y-95892743D01*
X120706461Y-96024457D01*
X120628834Y-96100432D01*
X120449281Y-96338184D01*
X120415973Y-96534665D01*
X120530725Y-96736110D01*
X120658954Y-96867031D01*
X120974612Y-97065684D01*
X121312732Y-97109897D01*
X121586900Y-97025021D01*
X121720746Y-96980609D01*
X121750667Y-97027678D01*
X121682939Y-97133465D01*
X121623667Y-97166715D01*
X121507617Y-97268862D01*
X121528740Y-97389176D01*
X121675078Y-97465617D01*
X121681467Y-97466611D01*
X121856107Y-97565736D01*
X121947119Y-97777781D01*
X121957701Y-98070287D01*
X121891052Y-98410795D01*
X121750370Y-98766847D01*
X121538853Y-99105983D01*
X121517204Y-99133624D01*
X121268510Y-99437328D01*
X120960842Y-99800878D01*
X120613856Y-100202315D01*
X120247212Y-100619681D01*
X119880568Y-101031015D01*
X119533581Y-101414361D01*
X119225911Y-101747758D01*
X118977216Y-102009248D01*
X118807153Y-102176873D01*
X118751573Y-102222908D01*
X118456435Y-102332866D01*
X118076211Y-102359783D01*
X117672351Y-102305476D01*
X117323461Y-102180662D01*
X117175484Y-102095252D01*
X116994508Y-101969580D01*
X116766026Y-101791456D01*
X116475536Y-101548690D01*
X116108533Y-101229090D01*
X115650513Y-100820466D01*
X115086971Y-100310626D01*
X114945860Y-100182274D01*
X114624614Y-99898111D01*
X114406276Y-99726894D01*
X114276343Y-99659547D01*
X114220316Y-99686995D01*
X114215334Y-99725088D01*
X114269058Y-99816038D01*
X114412691Y-99997672D01*
X114619919Y-100237525D01*
X114723334Y-100351903D01*
X114949537Y-100604082D01*
X115123912Y-100808605D01*
X115220334Y-100934362D01*
X115231334Y-100956814D01*
X115158709Y-100994826D01*
X115019667Y-101007333D01*
X114860552Y-101036316D01*
X114808000Y-101092000D01*
X114856765Y-101174416D01*
X114871500Y-101176753D01*
X114962804Y-101248201D01*
X115080616Y-101426084D01*
X115198507Y-101655992D01*
X115290048Y-101883514D01*
X115328809Y-102054239D01*
X115320393Y-102100892D01*
X115216360Y-102160064D01*
X114978603Y-102244985D01*
X114638934Y-102345733D01*
X114229162Y-102452383D01*
X114076704Y-102488885D01*
X113391634Y-102651426D01*
X112847933Y-102788247D01*
X112421489Y-102909539D01*
X112088189Y-103025491D01*
X111823921Y-103146294D01*
X111604572Y-103282138D01*
X111406030Y-103443215D01*
X111204182Y-103639713D01*
X111102680Y-103745757D01*
X110894627Y-103953739D01*
X110738938Y-104086515D01*
X110662769Y-104121616D01*
X110659334Y-104112570D01*
X110694199Y-103944782D01*
X110789720Y-103657032D01*
X110932284Y-103281534D01*
X111108276Y-102850502D01*
X111304083Y-102396152D01*
X111506093Y-101950698D01*
X111700691Y-101546355D01*
X111874264Y-101215337D01*
X111910641Y-101151483D01*
X112164443Y-100640342D01*
X112412000Y-100005769D01*
X112587468Y-99458042D01*
X117238629Y-99458042D01*
X117298468Y-99703521D01*
X117448448Y-100074842D01*
X117688876Y-100403358D01*
X117985970Y-100661527D01*
X118305948Y-100821808D01*
X118615027Y-100856660D01*
X118693320Y-100840681D01*
X118938341Y-100748308D01*
X119104599Y-100662383D01*
X119297996Y-100469798D01*
X119432954Y-100208849D01*
X119464667Y-100037235D01*
X119384945Y-99904708D01*
X119165300Y-99775907D01*
X118835013Y-99661164D01*
X118423367Y-99570808D01*
X117991814Y-99517610D01*
X117238629Y-99458042D01*
X112587468Y-99458042D01*
X112640174Y-99293522D01*
X112835825Y-98549363D01*
X112985813Y-97819051D01*
X113077000Y-97148346D01*
X113084100Y-97064711D01*
X113137258Y-96381756D01*
X112748554Y-95944095D01*
X112410831Y-95478615D01*
X112238847Y-95022845D01*
X112230421Y-94564643D01*
X112383374Y-94091869D01*
X112407372Y-94043500D01*
X112496194Y-93881179D01*
X112546378Y-93810753D01*
X112546986Y-93810667D01*
X112553002Y-93888252D01*
X112549966Y-94093248D01*
X112538603Y-94384016D01*
X112536099Y-94434952D01*
X112538864Y-94901885D01*
X112600451Y-95222936D01*
X112719290Y-95392543D01*
X112813870Y-95419333D01*
X112906169Y-95341058D01*
X112978003Y-95131793D01*
X112987667Y-95080667D01*
X113058903Y-94838069D01*
X113153739Y-94754998D01*
X113258200Y-94825870D01*
X113358311Y-95045100D01*
X113411421Y-95250000D01*
X113505221Y-95586505D01*
X113613483Y-95820695D01*
X113718976Y-95942817D01*
X113804473Y-95943115D01*
X113852742Y-95811833D01*
X113846554Y-95539218D01*
X113840886Y-95493151D01*
X113825946Y-95225284D01*
X113862896Y-95090548D01*
X113942898Y-95100983D01*
X114035443Y-95228128D01*
X114124985Y-95343657D01*
X114174264Y-95311837D01*
X114181704Y-95150172D01*
X114145729Y-94876166D01*
X114098170Y-94649008D01*
X115993334Y-94649008D01*
X116003435Y-94896760D01*
X116055711Y-95065120D01*
X116183124Y-95217604D01*
X116372810Y-95380282D01*
X116636063Y-95563319D01*
X116987675Y-95763819D01*
X117384146Y-95961767D01*
X117781978Y-96137147D01*
X118137671Y-96269942D01*
X118407728Y-96340138D01*
X118471929Y-96346180D01*
X118676987Y-96300329D01*
X118783281Y-96149658D01*
X118806378Y-95916332D01*
X118756267Y-95604990D01*
X118650893Y-95280322D01*
X118508199Y-95007021D01*
X118443747Y-94925558D01*
X118234068Y-94747358D01*
X118044045Y-94629784D01*
X117834103Y-94547559D01*
X117530117Y-94454607D01*
X117175370Y-94361033D01*
X116813145Y-94276941D01*
X116486726Y-94212435D01*
X116239396Y-94177619D01*
X116119090Y-94180428D01*
X116033382Y-94284643D01*
X115996015Y-94525250D01*
X115993334Y-94649008D01*
X114098170Y-94649008D01*
X114090752Y-94613579D01*
X114016678Y-94282100D01*
X113984554Y-94057823D01*
X113994099Y-93883966D01*
X114045032Y-93703747D01*
X114085709Y-93594090D01*
X114317807Y-93198173D01*
X114655337Y-92931852D01*
X115084375Y-92804605D01*
X115260046Y-92794667D01*
X115504269Y-92802195D01*
X115614238Y-92834551D01*
X115624726Y-92906388D01*
X115611634Y-92942833D01*
X115540699Y-93149673D01*
X115484037Y-93373079D01*
X115453662Y-93555768D01*
X115461589Y-93640458D01*
X115465127Y-93641333D01*
X115536483Y-93583821D01*
X115669163Y-93458963D01*
X116244494Y-93458963D01*
X116385880Y-93517841D01*
X116686305Y-93570700D01*
X116853031Y-93588644D01*
X117374601Y-93670043D01*
X117816110Y-93821888D01*
X118209512Y-94065205D01*
X118586759Y-94421021D01*
X118979803Y-94910362D01*
X119085452Y-95057692D01*
X119265245Y-95296736D01*
X119379766Y-95399415D01*
X119448303Y-95376072D01*
X119483503Y-95271167D01*
X119466185Y-94953910D01*
X119295922Y-94587419D01*
X118978208Y-94182214D01*
X118840572Y-94040443D01*
X118467617Y-93702631D01*
X118135405Y-93483173D01*
X117791150Y-93359265D01*
X117382066Y-93308099D01*
X117132918Y-93302667D01*
X116706359Y-93315920D01*
X116411554Y-93351033D01*
X116255326Y-93401038D01*
X116244494Y-93458963D01*
X115669163Y-93458963D01*
X115706259Y-93424054D01*
X115954835Y-93181186D01*
X116262589Y-92874370D01*
X116584748Y-92548392D01*
X117043485Y-92068973D01*
X117391670Y-91678513D01*
X117623454Y-91383948D01*
X117732990Y-91192216D01*
X117735970Y-91182677D01*
X117814201Y-90909903D01*
X118431744Y-91425861D01*
G37*
X118431744Y-91425861D02*
X118845059Y-91742995D01*
X119185012Y-91934146D01*
X119478802Y-92009573D01*
X119753627Y-91979534D01*
X119830893Y-91953617D01*
X120206821Y-91860134D01*
X120518553Y-91907593D01*
X120809303Y-92106026D01*
X120904919Y-92202995D01*
X121089665Y-92395819D01*
X121214747Y-92483436D01*
X121334571Y-92485784D01*
X121503543Y-92422802D01*
X121504085Y-92422574D01*
X121727181Y-92350059D01*
X121897433Y-92366599D01*
X122003006Y-92414020D01*
X122309298Y-92639782D01*
X122604371Y-92970313D01*
X122812874Y-93302667D01*
X122915767Y-93614090D01*
X122974189Y-94013248D01*
X122984807Y-94431465D01*
X122944283Y-94800071D01*
X122893822Y-94969354D01*
X122790216Y-95149032D01*
X122631566Y-95294380D01*
X122389245Y-95420587D01*
X122034623Y-95542842D01*
X121581334Y-95665703D01*
X121179068Y-95779711D01*
X120901802Y-95892743D01*
X120706461Y-96024457D01*
X120628834Y-96100432D01*
X120449281Y-96338184D01*
X120415973Y-96534665D01*
X120530725Y-96736110D01*
X120658954Y-96867031D01*
X120974612Y-97065684D01*
X121312732Y-97109897D01*
X121586900Y-97025021D01*
X121720746Y-96980609D01*
X121750667Y-97027678D01*
X121682939Y-97133465D01*
X121623667Y-97166715D01*
X121507617Y-97268862D01*
X121528740Y-97389176D01*
X121675078Y-97465617D01*
X121681467Y-97466611D01*
X121856107Y-97565736D01*
X121947119Y-97777781D01*
X121957701Y-98070287D01*
X121891052Y-98410795D01*
X121750370Y-98766847D01*
X121538853Y-99105983D01*
X121517204Y-99133624D01*
X121268510Y-99437328D01*
X120960842Y-99800878D01*
X120613856Y-100202315D01*
X120247212Y-100619681D01*
X119880568Y-101031015D01*
X119533581Y-101414361D01*
X119225911Y-101747758D01*
X118977216Y-102009248D01*
X118807153Y-102176873D01*
X118751573Y-102222908D01*
X118456435Y-102332866D01*
X118076211Y-102359783D01*
X117672351Y-102305476D01*
X117323461Y-102180662D01*
X117175484Y-102095252D01*
X116994508Y-101969580D01*
X116766026Y-101791456D01*
X116475536Y-101548690D01*
X116108533Y-101229090D01*
X115650513Y-100820466D01*
X115086971Y-100310626D01*
X114945860Y-100182274D01*
X114624614Y-99898111D01*
X114406276Y-99726894D01*
X114276343Y-99659547D01*
X114220316Y-99686995D01*
X114215334Y-99725088D01*
X114269058Y-99816038D01*
X114412691Y-99997672D01*
X114619919Y-100237525D01*
X114723334Y-100351903D01*
X114949537Y-100604082D01*
X115123912Y-100808605D01*
X115220334Y-100934362D01*
X115231334Y-100956814D01*
X115158709Y-100994826D01*
X115019667Y-101007333D01*
X114860552Y-101036316D01*
X114808000Y-101092000D01*
X114856765Y-101174416D01*
X114871500Y-101176753D01*
X114962804Y-101248201D01*
X115080616Y-101426084D01*
X115198507Y-101655992D01*
X115290048Y-101883514D01*
X115328809Y-102054239D01*
X115320393Y-102100892D01*
X115216360Y-102160064D01*
X114978603Y-102244985D01*
X114638934Y-102345733D01*
X114229162Y-102452383D01*
X114076704Y-102488885D01*
X113391634Y-102651426D01*
X112847933Y-102788247D01*
X112421489Y-102909539D01*
X112088189Y-103025491D01*
X111823921Y-103146294D01*
X111604572Y-103282138D01*
X111406030Y-103443215D01*
X111204182Y-103639713D01*
X111102680Y-103745757D01*
X110894627Y-103953739D01*
X110738938Y-104086515D01*
X110662769Y-104121616D01*
X110659334Y-104112570D01*
X110694199Y-103944782D01*
X110789720Y-103657032D01*
X110932284Y-103281534D01*
X111108276Y-102850502D01*
X111304083Y-102396152D01*
X111506093Y-101950698D01*
X111700691Y-101546355D01*
X111874264Y-101215337D01*
X111910641Y-101151483D01*
X112164443Y-100640342D01*
X112412000Y-100005769D01*
X112587468Y-99458042D01*
X117238629Y-99458042D01*
X117298468Y-99703521D01*
X117448448Y-100074842D01*
X117688876Y-100403358D01*
X117985970Y-100661527D01*
X118305948Y-100821808D01*
X118615027Y-100856660D01*
X118693320Y-100840681D01*
X118938341Y-100748308D01*
X119104599Y-100662383D01*
X119297996Y-100469798D01*
X119432954Y-100208849D01*
X119464667Y-100037235D01*
X119384945Y-99904708D01*
X119165300Y-99775907D01*
X118835013Y-99661164D01*
X118423367Y-99570808D01*
X117991814Y-99517610D01*
X117238629Y-99458042D01*
X112587468Y-99458042D01*
X112640174Y-99293522D01*
X112835825Y-98549363D01*
X112985813Y-97819051D01*
X113077000Y-97148346D01*
X113084100Y-97064711D01*
X113137258Y-96381756D01*
X112748554Y-95944095D01*
X112410831Y-95478615D01*
X112238847Y-95022845D01*
X112230421Y-94564643D01*
X112383374Y-94091869D01*
X112407372Y-94043500D01*
X112496194Y-93881179D01*
X112546378Y-93810753D01*
X112546986Y-93810667D01*
X112553002Y-93888252D01*
X112549966Y-94093248D01*
X112538603Y-94384016D01*
X112536099Y-94434952D01*
X112538864Y-94901885D01*
X112600451Y-95222936D01*
X112719290Y-95392543D01*
X112813870Y-95419333D01*
X112906169Y-95341058D01*
X112978003Y-95131793D01*
X112987667Y-95080667D01*
X113058903Y-94838069D01*
X113153739Y-94754998D01*
X113258200Y-94825870D01*
X113358311Y-95045100D01*
X113411421Y-95250000D01*
X113505221Y-95586505D01*
X113613483Y-95820695D01*
X113718976Y-95942817D01*
X113804473Y-95943115D01*
X113852742Y-95811833D01*
X113846554Y-95539218D01*
X113840886Y-95493151D01*
X113825946Y-95225284D01*
X113862896Y-95090548D01*
X113942898Y-95100983D01*
X114035443Y-95228128D01*
X114124985Y-95343657D01*
X114174264Y-95311837D01*
X114181704Y-95150172D01*
X114145729Y-94876166D01*
X114098170Y-94649008D01*
X115993334Y-94649008D01*
X116003435Y-94896760D01*
X116055711Y-95065120D01*
X116183124Y-95217604D01*
X116372810Y-95380282D01*
X116636063Y-95563319D01*
X116987675Y-95763819D01*
X117384146Y-95961767D01*
X117781978Y-96137147D01*
X118137671Y-96269942D01*
X118407728Y-96340138D01*
X118471929Y-96346180D01*
X118676987Y-96300329D01*
X118783281Y-96149658D01*
X118806378Y-95916332D01*
X118756267Y-95604990D01*
X118650893Y-95280322D01*
X118508199Y-95007021D01*
X118443747Y-94925558D01*
X118234068Y-94747358D01*
X118044045Y-94629784D01*
X117834103Y-94547559D01*
X117530117Y-94454607D01*
X117175370Y-94361033D01*
X116813145Y-94276941D01*
X116486726Y-94212435D01*
X116239396Y-94177619D01*
X116119090Y-94180428D01*
X116033382Y-94284643D01*
X115996015Y-94525250D01*
X115993334Y-94649008D01*
X114098170Y-94649008D01*
X114090752Y-94613579D01*
X114016678Y-94282100D01*
X113984554Y-94057823D01*
X113994099Y-93883966D01*
X114045032Y-93703747D01*
X114085709Y-93594090D01*
X114317807Y-93198173D01*
X114655337Y-92931852D01*
X115084375Y-92804605D01*
X115260046Y-92794667D01*
X115504269Y-92802195D01*
X115614238Y-92834551D01*
X115624726Y-92906388D01*
X115611634Y-92942833D01*
X115540699Y-93149673D01*
X115484037Y-93373079D01*
X115453662Y-93555768D01*
X115461589Y-93640458D01*
X115465127Y-93641333D01*
X115536483Y-93583821D01*
X115669163Y-93458963D01*
X116244494Y-93458963D01*
X116385880Y-93517841D01*
X116686305Y-93570700D01*
X116853031Y-93588644D01*
X117374601Y-93670043D01*
X117816110Y-93821888D01*
X118209512Y-94065205D01*
X118586759Y-94421021D01*
X118979803Y-94910362D01*
X119085452Y-95057692D01*
X119265245Y-95296736D01*
X119379766Y-95399415D01*
X119448303Y-95376072D01*
X119483503Y-95271167D01*
X119466185Y-94953910D01*
X119295922Y-94587419D01*
X118978208Y-94182214D01*
X118840572Y-94040443D01*
X118467617Y-93702631D01*
X118135405Y-93483173D01*
X117791150Y-93359265D01*
X117382066Y-93308099D01*
X117132918Y-93302667D01*
X116706359Y-93315920D01*
X116411554Y-93351033D01*
X116255326Y-93401038D01*
X116244494Y-93458963D01*
X115669163Y-93458963D01*
X115706259Y-93424054D01*
X115954835Y-93181186D01*
X116262589Y-92874370D01*
X116584748Y-92548392D01*
X117043485Y-92068973D01*
X117391670Y-91678513D01*
X117623454Y-91383948D01*
X117732990Y-91192216D01*
X117735970Y-91182677D01*
X117814201Y-90909903D01*
X118431744Y-91425861D01*
G36*
X133873818Y-85271330D02*
G01*
X134012102Y-85307706D01*
X134111409Y-85381334D01*
X134141461Y-85413254D01*
X134246525Y-85575289D01*
X134212425Y-85683464D01*
X134030473Y-85744148D01*
X133691981Y-85763705D01*
X133663165Y-85763701D01*
X133218027Y-85775769D01*
X132872928Y-85828915D01*
X132580996Y-85944192D01*
X132295363Y-86142656D01*
X131969156Y-86445362D01*
X131829267Y-86587509D01*
X131469645Y-86937192D01*
X131040494Y-87323642D01*
X130610596Y-87685934D01*
X130413358Y-87841667D01*
X130034962Y-88143324D01*
X129781701Y-88375878D01*
X129634378Y-88558776D01*
X129578729Y-88687091D01*
X129489426Y-88943527D01*
X129390912Y-89133495D01*
X129327404Y-89254947D01*
X129308130Y-89391761D01*
X129333908Y-89593421D01*
X129403576Y-89901280D01*
X129481148Y-90343499D01*
X129526350Y-90862375D01*
X129533843Y-91232876D01*
X129539908Y-91633958D01*
X129572845Y-92023452D01*
X129639372Y-92437722D01*
X129746207Y-92913132D01*
X129900068Y-93486044D01*
X130037140Y-93957133D01*
X130206539Y-94572967D01*
X130309615Y-95074420D01*
X130350299Y-95501187D01*
X130332520Y-95892959D01*
X130265729Y-96266000D01*
X130145780Y-96775627D01*
X130014918Y-97322355D01*
X129880167Y-97877795D01*
X129748551Y-98413561D01*
X129627096Y-98901264D01*
X129522826Y-99312518D01*
X129442765Y-99618934D01*
X129393939Y-99792125D01*
X129390743Y-99801925D01*
X129312769Y-100033667D01*
X129272212Y-99761884D01*
X129262680Y-99589614D01*
X129261600Y-99281909D01*
X129268459Y-98872431D01*
X129282744Y-98394842D01*
X129299285Y-97983884D01*
X129344922Y-96952522D01*
X129381699Y-96072194D01*
X129409320Y-95324818D01*
X129427492Y-94692312D01*
X129435923Y-94156592D01*
X129434318Y-93699577D01*
X129422383Y-93303184D01*
X129399826Y-92949331D01*
X129366352Y-92619936D01*
X129321669Y-92296915D01*
X129265481Y-91962188D01*
X129197497Y-91597670D01*
X129195427Y-91586892D01*
X129162933Y-91334488D01*
X129135628Y-90967142D01*
X129116860Y-90539234D01*
X129110348Y-90204823D01*
X129110113Y-89770899D01*
X129121857Y-89461982D01*
X129152404Y-89233823D01*
X129208580Y-89042176D01*
X129297208Y-88842793D01*
X129330802Y-88775533D01*
X129491966Y-88497499D01*
X129736046Y-88125788D01*
X130036765Y-87696147D01*
X130367844Y-87244320D01*
X130703007Y-86806054D01*
X131015975Y-86417095D01*
X131280469Y-86113189D01*
X131314933Y-86076524D01*
X131765997Y-85711064D01*
X132320689Y-85458499D01*
X132992801Y-85313340D01*
X133307667Y-85283455D01*
X133653395Y-85265486D01*
X133873818Y-85271330D01*
G37*
X133873818Y-85271330D02*
X134012102Y-85307706D01*
X134111409Y-85381334D01*
X134141461Y-85413254D01*
X134246525Y-85575289D01*
X134212425Y-85683464D01*
X134030473Y-85744148D01*
X133691981Y-85763705D01*
X133663165Y-85763701D01*
X133218027Y-85775769D01*
X132872928Y-85828915D01*
X132580996Y-85944192D01*
X132295363Y-86142656D01*
X131969156Y-86445362D01*
X131829267Y-86587509D01*
X131469645Y-86937192D01*
X131040494Y-87323642D01*
X130610596Y-87685934D01*
X130413358Y-87841667D01*
X130034962Y-88143324D01*
X129781701Y-88375878D01*
X129634378Y-88558776D01*
X129578729Y-88687091D01*
X129489426Y-88943527D01*
X129390912Y-89133495D01*
X129327404Y-89254947D01*
X129308130Y-89391761D01*
X129333908Y-89593421D01*
X129403576Y-89901280D01*
X129481148Y-90343499D01*
X129526350Y-90862375D01*
X129533843Y-91232876D01*
X129539908Y-91633958D01*
X129572845Y-92023452D01*
X129639372Y-92437722D01*
X129746207Y-92913132D01*
X129900068Y-93486044D01*
X130037140Y-93957133D01*
X130206539Y-94572967D01*
X130309615Y-95074420D01*
X130350299Y-95501187D01*
X130332520Y-95892959D01*
X130265729Y-96266000D01*
X130145780Y-96775627D01*
X130014918Y-97322355D01*
X129880167Y-97877795D01*
X129748551Y-98413561D01*
X129627096Y-98901264D01*
X129522826Y-99312518D01*
X129442765Y-99618934D01*
X129393939Y-99792125D01*
X129390743Y-99801925D01*
X129312769Y-100033667D01*
X129272212Y-99761884D01*
X129262680Y-99589614D01*
X129261600Y-99281909D01*
X129268459Y-98872431D01*
X129282744Y-98394842D01*
X129299285Y-97983884D01*
X129344922Y-96952522D01*
X129381699Y-96072194D01*
X129409320Y-95324818D01*
X129427492Y-94692312D01*
X129435923Y-94156592D01*
X129434318Y-93699577D01*
X129422383Y-93303184D01*
X129399826Y-92949331D01*
X129366352Y-92619936D01*
X129321669Y-92296915D01*
X129265481Y-91962188D01*
X129197497Y-91597670D01*
X129195427Y-91586892D01*
X129162933Y-91334488D01*
X129135628Y-90967142D01*
X129116860Y-90539234D01*
X129110348Y-90204823D01*
X129110113Y-89770899D01*
X129121857Y-89461982D01*
X129152404Y-89233823D01*
X129208580Y-89042176D01*
X129297208Y-88842793D01*
X129330802Y-88775533D01*
X129491966Y-88497499D01*
X129736046Y-88125788D01*
X130036765Y-87696147D01*
X130367844Y-87244320D01*
X130703007Y-86806054D01*
X131015975Y-86417095D01*
X131280469Y-86113189D01*
X131314933Y-86076524D01*
X131765997Y-85711064D01*
X132320689Y-85458499D01*
X132992801Y-85313340D01*
X133307667Y-85283455D01*
X133653395Y-85265486D01*
X133873818Y-85271330D01*
G36*
X122408576Y-95794436D02*
G01*
X122427348Y-95901132D01*
X122371526Y-96062153D01*
X122249304Y-96233259D01*
X122218543Y-96263924D01*
X122072393Y-96386412D01*
X121996003Y-96393134D01*
X121956721Y-96324239D01*
X121837218Y-96185105D01*
X121742845Y-96136517D01*
X121599634Y-96059581D01*
X121618851Y-95979995D01*
X121794151Y-95908887D01*
X121883679Y-95889458D01*
X122120603Y-95838702D01*
X122295566Y-95790486D01*
X122307013Y-95786310D01*
X122408576Y-95794436D01*
G37*
X122408576Y-95794436D02*
X122427348Y-95901132D01*
X122371526Y-96062153D01*
X122249304Y-96233259D01*
X122218543Y-96263924D01*
X122072393Y-96386412D01*
X121996003Y-96393134D01*
X121956721Y-96324239D01*
X121837218Y-96185105D01*
X121742845Y-96136517D01*
X121599634Y-96059581D01*
X121618851Y-95979995D01*
X121794151Y-95908887D01*
X121883679Y-95889458D01*
X122120603Y-95838702D01*
X122295566Y-95790486D01*
X122307013Y-95786310D01*
X122408576Y-95794436D01*
G36*
X139855662Y-81322773D02*
G01*
X139821586Y-81396476D01*
X139684147Y-81540178D01*
X139476622Y-81723860D01*
X139232286Y-81917499D01*
X139058482Y-82042000D01*
X138911123Y-82148409D01*
X138670595Y-82328556D01*
X138377262Y-82552050D01*
X138215073Y-82677000D01*
X137903011Y-82917423D01*
X137615778Y-83137034D01*
X137396994Y-83302551D01*
X137327299Y-83354333D01*
X136875316Y-83689754D01*
X136467841Y-83999991D01*
X136127533Y-84267215D01*
X135877046Y-84473598D01*
X135739039Y-84601312D01*
X135731467Y-84610072D01*
X135593230Y-84725103D01*
X135511755Y-84751333D01*
X135381891Y-84809017D01*
X135255000Y-84920667D01*
X135088976Y-85066077D01*
X134971197Y-85066087D01*
X134911812Y-84998017D01*
X134931231Y-84884138D01*
X135054573Y-84709874D01*
X135246699Y-84511458D01*
X135472471Y-84325125D01*
X135696748Y-84187107D01*
X135699500Y-84185791D01*
X135881114Y-84080494D01*
X135972193Y-83990909D01*
X135974667Y-83979686D01*
X136039251Y-83906657D01*
X136058388Y-83904667D01*
X136161071Y-83855827D01*
X136356905Y-83726554D01*
X136607231Y-83542718D01*
X136659379Y-83502500D01*
X136926693Y-83297495D01*
X137155961Y-83126708D01*
X137302861Y-83023071D01*
X137314541Y-83015667D01*
X137479729Y-82895629D01*
X137539050Y-82841726D01*
X137646882Y-82750140D01*
X137850169Y-82592138D01*
X138106952Y-82400253D01*
X138133667Y-82380667D01*
X138394832Y-82184303D01*
X138607392Y-82014973D01*
X138728654Y-81906794D01*
X138733645Y-81901206D01*
X138856665Y-81802520D01*
X139066211Y-81673206D01*
X139316512Y-81536860D01*
X139561798Y-81417079D01*
X139756299Y-81337459D01*
X139854244Y-81321595D01*
X139855662Y-81322773D01*
G37*
X139855662Y-81322773D02*
X139821586Y-81396476D01*
X139684147Y-81540178D01*
X139476622Y-81723860D01*
X139232286Y-81917499D01*
X139058482Y-82042000D01*
X138911123Y-82148409D01*
X138670595Y-82328556D01*
X138377262Y-82552050D01*
X138215073Y-82677000D01*
X137903011Y-82917423D01*
X137615778Y-83137034D01*
X137396994Y-83302551D01*
X137327299Y-83354333D01*
X136875316Y-83689754D01*
X136467841Y-83999991D01*
X136127533Y-84267215D01*
X135877046Y-84473598D01*
X135739039Y-84601312D01*
X135731467Y-84610072D01*
X135593230Y-84725103D01*
X135511755Y-84751333D01*
X135381891Y-84809017D01*
X135255000Y-84920667D01*
X135088976Y-85066077D01*
X134971197Y-85066087D01*
X134911812Y-84998017D01*
X134931231Y-84884138D01*
X135054573Y-84709874D01*
X135246699Y-84511458D01*
X135472471Y-84325125D01*
X135696748Y-84187107D01*
X135699500Y-84185791D01*
X135881114Y-84080494D01*
X135972193Y-83990909D01*
X135974667Y-83979686D01*
X136039251Y-83906657D01*
X136058388Y-83904667D01*
X136161071Y-83855827D01*
X136356905Y-83726554D01*
X136607231Y-83542718D01*
X136659379Y-83502500D01*
X136926693Y-83297495D01*
X137155961Y-83126708D01*
X137302861Y-83023071D01*
X137314541Y-83015667D01*
X137479729Y-82895629D01*
X137539050Y-82841726D01*
X137646882Y-82750140D01*
X137850169Y-82592138D01*
X138106952Y-82400253D01*
X138133667Y-82380667D01*
X138394832Y-82184303D01*
X138607392Y-82014973D01*
X138728654Y-81906794D01*
X138733645Y-81901206D01*
X138856665Y-81802520D01*
X139066211Y-81673206D01*
X139316512Y-81536860D01*
X139561798Y-81417079D01*
X139756299Y-81337459D01*
X139854244Y-81321595D01*
X139855662Y-81322773D01*
G36*
X118212947Y-95441932D02*
G01*
X118448810Y-95644979D01*
X118493870Y-95708164D01*
X118589884Y-95920748D01*
X118541606Y-96044888D01*
X118349244Y-96080425D01*
X118067667Y-96039763D01*
X117779145Y-95956532D01*
X117562803Y-95857220D01*
X117458142Y-95761808D01*
X117455981Y-95730391D01*
X117540099Y-95620004D01*
X117696641Y-95483795D01*
X117951335Y-95385140D01*
X118212947Y-95441932D01*
G37*
X118212947Y-95441932D02*
X118448810Y-95644979D01*
X118493870Y-95708164D01*
X118589884Y-95920748D01*
X118541606Y-96044888D01*
X118349244Y-96080425D01*
X118067667Y-96039763D01*
X117779145Y-95956532D01*
X117562803Y-95857220D01*
X117458142Y-95761808D01*
X117455981Y-95730391D01*
X117540099Y-95620004D01*
X117696641Y-95483795D01*
X117951335Y-95385140D01*
X118212947Y-95441932D01*
D12*
X149913200Y-78217600D02*
X149913200Y-81457600D01*
X147673200Y-78217600D02*
X147673200Y-81457600D01*
X149913200Y-78217600D02*
X149848200Y-78217600D01*
X147738200Y-78217600D02*
X147673200Y-78217600D01*
X149913200Y-81457600D02*
X149848200Y-81457600D01*
X147738200Y-81457600D02*
X147673200Y-81457600D01*
X143979000Y-114122000D02*
X143914000Y-114122000D01*
X146154000Y-114122000D02*
X146089000Y-114122000D01*
X143979000Y-110882000D02*
X143914000Y-110882000D01*
X146154000Y-110882000D02*
X146089000Y-110882000D01*
X143914000Y-110882000D02*
X143914000Y-114122000D01*
X146154000Y-110882000D02*
X146154000Y-114122000D01*
X145828756Y-72805160D02*
G75*
G02X147834254Y-75195220I1002749J-1195030D01*
G01*
X144877322Y-77676380D02*
X147834254Y-75195220D01*
X142871825Y-75286321D02*
X145828756Y-72805161D01*
X144877322Y-77676380D02*
X142871825Y-75286321D01*
X142614710Y-74979903D02*
X143472680Y-74259981D01*
X143472680Y-74259981D02*
X143729795Y-74566399D01*
X143729795Y-74566399D02*
X142871825Y-75286321D01*
X142871825Y-75286321D02*
X142614710Y-74979903D01*
X144591328Y-77537789D02*
X144690914Y-77454227D01*
X144690914Y-77454227D02*
X144690914Y-77454227D01*
X144690914Y-77454227D02*
X144591328Y-77537789D01*
X144591328Y-77537789D02*
X144591328Y-77537789D01*
X142958647Y-75592036D02*
X143058233Y-75508474D01*
X143058233Y-75508474D02*
X143058233Y-75508474D01*
X143058233Y-75508474D02*
X142958647Y-75592036D01*
X142958647Y-75592036D02*
X142958647Y-75592036D01*
X149844000Y-96968000D02*
G75*
G02X147844000Y-96968000I-1000000J0D01*
G01*
X147844000Y-96968000D02*
X146594000Y-96968000D01*
X146594000Y-96968000D02*
X146594000Y-107248000D01*
X146594000Y-107248000D02*
X151094000Y-107248000D01*
X151094000Y-107248000D02*
X151094000Y-96968000D01*
X151094000Y-96968000D02*
X149844000Y-96968000D01*
X143664000Y-91662000D02*
X146404000Y-91662000D01*
X146404000Y-91662000D02*
X146404000Y-85122000D01*
X146404000Y-85122000D02*
X143664000Y-85122000D01*
X143664000Y-85122000D02*
X143664000Y-91662000D01*
X145034000Y-92432000D02*
X145034000Y-91662000D01*
X145034000Y-84352000D02*
X145034000Y-85122000D01*
X152654000Y-84313900D02*
X152654000Y-85083900D01*
X152654000Y-92393900D02*
X152654000Y-91623900D01*
X151284000Y-85083900D02*
X151284000Y-91623900D01*
X154024000Y-85083900D02*
X151284000Y-85083900D01*
X154024000Y-91623900D02*
X154024000Y-85083900D01*
X151284000Y-91623900D02*
X154024000Y-91623900D01*
X137717200Y-69475600D02*
X134977200Y-69475600D01*
X134977200Y-69475600D02*
X134977200Y-76015600D01*
X134977200Y-76015600D02*
X137717200Y-76015600D01*
X137717200Y-76015600D02*
X137717200Y-69475600D01*
X136347200Y-68705600D02*
X136347200Y-69475600D01*
X136347200Y-76785600D02*
X136347200Y-76015600D01*
D10*
X150861733Y-80240142D02*
X150814114Y-80287761D01*
X150671257Y-80335380D01*
X150576019Y-80335380D01*
X150433161Y-80287761D01*
X150337923Y-80192523D01*
X150290304Y-80097285D01*
X150242685Y-79906809D01*
X150242685Y-79763952D01*
X150290304Y-79573476D01*
X150337923Y-79478238D01*
X150433161Y-79383000D01*
X150576019Y-79335380D01*
X150671257Y-79335380D01*
X150814114Y-79383000D01*
X150861733Y-79430619D01*
X151814114Y-80335380D02*
X151242685Y-80335380D01*
X151528400Y-80335380D02*
X151528400Y-79335380D01*
X151433161Y-79478238D01*
X151337923Y-79573476D01*
X151242685Y-79621095D01*
X147153333Y-112879142D02*
X147105714Y-112926761D01*
X146962857Y-112974380D01*
X146867619Y-112974380D01*
X146724761Y-112926761D01*
X146629523Y-112831523D01*
X146581904Y-112736285D01*
X146534285Y-112545809D01*
X146534285Y-112402952D01*
X146581904Y-112212476D01*
X146629523Y-112117238D01*
X146724761Y-112022000D01*
X146867619Y-111974380D01*
X146962857Y-111974380D01*
X147105714Y-112022000D01*
X147153333Y-112069619D01*
X147534285Y-112069619D02*
X147581904Y-112022000D01*
X147677142Y-111974380D01*
X147915238Y-111974380D01*
X148010476Y-112022000D01*
X148058095Y-112069619D01*
X148105714Y-112164857D01*
X148105714Y-112260095D01*
X148058095Y-112402952D01*
X147486666Y-112974380D01*
X148105714Y-112974380D01*
X140625230Y-78244358D02*
X141391275Y-77601570D01*
X141544319Y-77783962D01*
X141599668Y-77924005D01*
X141587929Y-78058180D01*
X141545581Y-78155876D01*
X141430277Y-78314790D01*
X141320842Y-78406617D01*
X141144320Y-78492574D01*
X141040754Y-78517314D01*
X140906580Y-78505575D01*
X140778275Y-78426749D01*
X140625230Y-78244358D01*
X141604716Y-79411663D02*
X141237409Y-78973924D01*
X141421062Y-79192794D02*
X142187107Y-78550006D01*
X142016454Y-78568876D01*
X141882280Y-78557137D01*
X141784583Y-78514790D01*
X148082095Y-95420380D02*
X148082095Y-96229904D01*
X148129714Y-96325142D01*
X148177333Y-96372761D01*
X148272571Y-96420380D01*
X148463047Y-96420380D01*
X148558285Y-96372761D01*
X148605904Y-96325142D01*
X148653523Y-96229904D01*
X148653523Y-95420380D01*
X149653523Y-96420380D02*
X149082095Y-96420380D01*
X149367809Y-96420380D02*
X149367809Y-95420380D01*
X149272571Y-95563238D01*
X149177333Y-95658476D01*
X149082095Y-95706095D01*
X147458133Y-88793580D02*
X147124800Y-88317390D01*
X146886704Y-88793580D02*
X146886704Y-87793580D01*
X147267657Y-87793580D01*
X147362895Y-87841200D01*
X147410514Y-87888819D01*
X147458133Y-87984057D01*
X147458133Y-88126914D01*
X147410514Y-88222152D01*
X147362895Y-88269771D01*
X147267657Y-88317390D01*
X146886704Y-88317390D01*
X148410514Y-88793580D02*
X147839085Y-88793580D01*
X148124800Y-88793580D02*
X148124800Y-87793580D01*
X148029561Y-87936438D01*
X147934323Y-88031676D01*
X147839085Y-88079295D01*
X154925733Y-88806280D02*
X154592400Y-88330090D01*
X154354304Y-88806280D02*
X154354304Y-87806280D01*
X154735257Y-87806280D01*
X154830495Y-87853900D01*
X154878114Y-87901519D01*
X154925733Y-87996757D01*
X154925733Y-88139614D01*
X154878114Y-88234852D01*
X154830495Y-88282471D01*
X154735257Y-88330090D01*
X154354304Y-88330090D01*
X155306685Y-87901519D02*
X155354304Y-87853900D01*
X155449542Y-87806280D01*
X155687638Y-87806280D01*
X155782876Y-87853900D01*
X155830495Y-87901519D01*
X155878114Y-87996757D01*
X155878114Y-88091995D01*
X155830495Y-88234852D01*
X155259066Y-88806280D01*
X155878114Y-88806280D01*
X138669733Y-72994780D02*
X138336400Y-72518590D01*
X138098304Y-72994780D02*
X138098304Y-71994780D01*
X138479257Y-71994780D01*
X138574495Y-72042400D01*
X138622114Y-72090019D01*
X138669733Y-72185257D01*
X138669733Y-72328114D01*
X138622114Y-72423352D01*
X138574495Y-72470971D01*
X138479257Y-72518590D01*
X138098304Y-72518590D01*
X139003066Y-71994780D02*
X139622114Y-71994780D01*
X139288780Y-72375733D01*
X139431638Y-72375733D01*
X139526876Y-72423352D01*
X139574495Y-72470971D01*
X139622114Y-72566209D01*
X139622114Y-72804304D01*
X139574495Y-72899542D01*
X139526876Y-72947161D01*
X139431638Y-72994780D01*
X139145923Y-72994780D01*
X139050685Y-72947161D01*
X139003066Y-72899542D01*
M02*
