G04 #@! TF.GenerationSoftware,KiCad,Pcbnew,(5.1.5)-3*
G04 #@! TF.CreationDate,2020-04-16T18:29:44-07:00*
G04 #@! TF.ProjectId,E_Grrrl,455f4772-7272-46c2-9e6b-696361645f70,Version A2*
G04 #@! TF.SameCoordinates,Original*
G04 #@! TF.FileFunction,Copper,L2,Bot*
G04 #@! TF.FilePolarity,Positive*
%FSLAX46Y46*%
G04 Gerber Fmt 4.6, Leading zero omitted, Abs format (unit mm)*
G04 Created by KiCad (PCBNEW (5.1.5)-3) date 2020-04-16 18:29:44*
%MOMM*%
%LPD*%
G04 APERTURE LIST*
%ADD10R,5.400000X5.100000*%
%ADD11R,5.500000X5.200000*%
%ADD12C,8.000000*%
%ADD13C,5.000000*%
%ADD14C,1.600000*%
%ADD15C,0.100000*%
%ADD16C,1.800000*%
%ADD17R,2.400000X1.600000*%
%ADD18O,2.400000X1.600000*%
%ADD19O,1.600000X1.600000*%
%ADD20R,1.800000X1.800000*%
%ADD21C,0.381000*%
%ADD22C,0.250000*%
%ADD23C,0.254000*%
G04 APERTURE END LIST*
D10*
X138176000Y-91694000D03*
D11*
X112776000Y-91694000D03*
D12*
X125476000Y-91694000D03*
D13*
X129794000Y-75692000D03*
D14*
X148793200Y-78587600D03*
X148793200Y-81087600D03*
X145034000Y-113752000D03*
X145034000Y-111252000D03*
G04 #@! TA.AperFunction,ComponentPad*
D15*
G36*
X145031949Y-78342931D02*
G01*
X143653069Y-79499949D01*
X142496051Y-78121069D01*
X143874931Y-76964051D01*
X145031949Y-78342931D01*
G37*
G04 #@! TD.AperFunction*
D16*
X142131319Y-76286247D03*
D17*
X145034000Y-98298000D03*
D18*
X152654000Y-105918000D03*
X145034000Y-100838000D03*
X152654000Y-103378000D03*
X145034000Y-103378000D03*
X152654000Y-100838000D03*
X145034000Y-105918000D03*
X152654000Y-98298000D03*
D14*
X145034000Y-93472000D03*
D19*
X145034000Y-83312000D03*
X152654000Y-83273900D03*
D14*
X152654000Y-93433900D03*
X136347200Y-67665600D03*
D19*
X136347200Y-77825600D03*
D20*
X117906800Y-75184000D03*
D16*
X120406800Y-75184000D03*
X122906800Y-75184000D03*
X117906800Y-71984000D03*
X120406800Y-71984000D03*
X122906800Y-71984000D03*
D21*
X120406800Y-73911208D02*
X120406800Y-71984000D01*
X120406800Y-75184000D02*
X120406800Y-73911208D01*
X138176000Y-84582000D02*
X138176000Y-91694000D01*
X112776000Y-91694000D02*
X112776000Y-83464400D01*
X135432800Y-80467200D02*
X138176000Y-83210400D01*
X125933200Y-80467200D02*
X135432800Y-80467200D01*
X138176000Y-83210400D02*
X138176000Y-84582000D01*
X125690000Y-80467200D02*
X120406800Y-75184000D01*
X125933200Y-80467200D02*
X125690000Y-80467200D01*
X112776000Y-82814800D02*
X120406800Y-75184000D01*
X112776000Y-83464400D02*
X112776000Y-82814800D01*
X144634000Y-106146600D02*
X145034000Y-106146600D01*
X143256000Y-104768600D02*
X144634000Y-106146600D01*
X143256000Y-94996000D02*
X143256000Y-104768600D01*
X143256000Y-91694000D02*
X143256000Y-94996000D01*
X152654000Y-97282000D02*
X152654000Y-98526600D01*
X151638000Y-96266000D02*
X152654000Y-97282000D01*
X143256000Y-94996000D02*
X144526000Y-96266000D01*
X144526000Y-96266000D02*
X151638000Y-96266000D01*
X144234001Y-92672001D02*
X143256000Y-91694000D01*
X145034000Y-93472000D02*
X144234001Y-92672001D01*
X143256000Y-80772000D02*
X143256000Y-91694000D01*
X141782800Y-79298800D02*
X143256000Y-80772000D01*
X127050800Y-79298800D02*
X141782800Y-79298800D01*
X127021600Y-79298800D02*
X122906800Y-75184000D01*
D22*
X127050800Y-79298800D02*
X127021600Y-79298800D01*
D21*
X122906800Y-73911208D02*
X122906800Y-71984000D01*
X122906800Y-75184000D02*
X122906800Y-73911208D01*
D23*
G36*
X131124563Y-64928941D02*
G01*
X140658896Y-66957523D01*
X141832152Y-67437163D01*
X142858399Y-67948173D01*
X148414294Y-71599190D01*
X148907057Y-72000741D01*
X150441263Y-73452164D01*
X151864088Y-75012929D01*
X151965413Y-75142071D01*
X155415349Y-80316975D01*
X156296150Y-82170955D01*
X156953787Y-83868512D01*
X158572441Y-91961779D01*
X158606079Y-92416015D01*
X158606079Y-94527985D01*
X158558284Y-95173384D01*
X157263615Y-102132227D01*
X157059082Y-102803691D01*
X156296150Y-104773045D01*
X155582879Y-106274394D01*
X151854361Y-111941741D01*
X150441263Y-113491836D01*
X148907057Y-114943259D01*
X148115871Y-115587994D01*
X143691269Y-118581107D01*
X141832152Y-119506837D01*
X140418095Y-120084920D01*
X131156237Y-122014473D01*
X129519917Y-122044716D01*
X128194232Y-121971145D01*
X120556040Y-120408787D01*
X119233922Y-119924499D01*
X117309869Y-119053615D01*
X117140356Y-118961239D01*
X111068544Y-114744702D01*
X144220903Y-114744702D01*
X144292486Y-114988671D01*
X144547996Y-115109571D01*
X144822184Y-115178300D01*
X145104512Y-115192217D01*
X145384130Y-115150787D01*
X145650292Y-115055603D01*
X145775514Y-114988671D01*
X145847097Y-114744702D01*
X145034000Y-113931605D01*
X144220903Y-114744702D01*
X111068544Y-114744702D01*
X110705137Y-114492336D01*
X110408428Y-114231725D01*
X110006709Y-113822512D01*
X143593783Y-113822512D01*
X143635213Y-114102130D01*
X143730397Y-114368292D01*
X143797329Y-114493514D01*
X144041298Y-114565097D01*
X144854395Y-113752000D01*
X145213605Y-113752000D01*
X146026702Y-114565097D01*
X146270671Y-114493514D01*
X146391571Y-114238004D01*
X146460300Y-113963816D01*
X146474217Y-113681488D01*
X146432787Y-113401870D01*
X146337603Y-113135708D01*
X146270671Y-113010486D01*
X146026702Y-112938903D01*
X145213605Y-113752000D01*
X144854395Y-113752000D01*
X144041298Y-112938903D01*
X143797329Y-113010486D01*
X143676429Y-113265996D01*
X143607700Y-113540184D01*
X143593783Y-113822512D01*
X110006709Y-113822512D01*
X108928902Y-112724602D01*
X108905898Y-112697415D01*
X107861984Y-111110665D01*
X143599000Y-111110665D01*
X143599000Y-111393335D01*
X143654147Y-111670574D01*
X143762320Y-111931727D01*
X143919363Y-112166759D01*
X144119241Y-112366637D01*
X144319869Y-112500692D01*
X144292486Y-112515329D01*
X144220903Y-112759298D01*
X145034000Y-113572395D01*
X145847097Y-112759298D01*
X145775514Y-112515329D01*
X145746659Y-112501676D01*
X145948759Y-112366637D01*
X146148637Y-112166759D01*
X146305680Y-111931727D01*
X146413853Y-111670574D01*
X146469000Y-111393335D01*
X146469000Y-111110665D01*
X146413853Y-110833426D01*
X146305680Y-110572273D01*
X146148637Y-110337241D01*
X145948759Y-110137363D01*
X145713727Y-109980320D01*
X145452574Y-109872147D01*
X145175335Y-109817000D01*
X144892665Y-109817000D01*
X144615426Y-109872147D01*
X144354273Y-109980320D01*
X144119241Y-110137363D01*
X143919363Y-110337241D01*
X143762320Y-110572273D01*
X143654147Y-110833426D01*
X143599000Y-111110665D01*
X107861984Y-111110665D01*
X104064641Y-105338704D01*
X103400185Y-103795418D01*
X102926467Y-102424217D01*
X101530415Y-95094942D01*
X101525558Y-94963580D01*
X122386025Y-94963580D01*
X122842197Y-95535185D01*
X123642183Y-95975207D01*
X124512641Y-96250704D01*
X125420121Y-96351091D01*
X126329748Y-96272508D01*
X127206566Y-96017975D01*
X128016879Y-95597275D01*
X128109803Y-95535185D01*
X128565975Y-94963580D01*
X125476000Y-91873605D01*
X122386025Y-94963580D01*
X101525558Y-94963580D01*
X101470404Y-93472000D01*
X101519968Y-92131585D01*
X102194987Y-89094000D01*
X109387928Y-89094000D01*
X109387928Y-94294000D01*
X109400188Y-94418482D01*
X109436498Y-94538180D01*
X109495463Y-94648494D01*
X109574815Y-94745185D01*
X109671506Y-94824537D01*
X109781820Y-94883502D01*
X109901518Y-94919812D01*
X110026000Y-94932072D01*
X115526000Y-94932072D01*
X115650482Y-94919812D01*
X115770180Y-94883502D01*
X115880494Y-94824537D01*
X115977185Y-94745185D01*
X116056537Y-94648494D01*
X116115502Y-94538180D01*
X116151812Y-94418482D01*
X116164072Y-94294000D01*
X116164072Y-91638121D01*
X120818909Y-91638121D01*
X120897492Y-92547748D01*
X121152025Y-93424566D01*
X121572725Y-94234879D01*
X121634815Y-94327803D01*
X122206420Y-94783975D01*
X125296395Y-91694000D01*
X125655605Y-91694000D01*
X128745580Y-94783975D01*
X129317185Y-94327803D01*
X129757207Y-93527817D01*
X130032704Y-92657359D01*
X130133091Y-91749879D01*
X130054508Y-90840252D01*
X129799975Y-89963434D01*
X129379275Y-89153121D01*
X129317185Y-89060197D01*
X128745580Y-88604025D01*
X125655605Y-91694000D01*
X125296395Y-91694000D01*
X122206420Y-88604025D01*
X121634815Y-89060197D01*
X121194793Y-89860183D01*
X120919296Y-90730641D01*
X120818909Y-91638121D01*
X116164072Y-91638121D01*
X116164072Y-89094000D01*
X116151812Y-88969518D01*
X116115502Y-88849820D01*
X116056537Y-88739506D01*
X115977185Y-88642815D01*
X115880494Y-88563463D01*
X115770180Y-88504498D01*
X115650482Y-88468188D01*
X115526000Y-88455928D01*
X113601500Y-88455928D01*
X113601500Y-88424420D01*
X122386025Y-88424420D01*
X125476000Y-91514395D01*
X128565975Y-88424420D01*
X128109803Y-87852815D01*
X127309817Y-87412793D01*
X126439359Y-87137296D01*
X125531879Y-87036909D01*
X124622252Y-87115492D01*
X123745434Y-87370025D01*
X122935121Y-87790725D01*
X122842197Y-87852815D01*
X122386025Y-88424420D01*
X113601500Y-88424420D01*
X113601500Y-83156732D01*
X120075134Y-76683100D01*
X120255616Y-76719000D01*
X120557984Y-76719000D01*
X120738468Y-76683100D01*
X125077607Y-81022240D01*
X125103459Y-81053741D01*
X125144717Y-81087600D01*
X125229157Y-81156899D01*
X125326191Y-81208765D01*
X125372566Y-81233553D01*
X125528174Y-81280756D01*
X125649447Y-81292700D01*
X125649449Y-81292700D01*
X125689999Y-81296694D01*
X125730550Y-81292700D01*
X135090868Y-81292700D01*
X137350500Y-83552334D01*
X137350501Y-84541438D01*
X137350500Y-84541448D01*
X137350501Y-88505928D01*
X135476000Y-88505928D01*
X135351518Y-88518188D01*
X135231820Y-88554498D01*
X135121506Y-88613463D01*
X135024815Y-88692815D01*
X134945463Y-88789506D01*
X134886498Y-88899820D01*
X134850188Y-89019518D01*
X134837928Y-89144000D01*
X134837928Y-94244000D01*
X134850188Y-94368482D01*
X134886498Y-94488180D01*
X134945463Y-94598494D01*
X135024815Y-94695185D01*
X135121506Y-94774537D01*
X135231820Y-94833502D01*
X135351518Y-94869812D01*
X135476000Y-94882072D01*
X140876000Y-94882072D01*
X141000482Y-94869812D01*
X141120180Y-94833502D01*
X141230494Y-94774537D01*
X141327185Y-94695185D01*
X141406537Y-94598494D01*
X141465502Y-94488180D01*
X141501812Y-94368482D01*
X141514072Y-94244000D01*
X141514072Y-89144000D01*
X141501812Y-89019518D01*
X141465502Y-88899820D01*
X141406537Y-88789506D01*
X141327185Y-88692815D01*
X141230494Y-88613463D01*
X141120180Y-88554498D01*
X141000482Y-88518188D01*
X140876000Y-88505928D01*
X139001500Y-88505928D01*
X139001500Y-83250950D01*
X139005494Y-83210400D01*
X139001500Y-83169847D01*
X138989556Y-83048574D01*
X138942353Y-82892966D01*
X138900572Y-82814800D01*
X138865699Y-82749557D01*
X138788392Y-82655358D01*
X138788389Y-82655355D01*
X138762541Y-82623859D01*
X138731046Y-82598012D01*
X136257332Y-80124300D01*
X141440868Y-80124300D01*
X142430500Y-81113933D01*
X142430501Y-91653440D01*
X142426506Y-91694000D01*
X142430500Y-91734551D01*
X142430501Y-94955438D01*
X142430500Y-94955447D01*
X142426506Y-94996000D01*
X142430500Y-95036550D01*
X142430501Y-104728040D01*
X142426506Y-104768600D01*
X142442445Y-104930426D01*
X142489647Y-105086033D01*
X142566301Y-105229442D01*
X142626627Y-105302949D01*
X142669460Y-105355141D01*
X142700961Y-105380993D01*
X143196173Y-105876206D01*
X143192057Y-105918000D01*
X143219764Y-106199309D01*
X143301818Y-106469808D01*
X143435068Y-106719101D01*
X143614392Y-106937608D01*
X143832899Y-107116932D01*
X144082192Y-107250182D01*
X144352691Y-107332236D01*
X144563508Y-107353000D01*
X145504492Y-107353000D01*
X145715309Y-107332236D01*
X145985808Y-107250182D01*
X146235101Y-107116932D01*
X146453608Y-106937608D01*
X146632932Y-106719101D01*
X146766182Y-106469808D01*
X146848236Y-106199309D01*
X146875943Y-105918000D01*
X146848236Y-105636691D01*
X146766182Y-105366192D01*
X146632932Y-105116899D01*
X146453608Y-104898392D01*
X146235101Y-104719068D01*
X146102142Y-104648000D01*
X146235101Y-104576932D01*
X146453608Y-104397608D01*
X146632932Y-104179101D01*
X146766182Y-103929808D01*
X146848236Y-103659309D01*
X146875943Y-103378000D01*
X146848236Y-103096691D01*
X146766182Y-102826192D01*
X146632932Y-102576899D01*
X146453608Y-102358392D01*
X146235101Y-102179068D01*
X146102142Y-102108000D01*
X146235101Y-102036932D01*
X146453608Y-101857608D01*
X146632932Y-101639101D01*
X146766182Y-101389808D01*
X146848236Y-101119309D01*
X146875943Y-100838000D01*
X146848236Y-100556691D01*
X146766182Y-100286192D01*
X146632932Y-100036899D01*
X146453608Y-99818392D01*
X146340518Y-99725581D01*
X146358482Y-99723812D01*
X146478180Y-99687502D01*
X146588494Y-99628537D01*
X146685185Y-99549185D01*
X146764537Y-99452494D01*
X146823502Y-99342180D01*
X146859812Y-99222482D01*
X146872072Y-99098000D01*
X146869000Y-98583750D01*
X146710250Y-98425000D01*
X145161000Y-98425000D01*
X145161000Y-98445000D01*
X144907000Y-98445000D01*
X144907000Y-98425000D01*
X144887000Y-98425000D01*
X144887000Y-98171000D01*
X144907000Y-98171000D01*
X144907000Y-98151000D01*
X145161000Y-98151000D01*
X145161000Y-98171000D01*
X146710250Y-98171000D01*
X146869000Y-98012250D01*
X146872072Y-97498000D01*
X146859812Y-97373518D01*
X146823502Y-97253820D01*
X146764537Y-97143506D01*
X146721857Y-97091500D01*
X151296068Y-97091500D01*
X151370917Y-97166349D01*
X151234392Y-97278392D01*
X151055068Y-97496899D01*
X150921818Y-97746192D01*
X150839764Y-98016691D01*
X150812057Y-98298000D01*
X150839764Y-98579309D01*
X150921818Y-98849808D01*
X151055068Y-99099101D01*
X151234392Y-99317608D01*
X151452899Y-99496932D01*
X151585858Y-99568000D01*
X151452899Y-99639068D01*
X151234392Y-99818392D01*
X151055068Y-100036899D01*
X150921818Y-100286192D01*
X150839764Y-100556691D01*
X150812057Y-100838000D01*
X150839764Y-101119309D01*
X150921818Y-101389808D01*
X151055068Y-101639101D01*
X151234392Y-101857608D01*
X151452899Y-102036932D01*
X151585858Y-102108000D01*
X151452899Y-102179068D01*
X151234392Y-102358392D01*
X151055068Y-102576899D01*
X150921818Y-102826192D01*
X150839764Y-103096691D01*
X150812057Y-103378000D01*
X150839764Y-103659309D01*
X150921818Y-103929808D01*
X151055068Y-104179101D01*
X151234392Y-104397608D01*
X151452899Y-104576932D01*
X151585858Y-104648000D01*
X151452899Y-104719068D01*
X151234392Y-104898392D01*
X151055068Y-105116899D01*
X150921818Y-105366192D01*
X150839764Y-105636691D01*
X150812057Y-105918000D01*
X150839764Y-106199309D01*
X150921818Y-106469808D01*
X151055068Y-106719101D01*
X151234392Y-106937608D01*
X151452899Y-107116932D01*
X151702192Y-107250182D01*
X151972691Y-107332236D01*
X152183508Y-107353000D01*
X153124492Y-107353000D01*
X153335309Y-107332236D01*
X153605808Y-107250182D01*
X153855101Y-107116932D01*
X154073608Y-106937608D01*
X154252932Y-106719101D01*
X154386182Y-106469808D01*
X154468236Y-106199309D01*
X154495943Y-105918000D01*
X154468236Y-105636691D01*
X154386182Y-105366192D01*
X154252932Y-105116899D01*
X154073608Y-104898392D01*
X153855101Y-104719068D01*
X153722142Y-104648000D01*
X153855101Y-104576932D01*
X154073608Y-104397608D01*
X154252932Y-104179101D01*
X154386182Y-103929808D01*
X154468236Y-103659309D01*
X154495943Y-103378000D01*
X154468236Y-103096691D01*
X154386182Y-102826192D01*
X154252932Y-102576899D01*
X154073608Y-102358392D01*
X153855101Y-102179068D01*
X153722142Y-102108000D01*
X153855101Y-102036932D01*
X154073608Y-101857608D01*
X154252932Y-101639101D01*
X154386182Y-101389808D01*
X154468236Y-101119309D01*
X154495943Y-100838000D01*
X154468236Y-100556691D01*
X154386182Y-100286192D01*
X154252932Y-100036899D01*
X154073608Y-99818392D01*
X153855101Y-99639068D01*
X153722142Y-99568000D01*
X153855101Y-99496932D01*
X154073608Y-99317608D01*
X154252932Y-99099101D01*
X154386182Y-98849808D01*
X154468236Y-98579309D01*
X154495943Y-98298000D01*
X154468236Y-98016691D01*
X154386182Y-97746192D01*
X154252932Y-97496899D01*
X154073608Y-97278392D01*
X153855101Y-97099068D01*
X153605808Y-96965818D01*
X153385263Y-96898917D01*
X153374291Y-96878391D01*
X153343699Y-96821157D01*
X153266391Y-96726958D01*
X153240541Y-96695459D01*
X153209040Y-96669607D01*
X152250398Y-95710966D01*
X152224541Y-95679459D01*
X152098842Y-95576301D01*
X151955434Y-95499647D01*
X151799826Y-95452444D01*
X151678553Y-95440500D01*
X151678550Y-95440500D01*
X151638000Y-95436506D01*
X151597450Y-95440500D01*
X144867933Y-95440500D01*
X144081500Y-94654068D01*
X144081500Y-94548896D01*
X144119241Y-94586637D01*
X144354273Y-94743680D01*
X144615426Y-94851853D01*
X144892665Y-94907000D01*
X145175335Y-94907000D01*
X145452574Y-94851853D01*
X145713727Y-94743680D01*
X145948759Y-94586637D01*
X146148637Y-94386759D01*
X146305680Y-94151727D01*
X146413853Y-93890574D01*
X146469000Y-93613335D01*
X146469000Y-93330665D01*
X146461422Y-93292565D01*
X151219000Y-93292565D01*
X151219000Y-93575235D01*
X151274147Y-93852474D01*
X151382320Y-94113627D01*
X151539363Y-94348659D01*
X151739241Y-94548537D01*
X151974273Y-94705580D01*
X152235426Y-94813753D01*
X152512665Y-94868900D01*
X152795335Y-94868900D01*
X153072574Y-94813753D01*
X153333727Y-94705580D01*
X153568759Y-94548537D01*
X153768637Y-94348659D01*
X153925680Y-94113627D01*
X154033853Y-93852474D01*
X154089000Y-93575235D01*
X154089000Y-93292565D01*
X154033853Y-93015326D01*
X153925680Y-92754173D01*
X153768637Y-92519141D01*
X153568759Y-92319263D01*
X153333727Y-92162220D01*
X153072574Y-92054047D01*
X152795335Y-91998900D01*
X152512665Y-91998900D01*
X152235426Y-92054047D01*
X151974273Y-92162220D01*
X151739241Y-92319263D01*
X151539363Y-92519141D01*
X151382320Y-92754173D01*
X151274147Y-93015326D01*
X151219000Y-93292565D01*
X146461422Y-93292565D01*
X146413853Y-93053426D01*
X146305680Y-92792273D01*
X146148637Y-92557241D01*
X145948759Y-92357363D01*
X145713727Y-92200320D01*
X145452574Y-92092147D01*
X145175335Y-92037000D01*
X144892665Y-92037000D01*
X144787376Y-92057943D01*
X144081500Y-91352068D01*
X144081500Y-84388896D01*
X144119241Y-84426637D01*
X144354273Y-84583680D01*
X144615426Y-84691853D01*
X144892665Y-84747000D01*
X145175335Y-84747000D01*
X145452574Y-84691853D01*
X145713727Y-84583680D01*
X145948759Y-84426637D01*
X146148637Y-84226759D01*
X146305680Y-83991727D01*
X146413853Y-83730574D01*
X146469000Y-83453335D01*
X146469000Y-83170665D01*
X146461422Y-83132565D01*
X151219000Y-83132565D01*
X151219000Y-83415235D01*
X151274147Y-83692474D01*
X151382320Y-83953627D01*
X151539363Y-84188659D01*
X151739241Y-84388537D01*
X151974273Y-84545580D01*
X152235426Y-84653753D01*
X152512665Y-84708900D01*
X152795335Y-84708900D01*
X153072574Y-84653753D01*
X153333727Y-84545580D01*
X153568759Y-84388537D01*
X153768637Y-84188659D01*
X153925680Y-83953627D01*
X154033853Y-83692474D01*
X154089000Y-83415235D01*
X154089000Y-83132565D01*
X154033853Y-82855326D01*
X153925680Y-82594173D01*
X153768637Y-82359141D01*
X153568759Y-82159263D01*
X153333727Y-82002220D01*
X153072574Y-81894047D01*
X152795335Y-81838900D01*
X152512665Y-81838900D01*
X152235426Y-81894047D01*
X151974273Y-82002220D01*
X151739241Y-82159263D01*
X151539363Y-82359141D01*
X151382320Y-82594173D01*
X151274147Y-82855326D01*
X151219000Y-83132565D01*
X146461422Y-83132565D01*
X146413853Y-82893426D01*
X146305680Y-82632273D01*
X146148637Y-82397241D01*
X145948759Y-82197363D01*
X145773565Y-82080302D01*
X147980103Y-82080302D01*
X148051686Y-82324271D01*
X148307196Y-82445171D01*
X148581384Y-82513900D01*
X148863712Y-82527817D01*
X149143330Y-82486387D01*
X149409492Y-82391203D01*
X149534714Y-82324271D01*
X149606297Y-82080302D01*
X148793200Y-81267205D01*
X147980103Y-82080302D01*
X145773565Y-82080302D01*
X145713727Y-82040320D01*
X145452574Y-81932147D01*
X145175335Y-81877000D01*
X144892665Y-81877000D01*
X144615426Y-81932147D01*
X144354273Y-82040320D01*
X144119241Y-82197363D01*
X144081500Y-82235104D01*
X144081500Y-81158112D01*
X147352983Y-81158112D01*
X147394413Y-81437730D01*
X147489597Y-81703892D01*
X147556529Y-81829114D01*
X147800498Y-81900697D01*
X148613595Y-81087600D01*
X148972805Y-81087600D01*
X149785902Y-81900697D01*
X150029871Y-81829114D01*
X150150771Y-81573604D01*
X150219500Y-81299416D01*
X150233417Y-81017088D01*
X150191987Y-80737470D01*
X150096803Y-80471308D01*
X150029871Y-80346086D01*
X149785902Y-80274503D01*
X148972805Y-81087600D01*
X148613595Y-81087600D01*
X147800498Y-80274503D01*
X147556529Y-80346086D01*
X147435629Y-80601596D01*
X147366900Y-80875784D01*
X147352983Y-81158112D01*
X144081500Y-81158112D01*
X144081500Y-80812542D01*
X144085493Y-80771999D01*
X144081500Y-80731456D01*
X144081500Y-80731447D01*
X144069556Y-80610174D01*
X144022353Y-80454566D01*
X143945699Y-80311158D01*
X143842541Y-80185459D01*
X143811041Y-80159608D01*
X143774693Y-80123260D01*
X143844941Y-80108489D01*
X143959974Y-80059364D01*
X144063214Y-79988740D01*
X144531782Y-79591555D01*
X144551349Y-79367903D01*
X143748346Y-78410922D01*
X143733026Y-78423777D01*
X143585241Y-78247654D01*
X143942922Y-78247654D01*
X144745924Y-79204635D01*
X144969576Y-79224202D01*
X145442094Y-78831723D01*
X145529572Y-78742315D01*
X145597926Y-78637560D01*
X145644530Y-78521482D01*
X145658640Y-78446265D01*
X147358200Y-78446265D01*
X147358200Y-78728935D01*
X147413347Y-79006174D01*
X147521520Y-79267327D01*
X147678563Y-79502359D01*
X147878441Y-79702237D01*
X148079069Y-79836292D01*
X148051686Y-79850929D01*
X147980103Y-80094898D01*
X148793200Y-80907995D01*
X149606297Y-80094898D01*
X149534714Y-79850929D01*
X149505859Y-79837276D01*
X149707959Y-79702237D01*
X149907837Y-79502359D01*
X150064880Y-79267327D01*
X150173053Y-79006174D01*
X150228200Y-78728935D01*
X150228200Y-78446265D01*
X150173053Y-78169026D01*
X150064880Y-77907873D01*
X149907837Y-77672841D01*
X149707959Y-77472963D01*
X149472927Y-77315920D01*
X149211774Y-77207747D01*
X148934535Y-77152600D01*
X148651865Y-77152600D01*
X148374626Y-77207747D01*
X148113473Y-77315920D01*
X147878441Y-77472963D01*
X147678563Y-77672841D01*
X147521520Y-77907873D01*
X147413347Y-78169026D01*
X147358200Y-78446265D01*
X145658640Y-78446265D01*
X145667593Y-78398543D01*
X145666228Y-78273467D01*
X145640489Y-78151059D01*
X145591364Y-78036026D01*
X145520740Y-77932786D01*
X145123555Y-77464218D01*
X144899903Y-77444651D01*
X143942922Y-78247654D01*
X143585241Y-78247654D01*
X143569757Y-78229202D01*
X143585078Y-78216346D01*
X143572223Y-78201026D01*
X143766798Y-78037757D01*
X143779654Y-78053078D01*
X144736635Y-77250076D01*
X144756202Y-77026424D01*
X144363723Y-76553906D01*
X144274315Y-76466428D01*
X144169560Y-76398074D01*
X144053482Y-76351470D01*
X143930543Y-76328407D01*
X143805467Y-76329772D01*
X143683059Y-76355511D01*
X143666319Y-76362660D01*
X143666319Y-76135063D01*
X143607330Y-75838504D01*
X143491618Y-75559152D01*
X143323631Y-75307742D01*
X143109824Y-75093935D01*
X142858414Y-74925948D01*
X142579062Y-74810236D01*
X142282503Y-74751247D01*
X141980135Y-74751247D01*
X141683576Y-74810236D01*
X141404224Y-74925948D01*
X141152814Y-75093935D01*
X140939007Y-75307742D01*
X140771020Y-75559152D01*
X140655308Y-75838504D01*
X140596319Y-76135063D01*
X140596319Y-76437431D01*
X140655308Y-76733990D01*
X140771020Y-77013342D01*
X140939007Y-77264752D01*
X141152814Y-77478559D01*
X141404224Y-77646546D01*
X141683576Y-77762258D01*
X141938824Y-77813030D01*
X141930074Y-77826440D01*
X141883470Y-77942518D01*
X141860407Y-78065457D01*
X141861772Y-78190533D01*
X141887511Y-78312941D01*
X141936636Y-78427974D01*
X141983979Y-78497182D01*
X141944626Y-78485244D01*
X141823353Y-78473300D01*
X141823350Y-78473300D01*
X141782800Y-78469306D01*
X141742250Y-78473300D01*
X137632146Y-78473300D01*
X137727053Y-78244174D01*
X137782200Y-77966935D01*
X137782200Y-77684265D01*
X137727053Y-77407026D01*
X137618880Y-77145873D01*
X137461837Y-76910841D01*
X137261959Y-76710963D01*
X137026927Y-76553920D01*
X136765774Y-76445747D01*
X136488535Y-76390600D01*
X136205865Y-76390600D01*
X135928626Y-76445747D01*
X135667473Y-76553920D01*
X135432441Y-76710963D01*
X135232563Y-76910841D01*
X135075520Y-77145873D01*
X134967347Y-77407026D01*
X134912200Y-77684265D01*
X134912200Y-77966935D01*
X134967347Y-78244174D01*
X135062254Y-78473300D01*
X131271497Y-78473300D01*
X131278979Y-78470201D01*
X131792446Y-78127114D01*
X132229114Y-77690446D01*
X132572201Y-77176979D01*
X132808524Y-76606446D01*
X132929000Y-76000771D01*
X132929000Y-75383229D01*
X132808524Y-74777554D01*
X132572201Y-74207021D01*
X132229114Y-73693554D01*
X131792446Y-73256886D01*
X131278979Y-72913799D01*
X130708446Y-72677476D01*
X130102771Y-72557000D01*
X129485229Y-72557000D01*
X128879554Y-72677476D01*
X128309021Y-72913799D01*
X127795554Y-73256886D01*
X127358886Y-73693554D01*
X127015799Y-74207021D01*
X126779476Y-74777554D01*
X126659000Y-75383229D01*
X126659000Y-76000771D01*
X126779476Y-76606446D01*
X127015799Y-77176979D01*
X127358886Y-77690446D01*
X127795554Y-78127114D01*
X128309021Y-78470201D01*
X128316503Y-78473300D01*
X127363533Y-78473300D01*
X124405900Y-75515668D01*
X124441800Y-75335184D01*
X124441800Y-75032816D01*
X124382811Y-74736257D01*
X124267099Y-74456905D01*
X124099112Y-74205495D01*
X123885305Y-73991688D01*
X123732300Y-73889453D01*
X123732300Y-73278547D01*
X123885305Y-73176312D01*
X124099112Y-72962505D01*
X124267099Y-72711095D01*
X124382811Y-72431743D01*
X124441800Y-72135184D01*
X124441800Y-71832816D01*
X124382811Y-71536257D01*
X124267099Y-71256905D01*
X124099112Y-71005495D01*
X123885305Y-70791688D01*
X123633895Y-70623701D01*
X123354543Y-70507989D01*
X123057984Y-70449000D01*
X122755616Y-70449000D01*
X122459057Y-70507989D01*
X122179705Y-70623701D01*
X121928295Y-70791688D01*
X121714488Y-71005495D01*
X121656800Y-71091831D01*
X121599112Y-71005495D01*
X121385305Y-70791688D01*
X121133895Y-70623701D01*
X120854543Y-70507989D01*
X120557984Y-70449000D01*
X120255616Y-70449000D01*
X119959057Y-70507989D01*
X119679705Y-70623701D01*
X119428295Y-70791688D01*
X119214488Y-71005495D01*
X119156800Y-71091831D01*
X119099112Y-71005495D01*
X118885305Y-70791688D01*
X118633895Y-70623701D01*
X118354543Y-70507989D01*
X118057984Y-70449000D01*
X117755616Y-70449000D01*
X117459057Y-70507989D01*
X117179705Y-70623701D01*
X116928295Y-70791688D01*
X116714488Y-71005495D01*
X116546501Y-71256905D01*
X116430789Y-71536257D01*
X116371800Y-71832816D01*
X116371800Y-72135184D01*
X116430789Y-72431743D01*
X116546501Y-72711095D01*
X116714488Y-72962505D01*
X116928295Y-73176312D01*
X117179705Y-73344299D01*
X117459057Y-73460011D01*
X117755616Y-73519000D01*
X118057984Y-73519000D01*
X118354543Y-73460011D01*
X118633895Y-73344299D01*
X118885305Y-73176312D01*
X119099112Y-72962505D01*
X119156800Y-72876169D01*
X119214488Y-72962505D01*
X119428295Y-73176312D01*
X119581300Y-73278547D01*
X119581300Y-73889453D01*
X119428295Y-73991688D01*
X119390680Y-74029303D01*
X119337337Y-73929506D01*
X119257985Y-73832815D01*
X119161294Y-73753463D01*
X119050980Y-73694498D01*
X118931282Y-73658188D01*
X118806800Y-73645928D01*
X117006800Y-73645928D01*
X116882318Y-73658188D01*
X116762620Y-73694498D01*
X116652306Y-73753463D01*
X116555615Y-73832815D01*
X116476263Y-73929506D01*
X116417298Y-74039820D01*
X116380988Y-74159518D01*
X116368728Y-74284000D01*
X116368728Y-76084000D01*
X116380988Y-76208482D01*
X116417298Y-76328180D01*
X116476263Y-76438494D01*
X116555615Y-76535185D01*
X116652306Y-76614537D01*
X116762620Y-76673502D01*
X116882318Y-76709812D01*
X117006800Y-76722072D01*
X117701295Y-76722072D01*
X112220961Y-82202407D01*
X112189460Y-82228259D01*
X112163609Y-82259759D01*
X112086301Y-82353958D01*
X112009647Y-82497367D01*
X111990266Y-82561260D01*
X111962444Y-82652974D01*
X111950500Y-82774247D01*
X111946506Y-82814800D01*
X111950500Y-82855350D01*
X111950500Y-83504952D01*
X111950501Y-83504962D01*
X111950500Y-88455928D01*
X110026000Y-88455928D01*
X109901518Y-88468188D01*
X109781820Y-88504498D01*
X109671506Y-88563463D01*
X109574815Y-88642815D01*
X109495463Y-88739506D01*
X109436498Y-88849820D01*
X109400188Y-88969518D01*
X109387928Y-89094000D01*
X102194987Y-89094000D01*
X103639937Y-82591727D01*
X104052663Y-81633117D01*
X108909349Y-74242507D01*
X108928902Y-74219398D01*
X110408428Y-72712275D01*
X110597768Y-72545970D01*
X117545033Y-67851872D01*
X127559000Y-67851872D01*
X127559000Y-68292128D01*
X127644890Y-68723925D01*
X127813369Y-69130669D01*
X128057962Y-69496729D01*
X128369271Y-69808038D01*
X128735331Y-70052631D01*
X129142075Y-70221110D01*
X129573872Y-70307000D01*
X130014128Y-70307000D01*
X130445925Y-70221110D01*
X130852669Y-70052631D01*
X131218729Y-69808038D01*
X131530038Y-69496729D01*
X131774631Y-69130669D01*
X131943110Y-68723925D01*
X132029000Y-68292128D01*
X132029000Y-67851872D01*
X131963835Y-67524265D01*
X134912200Y-67524265D01*
X134912200Y-67806935D01*
X134967347Y-68084174D01*
X135075520Y-68345327D01*
X135232563Y-68580359D01*
X135432441Y-68780237D01*
X135667473Y-68937280D01*
X135928626Y-69045453D01*
X136205865Y-69100600D01*
X136488535Y-69100600D01*
X136765774Y-69045453D01*
X137026927Y-68937280D01*
X137261959Y-68780237D01*
X137461837Y-68580359D01*
X137618880Y-68345327D01*
X137727053Y-68084174D01*
X137782200Y-67806935D01*
X137782200Y-67524265D01*
X137727053Y-67247026D01*
X137618880Y-66985873D01*
X137461837Y-66750841D01*
X137261959Y-66550963D01*
X137026927Y-66393920D01*
X136765774Y-66285747D01*
X136488535Y-66230600D01*
X136205865Y-66230600D01*
X135928626Y-66285747D01*
X135667473Y-66393920D01*
X135432441Y-66550963D01*
X135232563Y-66750841D01*
X135075520Y-66985873D01*
X134967347Y-67247026D01*
X134912200Y-67524265D01*
X131963835Y-67524265D01*
X131943110Y-67420075D01*
X131774631Y-67013331D01*
X131530038Y-66647271D01*
X131218729Y-66335962D01*
X130852669Y-66091369D01*
X130445925Y-65922890D01*
X130014128Y-65837000D01*
X129573872Y-65837000D01*
X129142075Y-65922890D01*
X128735331Y-66091369D01*
X128369271Y-66335962D01*
X128057962Y-66647271D01*
X127813369Y-67013331D01*
X127644890Y-67420075D01*
X127559000Y-67851872D01*
X117545033Y-67851872D01*
X117849588Y-67646092D01*
X119233922Y-67019501D01*
X120275357Y-66638026D01*
X128244504Y-64970065D01*
X129519917Y-64899284D01*
X131124563Y-64928941D01*
G37*
X131124563Y-64928941D02*
X140658896Y-66957523D01*
X141832152Y-67437163D01*
X142858399Y-67948173D01*
X148414294Y-71599190D01*
X148907057Y-72000741D01*
X150441263Y-73452164D01*
X151864088Y-75012929D01*
X151965413Y-75142071D01*
X155415349Y-80316975D01*
X156296150Y-82170955D01*
X156953787Y-83868512D01*
X158572441Y-91961779D01*
X158606079Y-92416015D01*
X158606079Y-94527985D01*
X158558284Y-95173384D01*
X157263615Y-102132227D01*
X157059082Y-102803691D01*
X156296150Y-104773045D01*
X155582879Y-106274394D01*
X151854361Y-111941741D01*
X150441263Y-113491836D01*
X148907057Y-114943259D01*
X148115871Y-115587994D01*
X143691269Y-118581107D01*
X141832152Y-119506837D01*
X140418095Y-120084920D01*
X131156237Y-122014473D01*
X129519917Y-122044716D01*
X128194232Y-121971145D01*
X120556040Y-120408787D01*
X119233922Y-119924499D01*
X117309869Y-119053615D01*
X117140356Y-118961239D01*
X111068544Y-114744702D01*
X144220903Y-114744702D01*
X144292486Y-114988671D01*
X144547996Y-115109571D01*
X144822184Y-115178300D01*
X145104512Y-115192217D01*
X145384130Y-115150787D01*
X145650292Y-115055603D01*
X145775514Y-114988671D01*
X145847097Y-114744702D01*
X145034000Y-113931605D01*
X144220903Y-114744702D01*
X111068544Y-114744702D01*
X110705137Y-114492336D01*
X110408428Y-114231725D01*
X110006709Y-113822512D01*
X143593783Y-113822512D01*
X143635213Y-114102130D01*
X143730397Y-114368292D01*
X143797329Y-114493514D01*
X144041298Y-114565097D01*
X144854395Y-113752000D01*
X145213605Y-113752000D01*
X146026702Y-114565097D01*
X146270671Y-114493514D01*
X146391571Y-114238004D01*
X146460300Y-113963816D01*
X146474217Y-113681488D01*
X146432787Y-113401870D01*
X146337603Y-113135708D01*
X146270671Y-113010486D01*
X146026702Y-112938903D01*
X145213605Y-113752000D01*
X144854395Y-113752000D01*
X144041298Y-112938903D01*
X143797329Y-113010486D01*
X143676429Y-113265996D01*
X143607700Y-113540184D01*
X143593783Y-113822512D01*
X110006709Y-113822512D01*
X108928902Y-112724602D01*
X108905898Y-112697415D01*
X107861984Y-111110665D01*
X143599000Y-111110665D01*
X143599000Y-111393335D01*
X143654147Y-111670574D01*
X143762320Y-111931727D01*
X143919363Y-112166759D01*
X144119241Y-112366637D01*
X144319869Y-112500692D01*
X144292486Y-112515329D01*
X144220903Y-112759298D01*
X145034000Y-113572395D01*
X145847097Y-112759298D01*
X145775514Y-112515329D01*
X145746659Y-112501676D01*
X145948759Y-112366637D01*
X146148637Y-112166759D01*
X146305680Y-111931727D01*
X146413853Y-111670574D01*
X146469000Y-111393335D01*
X146469000Y-111110665D01*
X146413853Y-110833426D01*
X146305680Y-110572273D01*
X146148637Y-110337241D01*
X145948759Y-110137363D01*
X145713727Y-109980320D01*
X145452574Y-109872147D01*
X145175335Y-109817000D01*
X144892665Y-109817000D01*
X144615426Y-109872147D01*
X144354273Y-109980320D01*
X144119241Y-110137363D01*
X143919363Y-110337241D01*
X143762320Y-110572273D01*
X143654147Y-110833426D01*
X143599000Y-111110665D01*
X107861984Y-111110665D01*
X104064641Y-105338704D01*
X103400185Y-103795418D01*
X102926467Y-102424217D01*
X101530415Y-95094942D01*
X101525558Y-94963580D01*
X122386025Y-94963580D01*
X122842197Y-95535185D01*
X123642183Y-95975207D01*
X124512641Y-96250704D01*
X125420121Y-96351091D01*
X126329748Y-96272508D01*
X127206566Y-96017975D01*
X128016879Y-95597275D01*
X128109803Y-95535185D01*
X128565975Y-94963580D01*
X125476000Y-91873605D01*
X122386025Y-94963580D01*
X101525558Y-94963580D01*
X101470404Y-93472000D01*
X101519968Y-92131585D01*
X102194987Y-89094000D01*
X109387928Y-89094000D01*
X109387928Y-94294000D01*
X109400188Y-94418482D01*
X109436498Y-94538180D01*
X109495463Y-94648494D01*
X109574815Y-94745185D01*
X109671506Y-94824537D01*
X109781820Y-94883502D01*
X109901518Y-94919812D01*
X110026000Y-94932072D01*
X115526000Y-94932072D01*
X115650482Y-94919812D01*
X115770180Y-94883502D01*
X115880494Y-94824537D01*
X115977185Y-94745185D01*
X116056537Y-94648494D01*
X116115502Y-94538180D01*
X116151812Y-94418482D01*
X116164072Y-94294000D01*
X116164072Y-91638121D01*
X120818909Y-91638121D01*
X120897492Y-92547748D01*
X121152025Y-93424566D01*
X121572725Y-94234879D01*
X121634815Y-94327803D01*
X122206420Y-94783975D01*
X125296395Y-91694000D01*
X125655605Y-91694000D01*
X128745580Y-94783975D01*
X129317185Y-94327803D01*
X129757207Y-93527817D01*
X130032704Y-92657359D01*
X130133091Y-91749879D01*
X130054508Y-90840252D01*
X129799975Y-89963434D01*
X129379275Y-89153121D01*
X129317185Y-89060197D01*
X128745580Y-88604025D01*
X125655605Y-91694000D01*
X125296395Y-91694000D01*
X122206420Y-88604025D01*
X121634815Y-89060197D01*
X121194793Y-89860183D01*
X120919296Y-90730641D01*
X120818909Y-91638121D01*
X116164072Y-91638121D01*
X116164072Y-89094000D01*
X116151812Y-88969518D01*
X116115502Y-88849820D01*
X116056537Y-88739506D01*
X115977185Y-88642815D01*
X115880494Y-88563463D01*
X115770180Y-88504498D01*
X115650482Y-88468188D01*
X115526000Y-88455928D01*
X113601500Y-88455928D01*
X113601500Y-88424420D01*
X122386025Y-88424420D01*
X125476000Y-91514395D01*
X128565975Y-88424420D01*
X128109803Y-87852815D01*
X127309817Y-87412793D01*
X126439359Y-87137296D01*
X125531879Y-87036909D01*
X124622252Y-87115492D01*
X123745434Y-87370025D01*
X122935121Y-87790725D01*
X122842197Y-87852815D01*
X122386025Y-88424420D01*
X113601500Y-88424420D01*
X113601500Y-83156732D01*
X120075134Y-76683100D01*
X120255616Y-76719000D01*
X120557984Y-76719000D01*
X120738468Y-76683100D01*
X125077607Y-81022240D01*
X125103459Y-81053741D01*
X125144717Y-81087600D01*
X125229157Y-81156899D01*
X125326191Y-81208765D01*
X125372566Y-81233553D01*
X125528174Y-81280756D01*
X125649447Y-81292700D01*
X125649449Y-81292700D01*
X125689999Y-81296694D01*
X125730550Y-81292700D01*
X135090868Y-81292700D01*
X137350500Y-83552334D01*
X137350501Y-84541438D01*
X137350500Y-84541448D01*
X137350501Y-88505928D01*
X135476000Y-88505928D01*
X135351518Y-88518188D01*
X135231820Y-88554498D01*
X135121506Y-88613463D01*
X135024815Y-88692815D01*
X134945463Y-88789506D01*
X134886498Y-88899820D01*
X134850188Y-89019518D01*
X134837928Y-89144000D01*
X134837928Y-94244000D01*
X134850188Y-94368482D01*
X134886498Y-94488180D01*
X134945463Y-94598494D01*
X135024815Y-94695185D01*
X135121506Y-94774537D01*
X135231820Y-94833502D01*
X135351518Y-94869812D01*
X135476000Y-94882072D01*
X140876000Y-94882072D01*
X141000482Y-94869812D01*
X141120180Y-94833502D01*
X141230494Y-94774537D01*
X141327185Y-94695185D01*
X141406537Y-94598494D01*
X141465502Y-94488180D01*
X141501812Y-94368482D01*
X141514072Y-94244000D01*
X141514072Y-89144000D01*
X141501812Y-89019518D01*
X141465502Y-88899820D01*
X141406537Y-88789506D01*
X141327185Y-88692815D01*
X141230494Y-88613463D01*
X141120180Y-88554498D01*
X141000482Y-88518188D01*
X140876000Y-88505928D01*
X139001500Y-88505928D01*
X139001500Y-83250950D01*
X139005494Y-83210400D01*
X139001500Y-83169847D01*
X138989556Y-83048574D01*
X138942353Y-82892966D01*
X138900572Y-82814800D01*
X138865699Y-82749557D01*
X138788392Y-82655358D01*
X138788389Y-82655355D01*
X138762541Y-82623859D01*
X138731046Y-82598012D01*
X136257332Y-80124300D01*
X141440868Y-80124300D01*
X142430500Y-81113933D01*
X142430501Y-91653440D01*
X142426506Y-91694000D01*
X142430500Y-91734551D01*
X142430501Y-94955438D01*
X142430500Y-94955447D01*
X142426506Y-94996000D01*
X142430500Y-95036550D01*
X142430501Y-104728040D01*
X142426506Y-104768600D01*
X142442445Y-104930426D01*
X142489647Y-105086033D01*
X142566301Y-105229442D01*
X142626627Y-105302949D01*
X142669460Y-105355141D01*
X142700961Y-105380993D01*
X143196173Y-105876206D01*
X143192057Y-105918000D01*
X143219764Y-106199309D01*
X143301818Y-106469808D01*
X143435068Y-106719101D01*
X143614392Y-106937608D01*
X143832899Y-107116932D01*
X144082192Y-107250182D01*
X144352691Y-107332236D01*
X144563508Y-107353000D01*
X145504492Y-107353000D01*
X145715309Y-107332236D01*
X145985808Y-107250182D01*
X146235101Y-107116932D01*
X146453608Y-106937608D01*
X146632932Y-106719101D01*
X146766182Y-106469808D01*
X146848236Y-106199309D01*
X146875943Y-105918000D01*
X146848236Y-105636691D01*
X146766182Y-105366192D01*
X146632932Y-105116899D01*
X146453608Y-104898392D01*
X146235101Y-104719068D01*
X146102142Y-104648000D01*
X146235101Y-104576932D01*
X146453608Y-104397608D01*
X146632932Y-104179101D01*
X146766182Y-103929808D01*
X146848236Y-103659309D01*
X146875943Y-103378000D01*
X146848236Y-103096691D01*
X146766182Y-102826192D01*
X146632932Y-102576899D01*
X146453608Y-102358392D01*
X146235101Y-102179068D01*
X146102142Y-102108000D01*
X146235101Y-102036932D01*
X146453608Y-101857608D01*
X146632932Y-101639101D01*
X146766182Y-101389808D01*
X146848236Y-101119309D01*
X146875943Y-100838000D01*
X146848236Y-100556691D01*
X146766182Y-100286192D01*
X146632932Y-100036899D01*
X146453608Y-99818392D01*
X146340518Y-99725581D01*
X146358482Y-99723812D01*
X146478180Y-99687502D01*
X146588494Y-99628537D01*
X146685185Y-99549185D01*
X146764537Y-99452494D01*
X146823502Y-99342180D01*
X146859812Y-99222482D01*
X146872072Y-99098000D01*
X146869000Y-98583750D01*
X146710250Y-98425000D01*
X145161000Y-98425000D01*
X145161000Y-98445000D01*
X144907000Y-98445000D01*
X144907000Y-98425000D01*
X144887000Y-98425000D01*
X144887000Y-98171000D01*
X144907000Y-98171000D01*
X144907000Y-98151000D01*
X145161000Y-98151000D01*
X145161000Y-98171000D01*
X146710250Y-98171000D01*
X146869000Y-98012250D01*
X146872072Y-97498000D01*
X146859812Y-97373518D01*
X146823502Y-97253820D01*
X146764537Y-97143506D01*
X146721857Y-97091500D01*
X151296068Y-97091500D01*
X151370917Y-97166349D01*
X151234392Y-97278392D01*
X151055068Y-97496899D01*
X150921818Y-97746192D01*
X150839764Y-98016691D01*
X150812057Y-98298000D01*
X150839764Y-98579309D01*
X150921818Y-98849808D01*
X151055068Y-99099101D01*
X151234392Y-99317608D01*
X151452899Y-99496932D01*
X151585858Y-99568000D01*
X151452899Y-99639068D01*
X151234392Y-99818392D01*
X151055068Y-100036899D01*
X150921818Y-100286192D01*
X150839764Y-100556691D01*
X150812057Y-100838000D01*
X150839764Y-101119309D01*
X150921818Y-101389808D01*
X151055068Y-101639101D01*
X151234392Y-101857608D01*
X151452899Y-102036932D01*
X151585858Y-102108000D01*
X151452899Y-102179068D01*
X151234392Y-102358392D01*
X151055068Y-102576899D01*
X150921818Y-102826192D01*
X150839764Y-103096691D01*
X150812057Y-103378000D01*
X150839764Y-103659309D01*
X150921818Y-103929808D01*
X151055068Y-104179101D01*
X151234392Y-104397608D01*
X151452899Y-104576932D01*
X151585858Y-104648000D01*
X151452899Y-104719068D01*
X151234392Y-104898392D01*
X151055068Y-105116899D01*
X150921818Y-105366192D01*
X150839764Y-105636691D01*
X150812057Y-105918000D01*
X150839764Y-106199309D01*
X150921818Y-106469808D01*
X151055068Y-106719101D01*
X151234392Y-106937608D01*
X151452899Y-107116932D01*
X151702192Y-107250182D01*
X151972691Y-107332236D01*
X152183508Y-107353000D01*
X153124492Y-107353000D01*
X153335309Y-107332236D01*
X153605808Y-107250182D01*
X153855101Y-107116932D01*
X154073608Y-106937608D01*
X154252932Y-106719101D01*
X154386182Y-106469808D01*
X154468236Y-106199309D01*
X154495943Y-105918000D01*
X154468236Y-105636691D01*
X154386182Y-105366192D01*
X154252932Y-105116899D01*
X154073608Y-104898392D01*
X153855101Y-104719068D01*
X153722142Y-104648000D01*
X153855101Y-104576932D01*
X154073608Y-104397608D01*
X154252932Y-104179101D01*
X154386182Y-103929808D01*
X154468236Y-103659309D01*
X154495943Y-103378000D01*
X154468236Y-103096691D01*
X154386182Y-102826192D01*
X154252932Y-102576899D01*
X154073608Y-102358392D01*
X153855101Y-102179068D01*
X153722142Y-102108000D01*
X153855101Y-102036932D01*
X154073608Y-101857608D01*
X154252932Y-101639101D01*
X154386182Y-101389808D01*
X154468236Y-101119309D01*
X154495943Y-100838000D01*
X154468236Y-100556691D01*
X154386182Y-100286192D01*
X154252932Y-100036899D01*
X154073608Y-99818392D01*
X153855101Y-99639068D01*
X153722142Y-99568000D01*
X153855101Y-99496932D01*
X154073608Y-99317608D01*
X154252932Y-99099101D01*
X154386182Y-98849808D01*
X154468236Y-98579309D01*
X154495943Y-98298000D01*
X154468236Y-98016691D01*
X154386182Y-97746192D01*
X154252932Y-97496899D01*
X154073608Y-97278392D01*
X153855101Y-97099068D01*
X153605808Y-96965818D01*
X153385263Y-96898917D01*
X153374291Y-96878391D01*
X153343699Y-96821157D01*
X153266391Y-96726958D01*
X153240541Y-96695459D01*
X153209040Y-96669607D01*
X152250398Y-95710966D01*
X152224541Y-95679459D01*
X152098842Y-95576301D01*
X151955434Y-95499647D01*
X151799826Y-95452444D01*
X151678553Y-95440500D01*
X151678550Y-95440500D01*
X151638000Y-95436506D01*
X151597450Y-95440500D01*
X144867933Y-95440500D01*
X144081500Y-94654068D01*
X144081500Y-94548896D01*
X144119241Y-94586637D01*
X144354273Y-94743680D01*
X144615426Y-94851853D01*
X144892665Y-94907000D01*
X145175335Y-94907000D01*
X145452574Y-94851853D01*
X145713727Y-94743680D01*
X145948759Y-94586637D01*
X146148637Y-94386759D01*
X146305680Y-94151727D01*
X146413853Y-93890574D01*
X146469000Y-93613335D01*
X146469000Y-93330665D01*
X146461422Y-93292565D01*
X151219000Y-93292565D01*
X151219000Y-93575235D01*
X151274147Y-93852474D01*
X151382320Y-94113627D01*
X151539363Y-94348659D01*
X151739241Y-94548537D01*
X151974273Y-94705580D01*
X152235426Y-94813753D01*
X152512665Y-94868900D01*
X152795335Y-94868900D01*
X153072574Y-94813753D01*
X153333727Y-94705580D01*
X153568759Y-94548537D01*
X153768637Y-94348659D01*
X153925680Y-94113627D01*
X154033853Y-93852474D01*
X154089000Y-93575235D01*
X154089000Y-93292565D01*
X154033853Y-93015326D01*
X153925680Y-92754173D01*
X153768637Y-92519141D01*
X153568759Y-92319263D01*
X153333727Y-92162220D01*
X153072574Y-92054047D01*
X152795335Y-91998900D01*
X152512665Y-91998900D01*
X152235426Y-92054047D01*
X151974273Y-92162220D01*
X151739241Y-92319263D01*
X151539363Y-92519141D01*
X151382320Y-92754173D01*
X151274147Y-93015326D01*
X151219000Y-93292565D01*
X146461422Y-93292565D01*
X146413853Y-93053426D01*
X146305680Y-92792273D01*
X146148637Y-92557241D01*
X145948759Y-92357363D01*
X145713727Y-92200320D01*
X145452574Y-92092147D01*
X145175335Y-92037000D01*
X144892665Y-92037000D01*
X144787376Y-92057943D01*
X144081500Y-91352068D01*
X144081500Y-84388896D01*
X144119241Y-84426637D01*
X144354273Y-84583680D01*
X144615426Y-84691853D01*
X144892665Y-84747000D01*
X145175335Y-84747000D01*
X145452574Y-84691853D01*
X145713727Y-84583680D01*
X145948759Y-84426637D01*
X146148637Y-84226759D01*
X146305680Y-83991727D01*
X146413853Y-83730574D01*
X146469000Y-83453335D01*
X146469000Y-83170665D01*
X146461422Y-83132565D01*
X151219000Y-83132565D01*
X151219000Y-83415235D01*
X151274147Y-83692474D01*
X151382320Y-83953627D01*
X151539363Y-84188659D01*
X151739241Y-84388537D01*
X151974273Y-84545580D01*
X152235426Y-84653753D01*
X152512665Y-84708900D01*
X152795335Y-84708900D01*
X153072574Y-84653753D01*
X153333727Y-84545580D01*
X153568759Y-84388537D01*
X153768637Y-84188659D01*
X153925680Y-83953627D01*
X154033853Y-83692474D01*
X154089000Y-83415235D01*
X154089000Y-83132565D01*
X154033853Y-82855326D01*
X153925680Y-82594173D01*
X153768637Y-82359141D01*
X153568759Y-82159263D01*
X153333727Y-82002220D01*
X153072574Y-81894047D01*
X152795335Y-81838900D01*
X152512665Y-81838900D01*
X152235426Y-81894047D01*
X151974273Y-82002220D01*
X151739241Y-82159263D01*
X151539363Y-82359141D01*
X151382320Y-82594173D01*
X151274147Y-82855326D01*
X151219000Y-83132565D01*
X146461422Y-83132565D01*
X146413853Y-82893426D01*
X146305680Y-82632273D01*
X146148637Y-82397241D01*
X145948759Y-82197363D01*
X145773565Y-82080302D01*
X147980103Y-82080302D01*
X148051686Y-82324271D01*
X148307196Y-82445171D01*
X148581384Y-82513900D01*
X148863712Y-82527817D01*
X149143330Y-82486387D01*
X149409492Y-82391203D01*
X149534714Y-82324271D01*
X149606297Y-82080302D01*
X148793200Y-81267205D01*
X147980103Y-82080302D01*
X145773565Y-82080302D01*
X145713727Y-82040320D01*
X145452574Y-81932147D01*
X145175335Y-81877000D01*
X144892665Y-81877000D01*
X144615426Y-81932147D01*
X144354273Y-82040320D01*
X144119241Y-82197363D01*
X144081500Y-82235104D01*
X144081500Y-81158112D01*
X147352983Y-81158112D01*
X147394413Y-81437730D01*
X147489597Y-81703892D01*
X147556529Y-81829114D01*
X147800498Y-81900697D01*
X148613595Y-81087600D01*
X148972805Y-81087600D01*
X149785902Y-81900697D01*
X150029871Y-81829114D01*
X150150771Y-81573604D01*
X150219500Y-81299416D01*
X150233417Y-81017088D01*
X150191987Y-80737470D01*
X150096803Y-80471308D01*
X150029871Y-80346086D01*
X149785902Y-80274503D01*
X148972805Y-81087600D01*
X148613595Y-81087600D01*
X147800498Y-80274503D01*
X147556529Y-80346086D01*
X147435629Y-80601596D01*
X147366900Y-80875784D01*
X147352983Y-81158112D01*
X144081500Y-81158112D01*
X144081500Y-80812542D01*
X144085493Y-80771999D01*
X144081500Y-80731456D01*
X144081500Y-80731447D01*
X144069556Y-80610174D01*
X144022353Y-80454566D01*
X143945699Y-80311158D01*
X143842541Y-80185459D01*
X143811041Y-80159608D01*
X143774693Y-80123260D01*
X143844941Y-80108489D01*
X143959974Y-80059364D01*
X144063214Y-79988740D01*
X144531782Y-79591555D01*
X144551349Y-79367903D01*
X143748346Y-78410922D01*
X143733026Y-78423777D01*
X143585241Y-78247654D01*
X143942922Y-78247654D01*
X144745924Y-79204635D01*
X144969576Y-79224202D01*
X145442094Y-78831723D01*
X145529572Y-78742315D01*
X145597926Y-78637560D01*
X145644530Y-78521482D01*
X145658640Y-78446265D01*
X147358200Y-78446265D01*
X147358200Y-78728935D01*
X147413347Y-79006174D01*
X147521520Y-79267327D01*
X147678563Y-79502359D01*
X147878441Y-79702237D01*
X148079069Y-79836292D01*
X148051686Y-79850929D01*
X147980103Y-80094898D01*
X148793200Y-80907995D01*
X149606297Y-80094898D01*
X149534714Y-79850929D01*
X149505859Y-79837276D01*
X149707959Y-79702237D01*
X149907837Y-79502359D01*
X150064880Y-79267327D01*
X150173053Y-79006174D01*
X150228200Y-78728935D01*
X150228200Y-78446265D01*
X150173053Y-78169026D01*
X150064880Y-77907873D01*
X149907837Y-77672841D01*
X149707959Y-77472963D01*
X149472927Y-77315920D01*
X149211774Y-77207747D01*
X148934535Y-77152600D01*
X148651865Y-77152600D01*
X148374626Y-77207747D01*
X148113473Y-77315920D01*
X147878441Y-77472963D01*
X147678563Y-77672841D01*
X147521520Y-77907873D01*
X147413347Y-78169026D01*
X147358200Y-78446265D01*
X145658640Y-78446265D01*
X145667593Y-78398543D01*
X145666228Y-78273467D01*
X145640489Y-78151059D01*
X145591364Y-78036026D01*
X145520740Y-77932786D01*
X145123555Y-77464218D01*
X144899903Y-77444651D01*
X143942922Y-78247654D01*
X143585241Y-78247654D01*
X143569757Y-78229202D01*
X143585078Y-78216346D01*
X143572223Y-78201026D01*
X143766798Y-78037757D01*
X143779654Y-78053078D01*
X144736635Y-77250076D01*
X144756202Y-77026424D01*
X144363723Y-76553906D01*
X144274315Y-76466428D01*
X144169560Y-76398074D01*
X144053482Y-76351470D01*
X143930543Y-76328407D01*
X143805467Y-76329772D01*
X143683059Y-76355511D01*
X143666319Y-76362660D01*
X143666319Y-76135063D01*
X143607330Y-75838504D01*
X143491618Y-75559152D01*
X143323631Y-75307742D01*
X143109824Y-75093935D01*
X142858414Y-74925948D01*
X142579062Y-74810236D01*
X142282503Y-74751247D01*
X141980135Y-74751247D01*
X141683576Y-74810236D01*
X141404224Y-74925948D01*
X141152814Y-75093935D01*
X140939007Y-75307742D01*
X140771020Y-75559152D01*
X140655308Y-75838504D01*
X140596319Y-76135063D01*
X140596319Y-76437431D01*
X140655308Y-76733990D01*
X140771020Y-77013342D01*
X140939007Y-77264752D01*
X141152814Y-77478559D01*
X141404224Y-77646546D01*
X141683576Y-77762258D01*
X141938824Y-77813030D01*
X141930074Y-77826440D01*
X141883470Y-77942518D01*
X141860407Y-78065457D01*
X141861772Y-78190533D01*
X141887511Y-78312941D01*
X141936636Y-78427974D01*
X141983979Y-78497182D01*
X141944626Y-78485244D01*
X141823353Y-78473300D01*
X141823350Y-78473300D01*
X141782800Y-78469306D01*
X141742250Y-78473300D01*
X137632146Y-78473300D01*
X137727053Y-78244174D01*
X137782200Y-77966935D01*
X137782200Y-77684265D01*
X137727053Y-77407026D01*
X137618880Y-77145873D01*
X137461837Y-76910841D01*
X137261959Y-76710963D01*
X137026927Y-76553920D01*
X136765774Y-76445747D01*
X136488535Y-76390600D01*
X136205865Y-76390600D01*
X135928626Y-76445747D01*
X135667473Y-76553920D01*
X135432441Y-76710963D01*
X135232563Y-76910841D01*
X135075520Y-77145873D01*
X134967347Y-77407026D01*
X134912200Y-77684265D01*
X134912200Y-77966935D01*
X134967347Y-78244174D01*
X135062254Y-78473300D01*
X131271497Y-78473300D01*
X131278979Y-78470201D01*
X131792446Y-78127114D01*
X132229114Y-77690446D01*
X132572201Y-77176979D01*
X132808524Y-76606446D01*
X132929000Y-76000771D01*
X132929000Y-75383229D01*
X132808524Y-74777554D01*
X132572201Y-74207021D01*
X132229114Y-73693554D01*
X131792446Y-73256886D01*
X131278979Y-72913799D01*
X130708446Y-72677476D01*
X130102771Y-72557000D01*
X129485229Y-72557000D01*
X128879554Y-72677476D01*
X128309021Y-72913799D01*
X127795554Y-73256886D01*
X127358886Y-73693554D01*
X127015799Y-74207021D01*
X126779476Y-74777554D01*
X126659000Y-75383229D01*
X126659000Y-76000771D01*
X126779476Y-76606446D01*
X127015799Y-77176979D01*
X127358886Y-77690446D01*
X127795554Y-78127114D01*
X128309021Y-78470201D01*
X128316503Y-78473300D01*
X127363533Y-78473300D01*
X124405900Y-75515668D01*
X124441800Y-75335184D01*
X124441800Y-75032816D01*
X124382811Y-74736257D01*
X124267099Y-74456905D01*
X124099112Y-74205495D01*
X123885305Y-73991688D01*
X123732300Y-73889453D01*
X123732300Y-73278547D01*
X123885305Y-73176312D01*
X124099112Y-72962505D01*
X124267099Y-72711095D01*
X124382811Y-72431743D01*
X124441800Y-72135184D01*
X124441800Y-71832816D01*
X124382811Y-71536257D01*
X124267099Y-71256905D01*
X124099112Y-71005495D01*
X123885305Y-70791688D01*
X123633895Y-70623701D01*
X123354543Y-70507989D01*
X123057984Y-70449000D01*
X122755616Y-70449000D01*
X122459057Y-70507989D01*
X122179705Y-70623701D01*
X121928295Y-70791688D01*
X121714488Y-71005495D01*
X121656800Y-71091831D01*
X121599112Y-71005495D01*
X121385305Y-70791688D01*
X121133895Y-70623701D01*
X120854543Y-70507989D01*
X120557984Y-70449000D01*
X120255616Y-70449000D01*
X119959057Y-70507989D01*
X119679705Y-70623701D01*
X119428295Y-70791688D01*
X119214488Y-71005495D01*
X119156800Y-71091831D01*
X119099112Y-71005495D01*
X118885305Y-70791688D01*
X118633895Y-70623701D01*
X118354543Y-70507989D01*
X118057984Y-70449000D01*
X117755616Y-70449000D01*
X117459057Y-70507989D01*
X117179705Y-70623701D01*
X116928295Y-70791688D01*
X116714488Y-71005495D01*
X116546501Y-71256905D01*
X116430789Y-71536257D01*
X116371800Y-71832816D01*
X116371800Y-72135184D01*
X116430789Y-72431743D01*
X116546501Y-72711095D01*
X116714488Y-72962505D01*
X116928295Y-73176312D01*
X117179705Y-73344299D01*
X117459057Y-73460011D01*
X117755616Y-73519000D01*
X118057984Y-73519000D01*
X118354543Y-73460011D01*
X118633895Y-73344299D01*
X118885305Y-73176312D01*
X119099112Y-72962505D01*
X119156800Y-72876169D01*
X119214488Y-72962505D01*
X119428295Y-73176312D01*
X119581300Y-73278547D01*
X119581300Y-73889453D01*
X119428295Y-73991688D01*
X119390680Y-74029303D01*
X119337337Y-73929506D01*
X119257985Y-73832815D01*
X119161294Y-73753463D01*
X119050980Y-73694498D01*
X118931282Y-73658188D01*
X118806800Y-73645928D01*
X117006800Y-73645928D01*
X116882318Y-73658188D01*
X116762620Y-73694498D01*
X116652306Y-73753463D01*
X116555615Y-73832815D01*
X116476263Y-73929506D01*
X116417298Y-74039820D01*
X116380988Y-74159518D01*
X116368728Y-74284000D01*
X116368728Y-76084000D01*
X116380988Y-76208482D01*
X116417298Y-76328180D01*
X116476263Y-76438494D01*
X116555615Y-76535185D01*
X116652306Y-76614537D01*
X116762620Y-76673502D01*
X116882318Y-76709812D01*
X117006800Y-76722072D01*
X117701295Y-76722072D01*
X112220961Y-82202407D01*
X112189460Y-82228259D01*
X112163609Y-82259759D01*
X112086301Y-82353958D01*
X112009647Y-82497367D01*
X111990266Y-82561260D01*
X111962444Y-82652974D01*
X111950500Y-82774247D01*
X111946506Y-82814800D01*
X111950500Y-82855350D01*
X111950500Y-83504952D01*
X111950501Y-83504962D01*
X111950500Y-88455928D01*
X110026000Y-88455928D01*
X109901518Y-88468188D01*
X109781820Y-88504498D01*
X109671506Y-88563463D01*
X109574815Y-88642815D01*
X109495463Y-88739506D01*
X109436498Y-88849820D01*
X109400188Y-88969518D01*
X109387928Y-89094000D01*
X102194987Y-89094000D01*
X103639937Y-82591727D01*
X104052663Y-81633117D01*
X108909349Y-74242507D01*
X108928902Y-74219398D01*
X110408428Y-72712275D01*
X110597768Y-72545970D01*
X117545033Y-67851872D01*
X127559000Y-67851872D01*
X127559000Y-68292128D01*
X127644890Y-68723925D01*
X127813369Y-69130669D01*
X128057962Y-69496729D01*
X128369271Y-69808038D01*
X128735331Y-70052631D01*
X129142075Y-70221110D01*
X129573872Y-70307000D01*
X130014128Y-70307000D01*
X130445925Y-70221110D01*
X130852669Y-70052631D01*
X131218729Y-69808038D01*
X131530038Y-69496729D01*
X131774631Y-69130669D01*
X131943110Y-68723925D01*
X132029000Y-68292128D01*
X132029000Y-67851872D01*
X131963835Y-67524265D01*
X134912200Y-67524265D01*
X134912200Y-67806935D01*
X134967347Y-68084174D01*
X135075520Y-68345327D01*
X135232563Y-68580359D01*
X135432441Y-68780237D01*
X135667473Y-68937280D01*
X135928626Y-69045453D01*
X136205865Y-69100600D01*
X136488535Y-69100600D01*
X136765774Y-69045453D01*
X137026927Y-68937280D01*
X137261959Y-68780237D01*
X137461837Y-68580359D01*
X137618880Y-68345327D01*
X137727053Y-68084174D01*
X137782200Y-67806935D01*
X137782200Y-67524265D01*
X137727053Y-67247026D01*
X137618880Y-66985873D01*
X137461837Y-66750841D01*
X137261959Y-66550963D01*
X137026927Y-66393920D01*
X136765774Y-66285747D01*
X136488535Y-66230600D01*
X136205865Y-66230600D01*
X135928626Y-66285747D01*
X135667473Y-66393920D01*
X135432441Y-66550963D01*
X135232563Y-66750841D01*
X135075520Y-66985873D01*
X134967347Y-67247026D01*
X134912200Y-67524265D01*
X131963835Y-67524265D01*
X131943110Y-67420075D01*
X131774631Y-67013331D01*
X131530038Y-66647271D01*
X131218729Y-66335962D01*
X130852669Y-66091369D01*
X130445925Y-65922890D01*
X130014128Y-65837000D01*
X129573872Y-65837000D01*
X129142075Y-65922890D01*
X128735331Y-66091369D01*
X128369271Y-66335962D01*
X128057962Y-66647271D01*
X127813369Y-67013331D01*
X127644890Y-67420075D01*
X127559000Y-67851872D01*
X117545033Y-67851872D01*
X117849588Y-67646092D01*
X119233922Y-67019501D01*
X120275357Y-66638026D01*
X128244504Y-64970065D01*
X129519917Y-64899284D01*
X131124563Y-64928941D01*
M02*
