M48
; DRILL file {KiCad (5.1.5)-3} date 4/16/2020 6:29:49 PM
; FORMAT={-:-/ absolute / inch / decimal}
; #@! TF.CreationDate,2020-04-16T18:29:49-07:00
; #@! TF.GenerationSoftware,Kicad,Pcbnew,(5.1.5)-3
; #@! TF.FileFunction,Plated,1,2,PTH
FMAT,2
INCH
T1C0.0315
T2C0.0354
%
G90
G05
T1
X5.71Y-3.28
X5.71Y-3.68
X5.71Y-4.38
X5.858Y-3.094
X5.858Y-3.1924
X5.71Y-3.87
X5.71Y-3.97
X5.71Y-4.07
X5.71Y-4.17
X6.01Y-3.87
X6.01Y-3.97
X6.01Y-4.07
X6.01Y-4.17
X5.368Y-2.664
X5.368Y-3.064
X5.71Y-4.4784
X6.01Y-3.2785
X6.01Y-3.6785
T2
X4.642Y-2.834
X4.642Y-2.96
X4.7404Y-2.834
X4.7404Y-2.96
X4.8389Y-2.834
X4.8389Y-2.96
X5.5957Y-3.0034
X5.66Y-3.08
T0
M30
