G04 #@! TF.GenerationSoftware,KiCad,Pcbnew,(5.1.5)-3*
G04 #@! TF.CreationDate,2020-04-16T18:29:44-07:00*
G04 #@! TF.ProjectId,E_Grrrl,455f4772-7272-46c2-9e6b-696361645f70,Version A2*
G04 #@! TF.SameCoordinates,Original*
G04 #@! TF.FileFunction,Copper,L1,Top*
G04 #@! TF.FilePolarity,Positive*
%FSLAX46Y46*%
G04 Gerber Fmt 4.6, Leading zero omitted, Abs format (unit mm)*
G04 Created by KiCad (PCBNEW (5.1.5)-3) date 2020-04-16 18:29:44*
%MOMM*%
%LPD*%
G04 APERTURE LIST*
%ADD10C,0.010000*%
%ADD11C,1.600000*%
%ADD12C,0.100000*%
%ADD13C,1.800000*%
%ADD14R,2.400000X1.600000*%
%ADD15O,2.400000X1.600000*%
%ADD16O,1.600000X1.600000*%
%ADD17R,1.800000X1.800000*%
%ADD18C,0.381000*%
G04 APERTURE END LIST*
D10*
G36*
X117723203Y-80299032D02*
G01*
X118056421Y-80395346D01*
X118274384Y-80539766D01*
X118304707Y-80579717D01*
X118431336Y-80677852D01*
X118482252Y-80687333D01*
X118621039Y-80739041D01*
X118785307Y-80854909D01*
X118941077Y-80961233D01*
X119044480Y-80981722D01*
X119044545Y-80981682D01*
X119120213Y-81003371D01*
X119260346Y-81134612D01*
X119476271Y-81387129D01*
X119661040Y-81619811D01*
X119783149Y-81821337D01*
X119929494Y-82127926D01*
X120081715Y-82492063D01*
X120221451Y-82866234D01*
X120330339Y-83202924D01*
X120390018Y-83454620D01*
X120396000Y-83521688D01*
X120467183Y-83775946D01*
X120658714Y-84058058D01*
X120937562Y-84324115D01*
X121071526Y-84419703D01*
X121303138Y-84592201D01*
X121429116Y-84734270D01*
X121441350Y-84796970D01*
X121476056Y-84894513D01*
X121596027Y-84935096D01*
X121771437Y-85029068D01*
X121820055Y-85153500D01*
X121874719Y-85302403D01*
X121935759Y-85344000D01*
X121989069Y-85274103D01*
X121985422Y-85140063D01*
X121985073Y-84990157D01*
X122045618Y-84974185D01*
X122188345Y-84971191D01*
X122392226Y-84910547D01*
X122392233Y-84910544D01*
X122599355Y-84843491D01*
X122662425Y-84836000D01*
X124587000Y-84836000D01*
X124616975Y-84898782D01*
X124751337Y-84920667D01*
X124912827Y-84892294D01*
X124968000Y-84836000D01*
X124897311Y-84766528D01*
X124803664Y-84751333D01*
X124641582Y-84790211D01*
X124587000Y-84836000D01*
X122662425Y-84836000D01*
X122745500Y-84826133D01*
X122842784Y-84785727D01*
X122851334Y-84750724D01*
X122924681Y-84655441D01*
X123104383Y-84555224D01*
X123329930Y-84473951D01*
X123540814Y-84435499D01*
X123632885Y-84442311D01*
X123752220Y-84442480D01*
X123752873Y-84372480D01*
X123790941Y-84280509D01*
X123965155Y-84214318D01*
X124244453Y-84172959D01*
X124597772Y-84155481D01*
X124994047Y-84160937D01*
X125402215Y-84188377D01*
X125791214Y-84236852D01*
X126129979Y-84305413D01*
X126387447Y-84393111D01*
X126492000Y-84456163D01*
X126644331Y-84534317D01*
X126894633Y-84619831D01*
X127063500Y-84664342D01*
X127322384Y-84733543D01*
X127455286Y-84804797D01*
X127503117Y-84908805D01*
X127508000Y-84997937D01*
X127431694Y-85248073D01*
X127254000Y-85471000D01*
X127059068Y-85712446D01*
X127000519Y-85943122D01*
X127084401Y-86173008D01*
X127316761Y-86412081D01*
X127703647Y-86670322D01*
X128114163Y-86890264D01*
X128502890Y-87098716D01*
X128884717Y-87326855D01*
X129200871Y-87538640D01*
X129316386Y-87627495D01*
X129538103Y-87804088D01*
X129707589Y-87925664D01*
X129782052Y-87964002D01*
X129852256Y-87897880D01*
X129855159Y-87894367D01*
X130471334Y-87894367D01*
X130521129Y-87965680D01*
X130637207Y-87924559D01*
X130727032Y-87839620D01*
X130792307Y-87711738D01*
X130781778Y-87658222D01*
X130687524Y-87661684D01*
X130562746Y-87746905D01*
X130478285Y-87860002D01*
X130471334Y-87894367D01*
X129855159Y-87894367D01*
X129995731Y-87724302D01*
X130110239Y-87575007D01*
X130907560Y-87575007D01*
X130956942Y-87629785D01*
X130963220Y-87630000D01*
X131061052Y-87562160D01*
X131097333Y-87495925D01*
X131099629Y-87396670D01*
X131048183Y-87395383D01*
X130946641Y-87472940D01*
X130907560Y-87575007D01*
X130110239Y-87575007D01*
X130187772Y-87473921D01*
X130302000Y-87318905D01*
X130360055Y-87242317D01*
X131318000Y-87242317D01*
X131369794Y-87246713D01*
X131496263Y-87153061D01*
X131513957Y-87136758D01*
X131680231Y-87007262D01*
X131806794Y-86952673D01*
X131807633Y-86952667D01*
X131867874Y-86891325D01*
X131857005Y-86826674D01*
X131801053Y-86767314D01*
X131695130Y-86816884D01*
X131563329Y-86932233D01*
X131407111Y-87097774D01*
X131322793Y-87222353D01*
X131318000Y-87242317D01*
X130360055Y-87242317D01*
X130763730Y-86709779D01*
X131174003Y-86234819D01*
X131448462Y-85979000D01*
X132785556Y-85979000D01*
X132824377Y-86080365D01*
X132862461Y-86085068D01*
X132938371Y-85992237D01*
X132939367Y-85979000D01*
X132874800Y-85878086D01*
X132862461Y-85872931D01*
X132795715Y-85917166D01*
X132785556Y-85979000D01*
X131448462Y-85979000D01*
X131557795Y-85877093D01*
X131940085Y-85619666D01*
X132345851Y-85445606D01*
X132800070Y-85337978D01*
X132993972Y-85316304D01*
X134063941Y-85316304D01*
X134130323Y-85409141D01*
X134199006Y-85428667D01*
X134241385Y-85366442D01*
X134227471Y-85302153D01*
X134147124Y-85216611D01*
X134101747Y-85223336D01*
X134063941Y-85316304D01*
X132993972Y-85316304D01*
X133307667Y-85281240D01*
X133804643Y-85218098D01*
X134142409Y-85109001D01*
X134325256Y-84952052D01*
X134363340Y-84814833D01*
X134407933Y-84689139D01*
X134455664Y-84666666D01*
X134502136Y-84720279D01*
X134484108Y-84765721D01*
X134479960Y-84829809D01*
X134558308Y-84812811D01*
X134691405Y-84816817D01*
X134730946Y-84861923D01*
X134807254Y-84868763D01*
X134969609Y-84760683D01*
X135109416Y-84636129D01*
X135332728Y-84433865D01*
X135533210Y-84271636D01*
X135619966Y-84212796D01*
X135849354Y-84071040D01*
X136141501Y-83875385D01*
X136455633Y-83655027D01*
X136750972Y-83439160D01*
X136986743Y-83256981D01*
X137122169Y-83137683D01*
X137123337Y-83136401D01*
X137259635Y-83013200D01*
X137342456Y-82973333D01*
X137452654Y-82920860D01*
X137571236Y-82825166D01*
X137726590Y-82692461D01*
X137958408Y-82509212D01*
X138128447Y-82380667D01*
X138381080Y-82188310D01*
X138601966Y-82011334D01*
X138700420Y-81926625D01*
X138867216Y-81801046D01*
X139103139Y-81655249D01*
X139364223Y-81512214D01*
X139606500Y-81394925D01*
X139786001Y-81326363D01*
X139855662Y-81322773D01*
X139821586Y-81396476D01*
X139684147Y-81540178D01*
X139476622Y-81723860D01*
X139232286Y-81917499D01*
X139058482Y-82042000D01*
X138911123Y-82148409D01*
X138670595Y-82328556D01*
X138377262Y-82552050D01*
X138215073Y-82677000D01*
X137903011Y-82917423D01*
X137615778Y-83137034D01*
X137396994Y-83302551D01*
X137327299Y-83354333D01*
X136875316Y-83689754D01*
X136467841Y-83999991D01*
X136127533Y-84267215D01*
X135877046Y-84473598D01*
X135739039Y-84601312D01*
X135731467Y-84610072D01*
X135593230Y-84725103D01*
X135511755Y-84751333D01*
X135380645Y-84808965D01*
X135261374Y-84913623D01*
X135164060Y-85073299D01*
X135200742Y-85236744D01*
X135207860Y-85250352D01*
X135246980Y-85368228D01*
X135199814Y-85474466D01*
X135041234Y-85612158D01*
X134963455Y-85669464D01*
X134779783Y-85819279D01*
X134682400Y-85932646D01*
X134679291Y-85967735D01*
X134659411Y-86012796D01*
X134591778Y-86021333D01*
X134470413Y-86068032D01*
X134450667Y-86116367D01*
X134408998Y-86160504D01*
X134322623Y-86105133D01*
X134241874Y-85986847D01*
X134245563Y-85979000D01*
X134281334Y-85979000D01*
X134323667Y-86021333D01*
X134366000Y-85979000D01*
X134323667Y-85936667D01*
X134281334Y-85979000D01*
X134245563Y-85979000D01*
X134290656Y-85883100D01*
X134327261Y-85802642D01*
X134235785Y-85770760D01*
X134125024Y-85767333D01*
X133947134Y-85785176D01*
X133902605Y-85853918D01*
X133917379Y-85908222D01*
X133928473Y-86003781D01*
X133880284Y-85992772D01*
X133820245Y-86003086D01*
X133828697Y-86087754D01*
X133804157Y-86219128D01*
X133641263Y-86344798D01*
X133560986Y-86385607D01*
X133348362Y-86467338D01*
X133197576Y-86490283D01*
X133174852Y-86483406D01*
X133105888Y-86504299D01*
X133096000Y-86557611D01*
X133164664Y-86691211D01*
X133229925Y-86731941D01*
X133421691Y-86780929D01*
X133489410Y-86738826D01*
X133468423Y-86677500D01*
X133449337Y-86616444D01*
X133475036Y-86632665D01*
X133583469Y-86632140D01*
X133753859Y-86547465D01*
X133763776Y-86540714D01*
X134006392Y-86378759D01*
X134140649Y-86307020D01*
X134192780Y-86312956D01*
X134196515Y-86333836D01*
X134130728Y-86414074D01*
X133962353Y-86545242D01*
X133823903Y-86637635D01*
X133605871Y-86785393D01*
X133501910Y-86903766D01*
X133479136Y-87047491D01*
X133493286Y-87187968D01*
X133497402Y-87404618D01*
X133437450Y-87630921D01*
X133296752Y-87922299D01*
X133243518Y-88017974D01*
X132993186Y-88446899D01*
X132758888Y-88824176D01*
X132556654Y-89125962D01*
X132402510Y-89328411D01*
X132312483Y-89407679D01*
X132309193Y-89408000D01*
X132275185Y-89459953D01*
X132286696Y-89484624D01*
X132263163Y-89586461D01*
X132152390Y-89767461D01*
X132037667Y-89916000D01*
X131883172Y-90127528D01*
X131799870Y-90295732D01*
X131797530Y-90361764D01*
X131792039Y-90416958D01*
X131712889Y-90398712D01*
X131597820Y-90400092D01*
X131572000Y-90501916D01*
X131632572Y-90630392D01*
X131716923Y-90647426D01*
X131850770Y-90708915D01*
X131894997Y-90805000D01*
X131978980Y-91009446D01*
X132054702Y-91117165D01*
X132135853Y-91259921D01*
X132133081Y-91337944D01*
X132123029Y-91464759D01*
X132161866Y-91672542D01*
X132170593Y-91703112D01*
X132245496Y-92004071D01*
X132297129Y-92286667D01*
X132345515Y-92491363D01*
X132410775Y-92605941D01*
X132420656Y-92611222D01*
X132473653Y-92705611D01*
X132501899Y-92904603D01*
X132503334Y-92965544D01*
X132528200Y-93252647D01*
X132588711Y-93512426D01*
X132595168Y-93529988D01*
X132660953Y-93743079D01*
X132743555Y-94069806D01*
X132830970Y-94456942D01*
X132911197Y-94851261D01*
X132972232Y-95199536D01*
X132973481Y-95207667D01*
X133020354Y-95442472D01*
X133094421Y-95745209D01*
X133132568Y-95885000D01*
X133282417Y-96491367D01*
X133374028Y-97036814D01*
X133392670Y-97239667D01*
X133422742Y-97468480D01*
X133465619Y-97622993D01*
X133508009Y-97784336D01*
X133545586Y-98033997D01*
X133555281Y-98130993D01*
X133593536Y-98452542D01*
X133651806Y-98816033D01*
X133677040Y-98947730D01*
X133738742Y-99299018D01*
X133794378Y-99696375D01*
X133814750Y-99879064D01*
X133853466Y-100237047D01*
X133904193Y-100657576D01*
X133944512Y-100965000D01*
X134049821Y-101797853D01*
X134132135Y-102586761D01*
X134152983Y-102827667D01*
X134222533Y-103707515D01*
X134274735Y-104436669D01*
X134308799Y-105032957D01*
X134323938Y-105514207D01*
X134319364Y-105898246D01*
X134294289Y-106202903D01*
X134247924Y-106446004D01*
X134179480Y-106645379D01*
X134088171Y-106818854D01*
X133973207Y-106984257D01*
X133968958Y-106989840D01*
X133770443Y-107176046D01*
X133449228Y-107394718D01*
X133043468Y-107625410D01*
X132591318Y-107847677D01*
X132130931Y-108041073D01*
X131783667Y-108160857D01*
X131503829Y-108252985D01*
X131288177Y-108336958D01*
X131195234Y-108386611D01*
X131052911Y-108443203D01*
X130914501Y-108458000D01*
X130691303Y-108490188D01*
X130571323Y-108534466D01*
X130445783Y-108577212D01*
X130184054Y-108649379D01*
X129815222Y-108743531D01*
X129368372Y-108852228D01*
X128904723Y-108960667D01*
X128227724Y-109116450D01*
X127697084Y-109239742D01*
X127293983Y-109335340D01*
X126999601Y-109408037D01*
X126795118Y-109462629D01*
X126661717Y-109503910D01*
X126580576Y-109536675D01*
X126534334Y-109564605D01*
X126425881Y-109620591D01*
X126407334Y-109621826D01*
X126276943Y-109634293D01*
X126050660Y-109684533D01*
X125776683Y-109758370D01*
X125503209Y-109841630D01*
X125278436Y-109920137D01*
X125150562Y-109979714D01*
X125137334Y-109995345D01*
X125181640Y-110093597D01*
X125302139Y-110301278D01*
X125480199Y-110587522D01*
X125687667Y-110907078D01*
X125903069Y-111237620D01*
X126078938Y-111516843D01*
X126196741Y-111714670D01*
X126238000Y-111800225D01*
X126270196Y-111912119D01*
X126348805Y-112103979D01*
X126359747Y-112128204D01*
X126606758Y-112842789D01*
X126733074Y-113610964D01*
X126746000Y-113934367D01*
X126741808Y-114254289D01*
X126722766Y-114440442D01*
X126679177Y-114528312D01*
X126601343Y-114553384D01*
X126576667Y-114554000D01*
X126476926Y-114532665D01*
X126425809Y-114441434D01*
X126407641Y-114239468D01*
X126406059Y-114109500D01*
X126329608Y-113494636D01*
X126099950Y-112925395D01*
X125711107Y-112389713D01*
X125400899Y-112081185D01*
X125050669Y-111781647D01*
X124705709Y-111524466D01*
X124343158Y-111299927D01*
X123940150Y-111098315D01*
X123473824Y-110909918D01*
X122921315Y-110725021D01*
X122259761Y-110533909D01*
X121466297Y-110326868D01*
X120999098Y-110210942D01*
X120595439Y-110140555D01*
X120324987Y-110163371D01*
X120177767Y-110282191D01*
X120142000Y-110451850D01*
X120105150Y-110625834D01*
X120018301Y-110792117D01*
X119917010Y-110897530D01*
X119843975Y-110897530D01*
X119795384Y-110776327D01*
X119773552Y-110622556D01*
X119733597Y-110446683D01*
X119660971Y-110417688D01*
X119583877Y-110545702D01*
X119581332Y-110553500D01*
X119507509Y-110758997D01*
X119462586Y-110871000D01*
X119389234Y-111069189D01*
X119308202Y-111320139D01*
X119303266Y-111336667D01*
X119081887Y-112028375D01*
X118864831Y-112578063D01*
X118636044Y-113011812D01*
X118379472Y-113355704D01*
X118079061Y-113635820D01*
X117750407Y-113859476D01*
X117333478Y-114060986D01*
X116851951Y-114196786D01*
X116278416Y-114271264D01*
X115585459Y-114288810D01*
X115148867Y-114276021D01*
X114622667Y-114242522D01*
X114215222Y-114184995D01*
X113876174Y-114088027D01*
X113555166Y-113936208D01*
X113201839Y-113714126D01*
X113112729Y-113652892D01*
X112580242Y-113207133D01*
X112060871Y-112615225D01*
X111665507Y-112056333D01*
X111197279Y-111225675D01*
X110882831Y-110388534D01*
X110841487Y-110177320D01*
X116931320Y-110177320D01*
X116933524Y-110252782D01*
X117065351Y-110281080D01*
X117199834Y-110265754D01*
X117424227Y-110191697D01*
X117579305Y-110084365D01*
X117579959Y-110083551D01*
X117654088Y-109973722D01*
X117628727Y-109931089D01*
X117480962Y-109948972D01*
X117281768Y-109996622D01*
X117050235Y-110082623D01*
X116931320Y-110177320D01*
X110841487Y-110177320D01*
X110709912Y-109505144D01*
X110666071Y-108812090D01*
X110687982Y-108125133D01*
X110780987Y-107443135D01*
X110953051Y-106738271D01*
X111212141Y-105982718D01*
X111566223Y-105148650D01*
X111933294Y-104386108D01*
X112100615Y-104042243D01*
X112229795Y-103756477D01*
X112307115Y-103560609D01*
X112321012Y-103487456D01*
X112226673Y-103496082D01*
X112044218Y-103567195D01*
X111828703Y-103672860D01*
X111635180Y-103785143D01*
X111518703Y-103876107D01*
X111506000Y-103901007D01*
X111440714Y-103968284D01*
X111417905Y-103970667D01*
X111296568Y-104017319D01*
X111112312Y-104132030D01*
X111078657Y-104156352D01*
X110863242Y-104274369D01*
X110731994Y-104253544D01*
X110685469Y-104102285D01*
X110724221Y-103829000D01*
X110848805Y-103442097D01*
X111006690Y-103065145D01*
X111102697Y-102842705D01*
X111160117Y-102690041D01*
X111167333Y-102659020D01*
X111203032Y-102567209D01*
X111207097Y-102558382D01*
X117694233Y-102558382D01*
X117743111Y-102644222D01*
X117850347Y-102696314D01*
X117884004Y-102627557D01*
X119210983Y-102627557D01*
X119246986Y-102669237D01*
X119361357Y-102709357D01*
X119562888Y-102748587D01*
X119860370Y-102787597D01*
X120262595Y-102827057D01*
X120778354Y-102867638D01*
X121416440Y-102910009D01*
X122185643Y-102954840D01*
X123094756Y-103002803D01*
X124152569Y-103054566D01*
X125367875Y-103110799D01*
X125814667Y-103130884D01*
X126401368Y-103158274D01*
X126930201Y-103185222D01*
X127378255Y-103210377D01*
X127722622Y-103232387D01*
X127940391Y-103249902D01*
X128008945Y-103260331D01*
X128158934Y-103303059D01*
X128326636Y-103227840D01*
X128444874Y-103067094D01*
X128483242Y-102949241D01*
X128517681Y-102799051D01*
X128549854Y-102598955D01*
X128581425Y-102331386D01*
X128614057Y-101978774D01*
X128649413Y-101523551D01*
X128685069Y-101007333D01*
X129074334Y-101007333D01*
X129081046Y-101085352D01*
X129111670Y-101092000D01*
X129197888Y-101030539D01*
X129201334Y-101007333D01*
X129172447Y-100924868D01*
X129163997Y-100922667D01*
X129091711Y-100981995D01*
X129074334Y-101007333D01*
X128685069Y-101007333D01*
X128689158Y-100948149D01*
X128734954Y-100235000D01*
X128737680Y-100190892D01*
X129204026Y-100190892D01*
X129213264Y-100316878D01*
X129260210Y-100298198D01*
X129331026Y-100207984D01*
X129427487Y-100056027D01*
X129455334Y-99977808D01*
X129392629Y-99945163D01*
X129328334Y-99960715D01*
X129226866Y-100074862D01*
X129204026Y-100190892D01*
X128737680Y-100190892D01*
X128769033Y-99683621D01*
X129518481Y-99683621D01*
X129541978Y-99819866D01*
X129552331Y-99829995D01*
X129661200Y-99861193D01*
X129685939Y-99840453D01*
X129711284Y-99740382D01*
X129768101Y-99506559D01*
X129848914Y-99170026D01*
X129946249Y-98761823D01*
X129987062Y-98589950D01*
X130096164Y-98121674D01*
X130166277Y-97793120D01*
X130200302Y-97579945D01*
X130201142Y-97457800D01*
X130171697Y-97402341D01*
X130130115Y-97389754D01*
X130054255Y-97462693D01*
X129961439Y-97667611D01*
X129860060Y-97969060D01*
X129758512Y-98331593D01*
X129665187Y-98719763D01*
X129588478Y-99098122D01*
X129536778Y-99431224D01*
X129518481Y-99683621D01*
X128769033Y-99683621D01*
X128776180Y-99568000D01*
X128812071Y-99014275D01*
X128851964Y-98453910D01*
X128892119Y-97936016D01*
X128928801Y-97509702D01*
X128946950Y-97324333D01*
X129010515Y-96655821D01*
X129073120Y-95878390D01*
X129093123Y-95588667D01*
X130386667Y-95588667D01*
X130439606Y-95726571D01*
X130513667Y-95758000D01*
X130617095Y-95687414D01*
X130640667Y-95588667D01*
X130587727Y-95450762D01*
X130513667Y-95419333D01*
X130410239Y-95489919D01*
X130386667Y-95588667D01*
X129093123Y-95588667D01*
X129130148Y-95052417D01*
X129163711Y-94488000D01*
X129168173Y-94210754D01*
X129159027Y-93840458D01*
X129138833Y-93410923D01*
X129132716Y-93313892D01*
X129857070Y-93313892D01*
X129940900Y-93409713D01*
X130058175Y-93394729D01*
X130130479Y-93285257D01*
X130132667Y-93256537D01*
X130063572Y-93168498D01*
X129975727Y-93155679D01*
X129857888Y-93217915D01*
X129857070Y-93313892D01*
X129132716Y-93313892D01*
X129110149Y-92955960D01*
X129075538Y-92509377D01*
X129037558Y-92104986D01*
X129017402Y-91934332D01*
X129553279Y-91934332D01*
X129553896Y-92041957D01*
X129590688Y-92255212D01*
X129635023Y-92477581D01*
X129704764Y-92758460D01*
X129775952Y-92892115D01*
X129848684Y-92905212D01*
X129925669Y-92812039D01*
X129925402Y-92601726D01*
X129918116Y-92552010D01*
X129861219Y-92219500D01*
X129813472Y-92021237D01*
X129762171Y-91923552D01*
X129694612Y-91892775D01*
X129668929Y-91891555D01*
X129590927Y-91896232D01*
X129553279Y-91934332D01*
X129017402Y-91934332D01*
X128998770Y-91776597D01*
X128971513Y-91615734D01*
X129540000Y-91615734D01*
X129602423Y-91654528D01*
X129667000Y-91639951D01*
X129779003Y-91558306D01*
X129794000Y-91518265D01*
X129731577Y-91479471D01*
X129667000Y-91494049D01*
X129554998Y-91575693D01*
X129540000Y-91615734D01*
X128971513Y-91615734D01*
X128961733Y-91558020D01*
X128936424Y-91486247D01*
X128797978Y-91408882D01*
X128549348Y-91325798D01*
X128248420Y-91251918D01*
X127953082Y-91202161D01*
X127786146Y-91189736D01*
X127540409Y-91242743D01*
X127394658Y-91418227D01*
X127339661Y-91728577D01*
X127338667Y-91790412D01*
X127302837Y-92016671D01*
X127210033Y-92318189D01*
X127111026Y-92560375D01*
X126921894Y-92898113D01*
X126726947Y-93082836D01*
X126503968Y-93130065D01*
X126342422Y-93097270D01*
X126177123Y-93103024D01*
X125916640Y-93174226D01*
X125684674Y-93265248D01*
X125432858Y-93368157D01*
X125209537Y-93430951D01*
X124961108Y-93461437D01*
X124633965Y-93467420D01*
X124337530Y-93461432D01*
X123486334Y-93438285D01*
X123431208Y-94026642D01*
X123394241Y-94401560D01*
X123354295Y-94776923D01*
X123326082Y-95020916D01*
X123258881Y-95331338D01*
X123139525Y-95684124D01*
X122991185Y-96024920D01*
X122837036Y-96299379D01*
X122722285Y-96437033D01*
X122615658Y-96569954D01*
X122595871Y-96636200D01*
X122538229Y-96754956D01*
X122399826Y-96915976D01*
X122384204Y-96931053D01*
X122239354Y-97111217D01*
X122174274Y-97276681D01*
X122174000Y-97284839D01*
X122116807Y-97470931D01*
X122047243Y-97565995D01*
X121965786Y-97726270D01*
X121972235Y-97827604D01*
X121988855Y-98078109D01*
X121895875Y-98418051D01*
X121704869Y-98818584D01*
X121427409Y-99250864D01*
X121369948Y-99328797D01*
X121162842Y-99621056D01*
X121003039Y-99878844D01*
X120914357Y-100062230D01*
X120904000Y-100109875D01*
X120913582Y-100218580D01*
X120971003Y-100206682D01*
X121071745Y-100119770D01*
X121217143Y-100021098D01*
X121334668Y-100049100D01*
X121368079Y-100074682D01*
X121458469Y-100242391D01*
X121493652Y-100510973D01*
X121471256Y-100820420D01*
X121407234Y-101065321D01*
X121225005Y-101372140D01*
X120950751Y-101632361D01*
X120636722Y-101805465D01*
X120390223Y-101854000D01*
X120009329Y-101907249D01*
X119663932Y-102049525D01*
X119412048Y-102254624D01*
X119368829Y-102315343D01*
X119263980Y-102500879D01*
X119212154Y-102619241D01*
X119210983Y-102627557D01*
X117884004Y-102627557D01*
X117901375Y-102592073D01*
X117904381Y-102531333D01*
X117858958Y-102393936D01*
X117795524Y-102362000D01*
X117703438Y-102425437D01*
X117694233Y-102558382D01*
X111207097Y-102558382D01*
X111299873Y-102356959D01*
X111442475Y-102060889D01*
X111591730Y-101759010D01*
X111757804Y-101412984D01*
X111884982Y-101121190D01*
X111912015Y-101047157D01*
X114843553Y-101047157D01*
X114850334Y-101092000D01*
X114922754Y-101172682D01*
X114935000Y-101176667D01*
X115002314Y-101117615D01*
X115019667Y-101092000D01*
X114999561Y-101020271D01*
X114935000Y-101007333D01*
X114843553Y-101047157D01*
X111912015Y-101047157D01*
X111959529Y-100917041D01*
X111970881Y-100836728D01*
X111872411Y-100819516D01*
X111682971Y-100866873D01*
X111619126Y-100891587D01*
X111369369Y-100964128D01*
X111150810Y-100977172D01*
X111122351Y-100971900D01*
X110985177Y-100889543D01*
X110775101Y-100708251D01*
X110527075Y-100459630D01*
X110393542Y-100312909D01*
X110142703Y-100029847D01*
X109919946Y-99781409D01*
X109852546Y-99707564D01*
X114279671Y-99707564D01*
X114284881Y-99788769D01*
X114365168Y-99938749D01*
X114481672Y-100101012D01*
X114595534Y-100219065D01*
X114649592Y-100245333D01*
X114747169Y-100184088D01*
X114771464Y-100151287D01*
X114748414Y-100049831D01*
X114632821Y-99909694D01*
X114477704Y-99778711D01*
X114336081Y-99704721D01*
X114279671Y-99707564D01*
X109852546Y-99707564D01*
X109758638Y-99604678D01*
X109711336Y-99554672D01*
X109463193Y-99193672D01*
X109270054Y-98674210D01*
X109226654Y-98504078D01*
X109180936Y-98236219D01*
X109154712Y-97934618D01*
X109148437Y-97645675D01*
X109162567Y-97415795D01*
X109188290Y-97324333D01*
X121496667Y-97324333D01*
X121563079Y-97436613D01*
X121621010Y-97451333D01*
X121706426Y-97395236D01*
X121696618Y-97324333D01*
X121613512Y-97212295D01*
X121572275Y-97197333D01*
X121505156Y-97266043D01*
X121496667Y-97324333D01*
X109188290Y-97324333D01*
X109197558Y-97291380D01*
X109214654Y-97281339D01*
X109285186Y-97204734D01*
X109380864Y-97002809D01*
X109488471Y-96715173D01*
X109594788Y-96381437D01*
X109641169Y-96209555D01*
X118338797Y-96209555D01*
X118359140Y-96308968D01*
X118406334Y-96322444D01*
X118481099Y-96262880D01*
X118473870Y-96209555D01*
X118420661Y-96107319D01*
X118406334Y-96096667D01*
X118359399Y-96161823D01*
X118338797Y-96209555D01*
X109641169Y-96209555D01*
X109686596Y-96041210D01*
X109723414Y-95864761D01*
X113648076Y-95864761D01*
X113663709Y-95925244D01*
X113755277Y-95969891D01*
X113845207Y-95906668D01*
X113869831Y-95785265D01*
X113865025Y-95768121D01*
X113811717Y-95740382D01*
X121592933Y-95740382D01*
X121649830Y-95756703D01*
X121719976Y-95805116D01*
X121708334Y-95842667D01*
X121709396Y-95920931D01*
X121735795Y-95927333D01*
X121818935Y-95856806D01*
X121859866Y-95758000D01*
X121870850Y-95616958D01*
X121786039Y-95607213D01*
X121666000Y-95673333D01*
X121592933Y-95740382D01*
X113811717Y-95740382D01*
X113781422Y-95724618D01*
X113717653Y-95751247D01*
X113648076Y-95864761D01*
X109723414Y-95864761D01*
X109750678Y-95734103D01*
X109765401Y-95631000D01*
X109795227Y-95450485D01*
X109835327Y-95250000D01*
X114046000Y-95250000D01*
X114110429Y-95332206D01*
X114130667Y-95334667D01*
X119295334Y-95334667D01*
X119359763Y-95416873D01*
X119380000Y-95419333D01*
X119462207Y-95354904D01*
X119464667Y-95334667D01*
X119400238Y-95252460D01*
X119380000Y-95250000D01*
X119297794Y-95314429D01*
X119295334Y-95334667D01*
X114130667Y-95334667D01*
X114212873Y-95270237D01*
X114215334Y-95250000D01*
X114150904Y-95167793D01*
X114130667Y-95165333D01*
X114048460Y-95229762D01*
X114046000Y-95250000D01*
X109835327Y-95250000D01*
X109848627Y-95183510D01*
X109880263Y-95038333D01*
X109966508Y-94624397D01*
X110019929Y-94290461D01*
X111184866Y-94290461D01*
X111273167Y-94342519D01*
X111429455Y-94347359D01*
X111505514Y-94257448D01*
X111506000Y-94247146D01*
X111434902Y-94197108D01*
X111336667Y-94185619D01*
X111191870Y-94218689D01*
X111184866Y-94290461D01*
X110019929Y-94290461D01*
X110026941Y-94246630D01*
X110068130Y-93847691D01*
X110078399Y-93675740D01*
X110998000Y-93675740D01*
X111060260Y-93758980D01*
X111166381Y-93750781D01*
X111282053Y-93685939D01*
X111288384Y-93631707D01*
X111175858Y-93560124D01*
X111049927Y-93583807D01*
X110998000Y-93675740D01*
X110078399Y-93675740D01*
X110092809Y-93434455D01*
X116254853Y-93434455D01*
X116281228Y-93504960D01*
X116443953Y-93549312D01*
X116586000Y-93556667D01*
X116821485Y-93535695D01*
X116918520Y-93466178D01*
X116924667Y-93429667D01*
X116853137Y-93336428D01*
X116675910Y-93301127D01*
X116449029Y-93331560D01*
X116381258Y-93354058D01*
X116254853Y-93434455D01*
X110092809Y-93434455D01*
X110096645Y-93370239D01*
X110110044Y-93032513D01*
X110139819Y-92519711D01*
X110190169Y-92149265D01*
X110265014Y-91895017D01*
X110287682Y-91847179D01*
X110302574Y-91811479D01*
X111106628Y-91811479D01*
X111125000Y-91863333D01*
X111222437Y-91945734D01*
X111289088Y-91875144D01*
X111300381Y-91778667D01*
X111274548Y-91640953D01*
X111238854Y-91609333D01*
X111137057Y-91676396D01*
X111106628Y-91811479D01*
X110302574Y-91811479D01*
X110376769Y-91633620D01*
X110484168Y-91314555D01*
X110590271Y-90949511D01*
X110617034Y-90847333D01*
X110715283Y-90489302D01*
X110734623Y-90436755D01*
X129540000Y-90436755D01*
X129604528Y-90554615D01*
X129709334Y-90570054D01*
X129850736Y-90497656D01*
X129878667Y-90411244D01*
X129814139Y-90293385D01*
X129709334Y-90277946D01*
X129567931Y-90350343D01*
X129540000Y-90436755D01*
X110734623Y-90436755D01*
X110795333Y-90271806D01*
X110869356Y-90168790D01*
X110941586Y-90152545D01*
X111034275Y-90122670D01*
X112014000Y-90122670D01*
X112058205Y-90238512D01*
X112098667Y-90254667D01*
X112180910Y-90193899D01*
X112183334Y-90174997D01*
X112121789Y-90060329D01*
X112098667Y-90043000D01*
X112026184Y-90062194D01*
X112014000Y-90122670D01*
X111034275Y-90122670D01*
X111062230Y-90113660D01*
X111082667Y-90046711D01*
X111036712Y-89943675D01*
X110992554Y-89937167D01*
X110912290Y-89878242D01*
X110808556Y-89704529D01*
X110752814Y-89577333D01*
X111336667Y-89577333D01*
X111409273Y-89640439D01*
X111553330Y-89662000D01*
X111697381Y-89635124D01*
X111717667Y-89577333D01*
X111598247Y-89506208D01*
X111501003Y-89492667D01*
X111366159Y-89529086D01*
X111336667Y-89577333D01*
X110752814Y-89577333D01*
X110634690Y-89323333D01*
X112903000Y-89323333D01*
X112936085Y-89383296D01*
X113100810Y-89407959D01*
X113109670Y-89408000D01*
X113290160Y-89383912D01*
X113368565Y-89325717D01*
X113368667Y-89323333D01*
X113296366Y-89259134D01*
X113161997Y-89238667D01*
X112982724Y-89269884D01*
X112903000Y-89323333D01*
X110634690Y-89323333D01*
X110628200Y-89309379D01*
X110533012Y-89134669D01*
X129825684Y-89134669D01*
X129940651Y-89145221D01*
X130158415Y-89055813D01*
X130465215Y-88870526D01*
X130567137Y-88800661D01*
X130827539Y-88599671D01*
X130989067Y-88436262D01*
X131028641Y-88337311D01*
X131050596Y-88215598D01*
X131161398Y-88101000D01*
X131300393Y-88035622D01*
X131406930Y-88061568D01*
X131413190Y-88070360D01*
X131499972Y-88121344D01*
X131629047Y-88052457D01*
X131826603Y-87890050D01*
X132042342Y-87693687D01*
X132238123Y-87500726D01*
X132375806Y-87348528D01*
X132418667Y-87279012D01*
X132355254Y-87239475D01*
X132213092Y-87259041D01*
X132064295Y-87319909D01*
X131989855Y-87384864D01*
X131879961Y-87439478D01*
X131835466Y-87424183D01*
X131754825Y-87436228D01*
X131741334Y-87498003D01*
X131700467Y-87613895D01*
X131663163Y-87630000D01*
X131552859Y-87680197D01*
X131378851Y-87804378D01*
X131336246Y-87839306D01*
X131165028Y-87960325D01*
X131048573Y-88001031D01*
X131033417Y-87994528D01*
X130983596Y-88005154D01*
X130979334Y-88039222D01*
X130910638Y-88125820D01*
X130847337Y-88138000D01*
X130759702Y-88179046D01*
X130767667Y-88222667D01*
X130747561Y-88294396D01*
X130683000Y-88307333D01*
X130591553Y-88347157D01*
X130598334Y-88392000D01*
X130579140Y-88464483D01*
X130518664Y-88476667D01*
X130364437Y-88532881D01*
X130217334Y-88646000D01*
X130065701Y-88770308D01*
X129963334Y-88815333D01*
X129880862Y-88842740D01*
X129878667Y-88850742D01*
X129852328Y-88950266D01*
X129827275Y-89020075D01*
X129825684Y-89134669D01*
X110533012Y-89134669D01*
X110446357Y-88975623D01*
X110368867Y-88848545D01*
X129547887Y-88848545D01*
X129648557Y-88889313D01*
X129686536Y-88884196D01*
X129807464Y-88783355D01*
X129834702Y-88645154D01*
X129909814Y-88434313D01*
X130026834Y-88350756D01*
X130172617Y-88261879D01*
X130217334Y-88197593D01*
X130270396Y-88165858D01*
X130302000Y-88180333D01*
X130374483Y-88161139D01*
X130386667Y-88100663D01*
X130358766Y-87991182D01*
X130264829Y-87994814D01*
X130089503Y-88117633D01*
X129889131Y-88297478D01*
X129676439Y-88528695D01*
X129559936Y-88720362D01*
X129547887Y-88848545D01*
X110368867Y-88848545D01*
X110250260Y-88654040D01*
X110220721Y-88604153D01*
X115115863Y-88604153D01*
X115119968Y-88712886D01*
X115202982Y-88719105D01*
X115270051Y-88651850D01*
X115262200Y-88542955D01*
X115241586Y-88525336D01*
X115150759Y-88547103D01*
X115115863Y-88604153D01*
X110220721Y-88604153D01*
X110050059Y-88315933D01*
X111862406Y-88315933D01*
X111889643Y-88451848D01*
X111945073Y-88557907D01*
X111978169Y-88505680D01*
X111992254Y-88448873D01*
X112000049Y-88294982D01*
X111979151Y-88244262D01*
X111898493Y-88224082D01*
X111862406Y-88315933D01*
X110050059Y-88315933D01*
X110031138Y-88283980D01*
X109916874Y-88011837D01*
X109910355Y-87847335D01*
X109996500Y-87799333D01*
X110131541Y-87851705D01*
X110250500Y-87939455D01*
X110347409Y-88016103D01*
X110391733Y-88007545D01*
X110384861Y-87891771D01*
X110328182Y-87646773D01*
X110280468Y-87464685D01*
X110279729Y-87460667D01*
X113030000Y-87460667D01*
X113092680Y-87535731D01*
X113243444Y-87521696D01*
X113368667Y-87460667D01*
X113425939Y-87401985D01*
X113336922Y-87379177D01*
X113262834Y-87377296D01*
X113093891Y-87402910D01*
X113030000Y-87460667D01*
X110279729Y-87460667D01*
X110222417Y-87149153D01*
X110217929Y-87104021D01*
X115368289Y-87104021D01*
X115403324Y-87122000D01*
X115476095Y-87053383D01*
X115485334Y-86995000D01*
X115467219Y-86882037D01*
X115452059Y-86868000D01*
X115397465Y-86934205D01*
X115370049Y-86995000D01*
X115368289Y-87104021D01*
X110217929Y-87104021D01*
X110180298Y-86725601D01*
X110159610Y-86255022D01*
X110158406Y-86110018D01*
X110160334Y-85612095D01*
X110161019Y-85577758D01*
X117300055Y-85577758D01*
X117383278Y-85591316D01*
X117493092Y-85575749D01*
X117494403Y-85546847D01*
X117381086Y-85526636D01*
X117332125Y-85540163D01*
X117300055Y-85577758D01*
X110161019Y-85577758D01*
X110163758Y-85440704D01*
X114690103Y-85440704D01*
X114690202Y-85528223D01*
X114767996Y-85556168D01*
X114813980Y-85503658D01*
X114824464Y-85476084D01*
X124145501Y-85476084D01*
X124160670Y-85588559D01*
X124218673Y-85736149D01*
X124259729Y-85733754D01*
X124293778Y-85573296D01*
X124306887Y-85469707D01*
X124311628Y-85406061D01*
X126702073Y-85406061D01*
X126715382Y-85471000D01*
X126775478Y-85582401D01*
X126797392Y-85598000D01*
X126826989Y-85528863D01*
X126830667Y-85471000D01*
X126786358Y-85358307D01*
X126748657Y-85344000D01*
X126702073Y-85406061D01*
X124311628Y-85406061D01*
X124320834Y-85282484D01*
X124292407Y-85236020D01*
X124222781Y-85290933D01*
X124145501Y-85476084D01*
X114824464Y-85476084D01*
X114858259Y-85387205D01*
X114851363Y-85359140D01*
X114764388Y-85356595D01*
X114690103Y-85440704D01*
X110163758Y-85440704D01*
X110166537Y-85301667D01*
X115739334Y-85301667D01*
X115785051Y-85414338D01*
X115824000Y-85428667D01*
X115899115Y-85360090D01*
X115908667Y-85301667D01*
X115862949Y-85188995D01*
X115824000Y-85174667D01*
X115748886Y-85243243D01*
X115739334Y-85301667D01*
X110166537Y-85301667D01*
X110167475Y-85254750D01*
X110177837Y-85094997D01*
X117940667Y-85094997D01*
X117973260Y-85212067D01*
X118025334Y-85217000D01*
X118103238Y-85094498D01*
X118110000Y-85042670D01*
X118062661Y-84933243D01*
X118025334Y-84920667D01*
X117957208Y-84991792D01*
X117940667Y-85094997D01*
X110177837Y-85094997D01*
X110183400Y-85009238D01*
X110211678Y-84846813D01*
X110255881Y-84738727D01*
X110319580Y-84656236D01*
X110341833Y-84633372D01*
X110454631Y-84476167D01*
X117263334Y-84476167D01*
X117335904Y-84523931D01*
X117475000Y-84539667D01*
X117634215Y-84517895D01*
X117686667Y-84476167D01*
X117614096Y-84428402D01*
X117475000Y-84412667D01*
X117315785Y-84434438D01*
X117263334Y-84476167D01*
X110454631Y-84476167D01*
X110457473Y-84472207D01*
X110490000Y-84364286D01*
X110527137Y-84279619D01*
X119972667Y-84279619D01*
X120024440Y-84329042D01*
X120140383Y-84280966D01*
X120228365Y-84198954D01*
X120297299Y-84061745D01*
X120247143Y-84013483D01*
X120118272Y-84086149D01*
X120103699Y-84100206D01*
X119998780Y-84224609D01*
X119972667Y-84279619D01*
X110527137Y-84279619D01*
X110537695Y-84255551D01*
X110574667Y-84243333D01*
X110646335Y-84173405D01*
X110659334Y-84094301D01*
X110710341Y-83940878D01*
X110834032Y-83763274D01*
X110986406Y-83609324D01*
X111123466Y-83526861D01*
X111178090Y-83530315D01*
X111290353Y-83516052D01*
X111363467Y-83448346D01*
X111481025Y-83369573D01*
X111723976Y-83258014D01*
X112055433Y-83129252D01*
X112392607Y-83013577D01*
X112976681Y-82812191D01*
X113433722Y-82620747D01*
X113803105Y-82417849D01*
X114124205Y-82182101D01*
X114412791Y-81915841D01*
X114615688Y-81718719D01*
X114768667Y-81580812D01*
X114834591Y-81534000D01*
X114871406Y-81553462D01*
X114912540Y-81624724D01*
X114963564Y-81767097D01*
X115030049Y-81999893D01*
X115117566Y-82342424D01*
X115231686Y-82814002D01*
X115357546Y-83346832D01*
X115470069Y-83726471D01*
X115616334Y-83977843D01*
X115825875Y-84117890D01*
X116128227Y-84163554D01*
X116552926Y-84131776D01*
X116691834Y-84112201D01*
X116948053Y-84054717D01*
X116993980Y-84019590D01*
X119411887Y-84019590D01*
X119475999Y-84138923D01*
X119542589Y-84158667D01*
X119578666Y-84087812D01*
X119568036Y-83936437D01*
X119528662Y-83792758D01*
X119480630Y-83800889D01*
X119448195Y-83852440D01*
X119411887Y-84019590D01*
X116993980Y-84019590D01*
X117072750Y-83959344D01*
X117076208Y-83795516D01*
X117066023Y-83770611D01*
X117608684Y-83770611D01*
X117624251Y-83880425D01*
X117653153Y-83881736D01*
X117673364Y-83768419D01*
X117659837Y-83719458D01*
X117622242Y-83687388D01*
X117608684Y-83770611D01*
X117066023Y-83770611D01*
X116968707Y-83532670D01*
X116919378Y-83435735D01*
X116831935Y-83227333D01*
X118025334Y-83227333D01*
X118096246Y-83296123D01*
X118194667Y-83312000D01*
X118332247Y-83276544D01*
X118364000Y-83227333D01*
X118293088Y-83158543D01*
X118194667Y-83142667D01*
X118057086Y-83178123D01*
X118025334Y-83227333D01*
X116831935Y-83227333D01*
X116829679Y-83221958D01*
X116739606Y-82940252D01*
X116658698Y-82632595D01*
X116631516Y-82505157D01*
X118484219Y-82505157D01*
X118491000Y-82550000D01*
X118563420Y-82630682D01*
X118575667Y-82634667D01*
X118642981Y-82575615D01*
X118660334Y-82550000D01*
X118640228Y-82478271D01*
X118575667Y-82465333D01*
X118484219Y-82505157D01*
X116631516Y-82505157D01*
X116596494Y-82340963D01*
X116562534Y-82107333D01*
X116566356Y-81973682D01*
X116583408Y-81957333D01*
X116611644Y-81881710D01*
X116615657Y-81688239D01*
X116605175Y-81534437D01*
X116601872Y-81322333D01*
X117263334Y-81322333D01*
X117309051Y-81435005D01*
X117348000Y-81449333D01*
X117423115Y-81380757D01*
X117432667Y-81322333D01*
X117415490Y-81280000D01*
X118321667Y-81280000D01*
X118340861Y-81352483D01*
X118401337Y-81364667D01*
X118517179Y-81320462D01*
X118533334Y-81280000D01*
X118472566Y-81197757D01*
X118453664Y-81195333D01*
X118338996Y-81256877D01*
X118321667Y-81280000D01*
X117415490Y-81280000D01*
X117386949Y-81209661D01*
X117348000Y-81195333D01*
X117272886Y-81263910D01*
X117263334Y-81322333D01*
X116601872Y-81322333D01*
X116600203Y-81215203D01*
X116651977Y-81009885D01*
X116667226Y-80987813D01*
X116726103Y-80839938D01*
X116710303Y-80767635D01*
X116702241Y-80628286D01*
X116759654Y-80467593D01*
X116848841Y-80345757D01*
X116982234Y-80284734D01*
X117213537Y-80264872D01*
X117315990Y-80264000D01*
X117723203Y-80299032D01*
G37*
X117723203Y-80299032D02*
X118056421Y-80395346D01*
X118274384Y-80539766D01*
X118304707Y-80579717D01*
X118431336Y-80677852D01*
X118482252Y-80687333D01*
X118621039Y-80739041D01*
X118785307Y-80854909D01*
X118941077Y-80961233D01*
X119044480Y-80981722D01*
X119044545Y-80981682D01*
X119120213Y-81003371D01*
X119260346Y-81134612D01*
X119476271Y-81387129D01*
X119661040Y-81619811D01*
X119783149Y-81821337D01*
X119929494Y-82127926D01*
X120081715Y-82492063D01*
X120221451Y-82866234D01*
X120330339Y-83202924D01*
X120390018Y-83454620D01*
X120396000Y-83521688D01*
X120467183Y-83775946D01*
X120658714Y-84058058D01*
X120937562Y-84324115D01*
X121071526Y-84419703D01*
X121303138Y-84592201D01*
X121429116Y-84734270D01*
X121441350Y-84796970D01*
X121476056Y-84894513D01*
X121596027Y-84935096D01*
X121771437Y-85029068D01*
X121820055Y-85153500D01*
X121874719Y-85302403D01*
X121935759Y-85344000D01*
X121989069Y-85274103D01*
X121985422Y-85140063D01*
X121985073Y-84990157D01*
X122045618Y-84974185D01*
X122188345Y-84971191D01*
X122392226Y-84910547D01*
X122392233Y-84910544D01*
X122599355Y-84843491D01*
X122662425Y-84836000D01*
X124587000Y-84836000D01*
X124616975Y-84898782D01*
X124751337Y-84920667D01*
X124912827Y-84892294D01*
X124968000Y-84836000D01*
X124897311Y-84766528D01*
X124803664Y-84751333D01*
X124641582Y-84790211D01*
X124587000Y-84836000D01*
X122662425Y-84836000D01*
X122745500Y-84826133D01*
X122842784Y-84785727D01*
X122851334Y-84750724D01*
X122924681Y-84655441D01*
X123104383Y-84555224D01*
X123329930Y-84473951D01*
X123540814Y-84435499D01*
X123632885Y-84442311D01*
X123752220Y-84442480D01*
X123752873Y-84372480D01*
X123790941Y-84280509D01*
X123965155Y-84214318D01*
X124244453Y-84172959D01*
X124597772Y-84155481D01*
X124994047Y-84160937D01*
X125402215Y-84188377D01*
X125791214Y-84236852D01*
X126129979Y-84305413D01*
X126387447Y-84393111D01*
X126492000Y-84456163D01*
X126644331Y-84534317D01*
X126894633Y-84619831D01*
X127063500Y-84664342D01*
X127322384Y-84733543D01*
X127455286Y-84804797D01*
X127503117Y-84908805D01*
X127508000Y-84997937D01*
X127431694Y-85248073D01*
X127254000Y-85471000D01*
X127059068Y-85712446D01*
X127000519Y-85943122D01*
X127084401Y-86173008D01*
X127316761Y-86412081D01*
X127703647Y-86670322D01*
X128114163Y-86890264D01*
X128502890Y-87098716D01*
X128884717Y-87326855D01*
X129200871Y-87538640D01*
X129316386Y-87627495D01*
X129538103Y-87804088D01*
X129707589Y-87925664D01*
X129782052Y-87964002D01*
X129852256Y-87897880D01*
X129855159Y-87894367D01*
X130471334Y-87894367D01*
X130521129Y-87965680D01*
X130637207Y-87924559D01*
X130727032Y-87839620D01*
X130792307Y-87711738D01*
X130781778Y-87658222D01*
X130687524Y-87661684D01*
X130562746Y-87746905D01*
X130478285Y-87860002D01*
X130471334Y-87894367D01*
X129855159Y-87894367D01*
X129995731Y-87724302D01*
X130110239Y-87575007D01*
X130907560Y-87575007D01*
X130956942Y-87629785D01*
X130963220Y-87630000D01*
X131061052Y-87562160D01*
X131097333Y-87495925D01*
X131099629Y-87396670D01*
X131048183Y-87395383D01*
X130946641Y-87472940D01*
X130907560Y-87575007D01*
X130110239Y-87575007D01*
X130187772Y-87473921D01*
X130302000Y-87318905D01*
X130360055Y-87242317D01*
X131318000Y-87242317D01*
X131369794Y-87246713D01*
X131496263Y-87153061D01*
X131513957Y-87136758D01*
X131680231Y-87007262D01*
X131806794Y-86952673D01*
X131807633Y-86952667D01*
X131867874Y-86891325D01*
X131857005Y-86826674D01*
X131801053Y-86767314D01*
X131695130Y-86816884D01*
X131563329Y-86932233D01*
X131407111Y-87097774D01*
X131322793Y-87222353D01*
X131318000Y-87242317D01*
X130360055Y-87242317D01*
X130763730Y-86709779D01*
X131174003Y-86234819D01*
X131448462Y-85979000D01*
X132785556Y-85979000D01*
X132824377Y-86080365D01*
X132862461Y-86085068D01*
X132938371Y-85992237D01*
X132939367Y-85979000D01*
X132874800Y-85878086D01*
X132862461Y-85872931D01*
X132795715Y-85917166D01*
X132785556Y-85979000D01*
X131448462Y-85979000D01*
X131557795Y-85877093D01*
X131940085Y-85619666D01*
X132345851Y-85445606D01*
X132800070Y-85337978D01*
X132993972Y-85316304D01*
X134063941Y-85316304D01*
X134130323Y-85409141D01*
X134199006Y-85428667D01*
X134241385Y-85366442D01*
X134227471Y-85302153D01*
X134147124Y-85216611D01*
X134101747Y-85223336D01*
X134063941Y-85316304D01*
X132993972Y-85316304D01*
X133307667Y-85281240D01*
X133804643Y-85218098D01*
X134142409Y-85109001D01*
X134325256Y-84952052D01*
X134363340Y-84814833D01*
X134407933Y-84689139D01*
X134455664Y-84666666D01*
X134502136Y-84720279D01*
X134484108Y-84765721D01*
X134479960Y-84829809D01*
X134558308Y-84812811D01*
X134691405Y-84816817D01*
X134730946Y-84861923D01*
X134807254Y-84868763D01*
X134969609Y-84760683D01*
X135109416Y-84636129D01*
X135332728Y-84433865D01*
X135533210Y-84271636D01*
X135619966Y-84212796D01*
X135849354Y-84071040D01*
X136141501Y-83875385D01*
X136455633Y-83655027D01*
X136750972Y-83439160D01*
X136986743Y-83256981D01*
X137122169Y-83137683D01*
X137123337Y-83136401D01*
X137259635Y-83013200D01*
X137342456Y-82973333D01*
X137452654Y-82920860D01*
X137571236Y-82825166D01*
X137726590Y-82692461D01*
X137958408Y-82509212D01*
X138128447Y-82380667D01*
X138381080Y-82188310D01*
X138601966Y-82011334D01*
X138700420Y-81926625D01*
X138867216Y-81801046D01*
X139103139Y-81655249D01*
X139364223Y-81512214D01*
X139606500Y-81394925D01*
X139786001Y-81326363D01*
X139855662Y-81322773D01*
X139821586Y-81396476D01*
X139684147Y-81540178D01*
X139476622Y-81723860D01*
X139232286Y-81917499D01*
X139058482Y-82042000D01*
X138911123Y-82148409D01*
X138670595Y-82328556D01*
X138377262Y-82552050D01*
X138215073Y-82677000D01*
X137903011Y-82917423D01*
X137615778Y-83137034D01*
X137396994Y-83302551D01*
X137327299Y-83354333D01*
X136875316Y-83689754D01*
X136467841Y-83999991D01*
X136127533Y-84267215D01*
X135877046Y-84473598D01*
X135739039Y-84601312D01*
X135731467Y-84610072D01*
X135593230Y-84725103D01*
X135511755Y-84751333D01*
X135380645Y-84808965D01*
X135261374Y-84913623D01*
X135164060Y-85073299D01*
X135200742Y-85236744D01*
X135207860Y-85250352D01*
X135246980Y-85368228D01*
X135199814Y-85474466D01*
X135041234Y-85612158D01*
X134963455Y-85669464D01*
X134779783Y-85819279D01*
X134682400Y-85932646D01*
X134679291Y-85967735D01*
X134659411Y-86012796D01*
X134591778Y-86021333D01*
X134470413Y-86068032D01*
X134450667Y-86116367D01*
X134408998Y-86160504D01*
X134322623Y-86105133D01*
X134241874Y-85986847D01*
X134245563Y-85979000D01*
X134281334Y-85979000D01*
X134323667Y-86021333D01*
X134366000Y-85979000D01*
X134323667Y-85936667D01*
X134281334Y-85979000D01*
X134245563Y-85979000D01*
X134290656Y-85883100D01*
X134327261Y-85802642D01*
X134235785Y-85770760D01*
X134125024Y-85767333D01*
X133947134Y-85785176D01*
X133902605Y-85853918D01*
X133917379Y-85908222D01*
X133928473Y-86003781D01*
X133880284Y-85992772D01*
X133820245Y-86003086D01*
X133828697Y-86087754D01*
X133804157Y-86219128D01*
X133641263Y-86344798D01*
X133560986Y-86385607D01*
X133348362Y-86467338D01*
X133197576Y-86490283D01*
X133174852Y-86483406D01*
X133105888Y-86504299D01*
X133096000Y-86557611D01*
X133164664Y-86691211D01*
X133229925Y-86731941D01*
X133421691Y-86780929D01*
X133489410Y-86738826D01*
X133468423Y-86677500D01*
X133449337Y-86616444D01*
X133475036Y-86632665D01*
X133583469Y-86632140D01*
X133753859Y-86547465D01*
X133763776Y-86540714D01*
X134006392Y-86378759D01*
X134140649Y-86307020D01*
X134192780Y-86312956D01*
X134196515Y-86333836D01*
X134130728Y-86414074D01*
X133962353Y-86545242D01*
X133823903Y-86637635D01*
X133605871Y-86785393D01*
X133501910Y-86903766D01*
X133479136Y-87047491D01*
X133493286Y-87187968D01*
X133497402Y-87404618D01*
X133437450Y-87630921D01*
X133296752Y-87922299D01*
X133243518Y-88017974D01*
X132993186Y-88446899D01*
X132758888Y-88824176D01*
X132556654Y-89125962D01*
X132402510Y-89328411D01*
X132312483Y-89407679D01*
X132309193Y-89408000D01*
X132275185Y-89459953D01*
X132286696Y-89484624D01*
X132263163Y-89586461D01*
X132152390Y-89767461D01*
X132037667Y-89916000D01*
X131883172Y-90127528D01*
X131799870Y-90295732D01*
X131797530Y-90361764D01*
X131792039Y-90416958D01*
X131712889Y-90398712D01*
X131597820Y-90400092D01*
X131572000Y-90501916D01*
X131632572Y-90630392D01*
X131716923Y-90647426D01*
X131850770Y-90708915D01*
X131894997Y-90805000D01*
X131978980Y-91009446D01*
X132054702Y-91117165D01*
X132135853Y-91259921D01*
X132133081Y-91337944D01*
X132123029Y-91464759D01*
X132161866Y-91672542D01*
X132170593Y-91703112D01*
X132245496Y-92004071D01*
X132297129Y-92286667D01*
X132345515Y-92491363D01*
X132410775Y-92605941D01*
X132420656Y-92611222D01*
X132473653Y-92705611D01*
X132501899Y-92904603D01*
X132503334Y-92965544D01*
X132528200Y-93252647D01*
X132588711Y-93512426D01*
X132595168Y-93529988D01*
X132660953Y-93743079D01*
X132743555Y-94069806D01*
X132830970Y-94456942D01*
X132911197Y-94851261D01*
X132972232Y-95199536D01*
X132973481Y-95207667D01*
X133020354Y-95442472D01*
X133094421Y-95745209D01*
X133132568Y-95885000D01*
X133282417Y-96491367D01*
X133374028Y-97036814D01*
X133392670Y-97239667D01*
X133422742Y-97468480D01*
X133465619Y-97622993D01*
X133508009Y-97784336D01*
X133545586Y-98033997D01*
X133555281Y-98130993D01*
X133593536Y-98452542D01*
X133651806Y-98816033D01*
X133677040Y-98947730D01*
X133738742Y-99299018D01*
X133794378Y-99696375D01*
X133814750Y-99879064D01*
X133853466Y-100237047D01*
X133904193Y-100657576D01*
X133944512Y-100965000D01*
X134049821Y-101797853D01*
X134132135Y-102586761D01*
X134152983Y-102827667D01*
X134222533Y-103707515D01*
X134274735Y-104436669D01*
X134308799Y-105032957D01*
X134323938Y-105514207D01*
X134319364Y-105898246D01*
X134294289Y-106202903D01*
X134247924Y-106446004D01*
X134179480Y-106645379D01*
X134088171Y-106818854D01*
X133973207Y-106984257D01*
X133968958Y-106989840D01*
X133770443Y-107176046D01*
X133449228Y-107394718D01*
X133043468Y-107625410D01*
X132591318Y-107847677D01*
X132130931Y-108041073D01*
X131783667Y-108160857D01*
X131503829Y-108252985D01*
X131288177Y-108336958D01*
X131195234Y-108386611D01*
X131052911Y-108443203D01*
X130914501Y-108458000D01*
X130691303Y-108490188D01*
X130571323Y-108534466D01*
X130445783Y-108577212D01*
X130184054Y-108649379D01*
X129815222Y-108743531D01*
X129368372Y-108852228D01*
X128904723Y-108960667D01*
X128227724Y-109116450D01*
X127697084Y-109239742D01*
X127293983Y-109335340D01*
X126999601Y-109408037D01*
X126795118Y-109462629D01*
X126661717Y-109503910D01*
X126580576Y-109536675D01*
X126534334Y-109564605D01*
X126425881Y-109620591D01*
X126407334Y-109621826D01*
X126276943Y-109634293D01*
X126050660Y-109684533D01*
X125776683Y-109758370D01*
X125503209Y-109841630D01*
X125278436Y-109920137D01*
X125150562Y-109979714D01*
X125137334Y-109995345D01*
X125181640Y-110093597D01*
X125302139Y-110301278D01*
X125480199Y-110587522D01*
X125687667Y-110907078D01*
X125903069Y-111237620D01*
X126078938Y-111516843D01*
X126196741Y-111714670D01*
X126238000Y-111800225D01*
X126270196Y-111912119D01*
X126348805Y-112103979D01*
X126359747Y-112128204D01*
X126606758Y-112842789D01*
X126733074Y-113610964D01*
X126746000Y-113934367D01*
X126741808Y-114254289D01*
X126722766Y-114440442D01*
X126679177Y-114528312D01*
X126601343Y-114553384D01*
X126576667Y-114554000D01*
X126476926Y-114532665D01*
X126425809Y-114441434D01*
X126407641Y-114239468D01*
X126406059Y-114109500D01*
X126329608Y-113494636D01*
X126099950Y-112925395D01*
X125711107Y-112389713D01*
X125400899Y-112081185D01*
X125050669Y-111781647D01*
X124705709Y-111524466D01*
X124343158Y-111299927D01*
X123940150Y-111098315D01*
X123473824Y-110909918D01*
X122921315Y-110725021D01*
X122259761Y-110533909D01*
X121466297Y-110326868D01*
X120999098Y-110210942D01*
X120595439Y-110140555D01*
X120324987Y-110163371D01*
X120177767Y-110282191D01*
X120142000Y-110451850D01*
X120105150Y-110625834D01*
X120018301Y-110792117D01*
X119917010Y-110897530D01*
X119843975Y-110897530D01*
X119795384Y-110776327D01*
X119773552Y-110622556D01*
X119733597Y-110446683D01*
X119660971Y-110417688D01*
X119583877Y-110545702D01*
X119581332Y-110553500D01*
X119507509Y-110758997D01*
X119462586Y-110871000D01*
X119389234Y-111069189D01*
X119308202Y-111320139D01*
X119303266Y-111336667D01*
X119081887Y-112028375D01*
X118864831Y-112578063D01*
X118636044Y-113011812D01*
X118379472Y-113355704D01*
X118079061Y-113635820D01*
X117750407Y-113859476D01*
X117333478Y-114060986D01*
X116851951Y-114196786D01*
X116278416Y-114271264D01*
X115585459Y-114288810D01*
X115148867Y-114276021D01*
X114622667Y-114242522D01*
X114215222Y-114184995D01*
X113876174Y-114088027D01*
X113555166Y-113936208D01*
X113201839Y-113714126D01*
X113112729Y-113652892D01*
X112580242Y-113207133D01*
X112060871Y-112615225D01*
X111665507Y-112056333D01*
X111197279Y-111225675D01*
X110882831Y-110388534D01*
X110841487Y-110177320D01*
X116931320Y-110177320D01*
X116933524Y-110252782D01*
X117065351Y-110281080D01*
X117199834Y-110265754D01*
X117424227Y-110191697D01*
X117579305Y-110084365D01*
X117579959Y-110083551D01*
X117654088Y-109973722D01*
X117628727Y-109931089D01*
X117480962Y-109948972D01*
X117281768Y-109996622D01*
X117050235Y-110082623D01*
X116931320Y-110177320D01*
X110841487Y-110177320D01*
X110709912Y-109505144D01*
X110666071Y-108812090D01*
X110687982Y-108125133D01*
X110780987Y-107443135D01*
X110953051Y-106738271D01*
X111212141Y-105982718D01*
X111566223Y-105148650D01*
X111933294Y-104386108D01*
X112100615Y-104042243D01*
X112229795Y-103756477D01*
X112307115Y-103560609D01*
X112321012Y-103487456D01*
X112226673Y-103496082D01*
X112044218Y-103567195D01*
X111828703Y-103672860D01*
X111635180Y-103785143D01*
X111518703Y-103876107D01*
X111506000Y-103901007D01*
X111440714Y-103968284D01*
X111417905Y-103970667D01*
X111296568Y-104017319D01*
X111112312Y-104132030D01*
X111078657Y-104156352D01*
X110863242Y-104274369D01*
X110731994Y-104253544D01*
X110685469Y-104102285D01*
X110724221Y-103829000D01*
X110848805Y-103442097D01*
X111006690Y-103065145D01*
X111102697Y-102842705D01*
X111160117Y-102690041D01*
X111167333Y-102659020D01*
X111203032Y-102567209D01*
X111207097Y-102558382D01*
X117694233Y-102558382D01*
X117743111Y-102644222D01*
X117850347Y-102696314D01*
X117884004Y-102627557D01*
X119210983Y-102627557D01*
X119246986Y-102669237D01*
X119361357Y-102709357D01*
X119562888Y-102748587D01*
X119860370Y-102787597D01*
X120262595Y-102827057D01*
X120778354Y-102867638D01*
X121416440Y-102910009D01*
X122185643Y-102954840D01*
X123094756Y-103002803D01*
X124152569Y-103054566D01*
X125367875Y-103110799D01*
X125814667Y-103130884D01*
X126401368Y-103158274D01*
X126930201Y-103185222D01*
X127378255Y-103210377D01*
X127722622Y-103232387D01*
X127940391Y-103249902D01*
X128008945Y-103260331D01*
X128158934Y-103303059D01*
X128326636Y-103227840D01*
X128444874Y-103067094D01*
X128483242Y-102949241D01*
X128517681Y-102799051D01*
X128549854Y-102598955D01*
X128581425Y-102331386D01*
X128614057Y-101978774D01*
X128649413Y-101523551D01*
X128685069Y-101007333D01*
X129074334Y-101007333D01*
X129081046Y-101085352D01*
X129111670Y-101092000D01*
X129197888Y-101030539D01*
X129201334Y-101007333D01*
X129172447Y-100924868D01*
X129163997Y-100922667D01*
X129091711Y-100981995D01*
X129074334Y-101007333D01*
X128685069Y-101007333D01*
X128689158Y-100948149D01*
X128734954Y-100235000D01*
X128737680Y-100190892D01*
X129204026Y-100190892D01*
X129213264Y-100316878D01*
X129260210Y-100298198D01*
X129331026Y-100207984D01*
X129427487Y-100056027D01*
X129455334Y-99977808D01*
X129392629Y-99945163D01*
X129328334Y-99960715D01*
X129226866Y-100074862D01*
X129204026Y-100190892D01*
X128737680Y-100190892D01*
X128769033Y-99683621D01*
X129518481Y-99683621D01*
X129541978Y-99819866D01*
X129552331Y-99829995D01*
X129661200Y-99861193D01*
X129685939Y-99840453D01*
X129711284Y-99740382D01*
X129768101Y-99506559D01*
X129848914Y-99170026D01*
X129946249Y-98761823D01*
X129987062Y-98589950D01*
X130096164Y-98121674D01*
X130166277Y-97793120D01*
X130200302Y-97579945D01*
X130201142Y-97457800D01*
X130171697Y-97402341D01*
X130130115Y-97389754D01*
X130054255Y-97462693D01*
X129961439Y-97667611D01*
X129860060Y-97969060D01*
X129758512Y-98331593D01*
X129665187Y-98719763D01*
X129588478Y-99098122D01*
X129536778Y-99431224D01*
X129518481Y-99683621D01*
X128769033Y-99683621D01*
X128776180Y-99568000D01*
X128812071Y-99014275D01*
X128851964Y-98453910D01*
X128892119Y-97936016D01*
X128928801Y-97509702D01*
X128946950Y-97324333D01*
X129010515Y-96655821D01*
X129073120Y-95878390D01*
X129093123Y-95588667D01*
X130386667Y-95588667D01*
X130439606Y-95726571D01*
X130513667Y-95758000D01*
X130617095Y-95687414D01*
X130640667Y-95588667D01*
X130587727Y-95450762D01*
X130513667Y-95419333D01*
X130410239Y-95489919D01*
X130386667Y-95588667D01*
X129093123Y-95588667D01*
X129130148Y-95052417D01*
X129163711Y-94488000D01*
X129168173Y-94210754D01*
X129159027Y-93840458D01*
X129138833Y-93410923D01*
X129132716Y-93313892D01*
X129857070Y-93313892D01*
X129940900Y-93409713D01*
X130058175Y-93394729D01*
X130130479Y-93285257D01*
X130132667Y-93256537D01*
X130063572Y-93168498D01*
X129975727Y-93155679D01*
X129857888Y-93217915D01*
X129857070Y-93313892D01*
X129132716Y-93313892D01*
X129110149Y-92955960D01*
X129075538Y-92509377D01*
X129037558Y-92104986D01*
X129017402Y-91934332D01*
X129553279Y-91934332D01*
X129553896Y-92041957D01*
X129590688Y-92255212D01*
X129635023Y-92477581D01*
X129704764Y-92758460D01*
X129775952Y-92892115D01*
X129848684Y-92905212D01*
X129925669Y-92812039D01*
X129925402Y-92601726D01*
X129918116Y-92552010D01*
X129861219Y-92219500D01*
X129813472Y-92021237D01*
X129762171Y-91923552D01*
X129694612Y-91892775D01*
X129668929Y-91891555D01*
X129590927Y-91896232D01*
X129553279Y-91934332D01*
X129017402Y-91934332D01*
X128998770Y-91776597D01*
X128971513Y-91615734D01*
X129540000Y-91615734D01*
X129602423Y-91654528D01*
X129667000Y-91639951D01*
X129779003Y-91558306D01*
X129794000Y-91518265D01*
X129731577Y-91479471D01*
X129667000Y-91494049D01*
X129554998Y-91575693D01*
X129540000Y-91615734D01*
X128971513Y-91615734D01*
X128961733Y-91558020D01*
X128936424Y-91486247D01*
X128797978Y-91408882D01*
X128549348Y-91325798D01*
X128248420Y-91251918D01*
X127953082Y-91202161D01*
X127786146Y-91189736D01*
X127540409Y-91242743D01*
X127394658Y-91418227D01*
X127339661Y-91728577D01*
X127338667Y-91790412D01*
X127302837Y-92016671D01*
X127210033Y-92318189D01*
X127111026Y-92560375D01*
X126921894Y-92898113D01*
X126726947Y-93082836D01*
X126503968Y-93130065D01*
X126342422Y-93097270D01*
X126177123Y-93103024D01*
X125916640Y-93174226D01*
X125684674Y-93265248D01*
X125432858Y-93368157D01*
X125209537Y-93430951D01*
X124961108Y-93461437D01*
X124633965Y-93467420D01*
X124337530Y-93461432D01*
X123486334Y-93438285D01*
X123431208Y-94026642D01*
X123394241Y-94401560D01*
X123354295Y-94776923D01*
X123326082Y-95020916D01*
X123258881Y-95331338D01*
X123139525Y-95684124D01*
X122991185Y-96024920D01*
X122837036Y-96299379D01*
X122722285Y-96437033D01*
X122615658Y-96569954D01*
X122595871Y-96636200D01*
X122538229Y-96754956D01*
X122399826Y-96915976D01*
X122384204Y-96931053D01*
X122239354Y-97111217D01*
X122174274Y-97276681D01*
X122174000Y-97284839D01*
X122116807Y-97470931D01*
X122047243Y-97565995D01*
X121965786Y-97726270D01*
X121972235Y-97827604D01*
X121988855Y-98078109D01*
X121895875Y-98418051D01*
X121704869Y-98818584D01*
X121427409Y-99250864D01*
X121369948Y-99328797D01*
X121162842Y-99621056D01*
X121003039Y-99878844D01*
X120914357Y-100062230D01*
X120904000Y-100109875D01*
X120913582Y-100218580D01*
X120971003Y-100206682D01*
X121071745Y-100119770D01*
X121217143Y-100021098D01*
X121334668Y-100049100D01*
X121368079Y-100074682D01*
X121458469Y-100242391D01*
X121493652Y-100510973D01*
X121471256Y-100820420D01*
X121407234Y-101065321D01*
X121225005Y-101372140D01*
X120950751Y-101632361D01*
X120636722Y-101805465D01*
X120390223Y-101854000D01*
X120009329Y-101907249D01*
X119663932Y-102049525D01*
X119412048Y-102254624D01*
X119368829Y-102315343D01*
X119263980Y-102500879D01*
X119212154Y-102619241D01*
X119210983Y-102627557D01*
X117884004Y-102627557D01*
X117901375Y-102592073D01*
X117904381Y-102531333D01*
X117858958Y-102393936D01*
X117795524Y-102362000D01*
X117703438Y-102425437D01*
X117694233Y-102558382D01*
X111207097Y-102558382D01*
X111299873Y-102356959D01*
X111442475Y-102060889D01*
X111591730Y-101759010D01*
X111757804Y-101412984D01*
X111884982Y-101121190D01*
X111912015Y-101047157D01*
X114843553Y-101047157D01*
X114850334Y-101092000D01*
X114922754Y-101172682D01*
X114935000Y-101176667D01*
X115002314Y-101117615D01*
X115019667Y-101092000D01*
X114999561Y-101020271D01*
X114935000Y-101007333D01*
X114843553Y-101047157D01*
X111912015Y-101047157D01*
X111959529Y-100917041D01*
X111970881Y-100836728D01*
X111872411Y-100819516D01*
X111682971Y-100866873D01*
X111619126Y-100891587D01*
X111369369Y-100964128D01*
X111150810Y-100977172D01*
X111122351Y-100971900D01*
X110985177Y-100889543D01*
X110775101Y-100708251D01*
X110527075Y-100459630D01*
X110393542Y-100312909D01*
X110142703Y-100029847D01*
X109919946Y-99781409D01*
X109852546Y-99707564D01*
X114279671Y-99707564D01*
X114284881Y-99788769D01*
X114365168Y-99938749D01*
X114481672Y-100101012D01*
X114595534Y-100219065D01*
X114649592Y-100245333D01*
X114747169Y-100184088D01*
X114771464Y-100151287D01*
X114748414Y-100049831D01*
X114632821Y-99909694D01*
X114477704Y-99778711D01*
X114336081Y-99704721D01*
X114279671Y-99707564D01*
X109852546Y-99707564D01*
X109758638Y-99604678D01*
X109711336Y-99554672D01*
X109463193Y-99193672D01*
X109270054Y-98674210D01*
X109226654Y-98504078D01*
X109180936Y-98236219D01*
X109154712Y-97934618D01*
X109148437Y-97645675D01*
X109162567Y-97415795D01*
X109188290Y-97324333D01*
X121496667Y-97324333D01*
X121563079Y-97436613D01*
X121621010Y-97451333D01*
X121706426Y-97395236D01*
X121696618Y-97324333D01*
X121613512Y-97212295D01*
X121572275Y-97197333D01*
X121505156Y-97266043D01*
X121496667Y-97324333D01*
X109188290Y-97324333D01*
X109197558Y-97291380D01*
X109214654Y-97281339D01*
X109285186Y-97204734D01*
X109380864Y-97002809D01*
X109488471Y-96715173D01*
X109594788Y-96381437D01*
X109641169Y-96209555D01*
X118338797Y-96209555D01*
X118359140Y-96308968D01*
X118406334Y-96322444D01*
X118481099Y-96262880D01*
X118473870Y-96209555D01*
X118420661Y-96107319D01*
X118406334Y-96096667D01*
X118359399Y-96161823D01*
X118338797Y-96209555D01*
X109641169Y-96209555D01*
X109686596Y-96041210D01*
X109723414Y-95864761D01*
X113648076Y-95864761D01*
X113663709Y-95925244D01*
X113755277Y-95969891D01*
X113845207Y-95906668D01*
X113869831Y-95785265D01*
X113865025Y-95768121D01*
X113811717Y-95740382D01*
X121592933Y-95740382D01*
X121649830Y-95756703D01*
X121719976Y-95805116D01*
X121708334Y-95842667D01*
X121709396Y-95920931D01*
X121735795Y-95927333D01*
X121818935Y-95856806D01*
X121859866Y-95758000D01*
X121870850Y-95616958D01*
X121786039Y-95607213D01*
X121666000Y-95673333D01*
X121592933Y-95740382D01*
X113811717Y-95740382D01*
X113781422Y-95724618D01*
X113717653Y-95751247D01*
X113648076Y-95864761D01*
X109723414Y-95864761D01*
X109750678Y-95734103D01*
X109765401Y-95631000D01*
X109795227Y-95450485D01*
X109835327Y-95250000D01*
X114046000Y-95250000D01*
X114110429Y-95332206D01*
X114130667Y-95334667D01*
X119295334Y-95334667D01*
X119359763Y-95416873D01*
X119380000Y-95419333D01*
X119462207Y-95354904D01*
X119464667Y-95334667D01*
X119400238Y-95252460D01*
X119380000Y-95250000D01*
X119297794Y-95314429D01*
X119295334Y-95334667D01*
X114130667Y-95334667D01*
X114212873Y-95270237D01*
X114215334Y-95250000D01*
X114150904Y-95167793D01*
X114130667Y-95165333D01*
X114048460Y-95229762D01*
X114046000Y-95250000D01*
X109835327Y-95250000D01*
X109848627Y-95183510D01*
X109880263Y-95038333D01*
X109966508Y-94624397D01*
X110019929Y-94290461D01*
X111184866Y-94290461D01*
X111273167Y-94342519D01*
X111429455Y-94347359D01*
X111505514Y-94257448D01*
X111506000Y-94247146D01*
X111434902Y-94197108D01*
X111336667Y-94185619D01*
X111191870Y-94218689D01*
X111184866Y-94290461D01*
X110019929Y-94290461D01*
X110026941Y-94246630D01*
X110068130Y-93847691D01*
X110078399Y-93675740D01*
X110998000Y-93675740D01*
X111060260Y-93758980D01*
X111166381Y-93750781D01*
X111282053Y-93685939D01*
X111288384Y-93631707D01*
X111175858Y-93560124D01*
X111049927Y-93583807D01*
X110998000Y-93675740D01*
X110078399Y-93675740D01*
X110092809Y-93434455D01*
X116254853Y-93434455D01*
X116281228Y-93504960D01*
X116443953Y-93549312D01*
X116586000Y-93556667D01*
X116821485Y-93535695D01*
X116918520Y-93466178D01*
X116924667Y-93429667D01*
X116853137Y-93336428D01*
X116675910Y-93301127D01*
X116449029Y-93331560D01*
X116381258Y-93354058D01*
X116254853Y-93434455D01*
X110092809Y-93434455D01*
X110096645Y-93370239D01*
X110110044Y-93032513D01*
X110139819Y-92519711D01*
X110190169Y-92149265D01*
X110265014Y-91895017D01*
X110287682Y-91847179D01*
X110302574Y-91811479D01*
X111106628Y-91811479D01*
X111125000Y-91863333D01*
X111222437Y-91945734D01*
X111289088Y-91875144D01*
X111300381Y-91778667D01*
X111274548Y-91640953D01*
X111238854Y-91609333D01*
X111137057Y-91676396D01*
X111106628Y-91811479D01*
X110302574Y-91811479D01*
X110376769Y-91633620D01*
X110484168Y-91314555D01*
X110590271Y-90949511D01*
X110617034Y-90847333D01*
X110715283Y-90489302D01*
X110734623Y-90436755D01*
X129540000Y-90436755D01*
X129604528Y-90554615D01*
X129709334Y-90570054D01*
X129850736Y-90497656D01*
X129878667Y-90411244D01*
X129814139Y-90293385D01*
X129709334Y-90277946D01*
X129567931Y-90350343D01*
X129540000Y-90436755D01*
X110734623Y-90436755D01*
X110795333Y-90271806D01*
X110869356Y-90168790D01*
X110941586Y-90152545D01*
X111034275Y-90122670D01*
X112014000Y-90122670D01*
X112058205Y-90238512D01*
X112098667Y-90254667D01*
X112180910Y-90193899D01*
X112183334Y-90174997D01*
X112121789Y-90060329D01*
X112098667Y-90043000D01*
X112026184Y-90062194D01*
X112014000Y-90122670D01*
X111034275Y-90122670D01*
X111062230Y-90113660D01*
X111082667Y-90046711D01*
X111036712Y-89943675D01*
X110992554Y-89937167D01*
X110912290Y-89878242D01*
X110808556Y-89704529D01*
X110752814Y-89577333D01*
X111336667Y-89577333D01*
X111409273Y-89640439D01*
X111553330Y-89662000D01*
X111697381Y-89635124D01*
X111717667Y-89577333D01*
X111598247Y-89506208D01*
X111501003Y-89492667D01*
X111366159Y-89529086D01*
X111336667Y-89577333D01*
X110752814Y-89577333D01*
X110634690Y-89323333D01*
X112903000Y-89323333D01*
X112936085Y-89383296D01*
X113100810Y-89407959D01*
X113109670Y-89408000D01*
X113290160Y-89383912D01*
X113368565Y-89325717D01*
X113368667Y-89323333D01*
X113296366Y-89259134D01*
X113161997Y-89238667D01*
X112982724Y-89269884D01*
X112903000Y-89323333D01*
X110634690Y-89323333D01*
X110628200Y-89309379D01*
X110533012Y-89134669D01*
X129825684Y-89134669D01*
X129940651Y-89145221D01*
X130158415Y-89055813D01*
X130465215Y-88870526D01*
X130567137Y-88800661D01*
X130827539Y-88599671D01*
X130989067Y-88436262D01*
X131028641Y-88337311D01*
X131050596Y-88215598D01*
X131161398Y-88101000D01*
X131300393Y-88035622D01*
X131406930Y-88061568D01*
X131413190Y-88070360D01*
X131499972Y-88121344D01*
X131629047Y-88052457D01*
X131826603Y-87890050D01*
X132042342Y-87693687D01*
X132238123Y-87500726D01*
X132375806Y-87348528D01*
X132418667Y-87279012D01*
X132355254Y-87239475D01*
X132213092Y-87259041D01*
X132064295Y-87319909D01*
X131989855Y-87384864D01*
X131879961Y-87439478D01*
X131835466Y-87424183D01*
X131754825Y-87436228D01*
X131741334Y-87498003D01*
X131700467Y-87613895D01*
X131663163Y-87630000D01*
X131552859Y-87680197D01*
X131378851Y-87804378D01*
X131336246Y-87839306D01*
X131165028Y-87960325D01*
X131048573Y-88001031D01*
X131033417Y-87994528D01*
X130983596Y-88005154D01*
X130979334Y-88039222D01*
X130910638Y-88125820D01*
X130847337Y-88138000D01*
X130759702Y-88179046D01*
X130767667Y-88222667D01*
X130747561Y-88294396D01*
X130683000Y-88307333D01*
X130591553Y-88347157D01*
X130598334Y-88392000D01*
X130579140Y-88464483D01*
X130518664Y-88476667D01*
X130364437Y-88532881D01*
X130217334Y-88646000D01*
X130065701Y-88770308D01*
X129963334Y-88815333D01*
X129880862Y-88842740D01*
X129878667Y-88850742D01*
X129852328Y-88950266D01*
X129827275Y-89020075D01*
X129825684Y-89134669D01*
X110533012Y-89134669D01*
X110446357Y-88975623D01*
X110368867Y-88848545D01*
X129547887Y-88848545D01*
X129648557Y-88889313D01*
X129686536Y-88884196D01*
X129807464Y-88783355D01*
X129834702Y-88645154D01*
X129909814Y-88434313D01*
X130026834Y-88350756D01*
X130172617Y-88261879D01*
X130217334Y-88197593D01*
X130270396Y-88165858D01*
X130302000Y-88180333D01*
X130374483Y-88161139D01*
X130386667Y-88100663D01*
X130358766Y-87991182D01*
X130264829Y-87994814D01*
X130089503Y-88117633D01*
X129889131Y-88297478D01*
X129676439Y-88528695D01*
X129559936Y-88720362D01*
X129547887Y-88848545D01*
X110368867Y-88848545D01*
X110250260Y-88654040D01*
X110220721Y-88604153D01*
X115115863Y-88604153D01*
X115119968Y-88712886D01*
X115202982Y-88719105D01*
X115270051Y-88651850D01*
X115262200Y-88542955D01*
X115241586Y-88525336D01*
X115150759Y-88547103D01*
X115115863Y-88604153D01*
X110220721Y-88604153D01*
X110050059Y-88315933D01*
X111862406Y-88315933D01*
X111889643Y-88451848D01*
X111945073Y-88557907D01*
X111978169Y-88505680D01*
X111992254Y-88448873D01*
X112000049Y-88294982D01*
X111979151Y-88244262D01*
X111898493Y-88224082D01*
X111862406Y-88315933D01*
X110050059Y-88315933D01*
X110031138Y-88283980D01*
X109916874Y-88011837D01*
X109910355Y-87847335D01*
X109996500Y-87799333D01*
X110131541Y-87851705D01*
X110250500Y-87939455D01*
X110347409Y-88016103D01*
X110391733Y-88007545D01*
X110384861Y-87891771D01*
X110328182Y-87646773D01*
X110280468Y-87464685D01*
X110279729Y-87460667D01*
X113030000Y-87460667D01*
X113092680Y-87535731D01*
X113243444Y-87521696D01*
X113368667Y-87460667D01*
X113425939Y-87401985D01*
X113336922Y-87379177D01*
X113262834Y-87377296D01*
X113093891Y-87402910D01*
X113030000Y-87460667D01*
X110279729Y-87460667D01*
X110222417Y-87149153D01*
X110217929Y-87104021D01*
X115368289Y-87104021D01*
X115403324Y-87122000D01*
X115476095Y-87053383D01*
X115485334Y-86995000D01*
X115467219Y-86882037D01*
X115452059Y-86868000D01*
X115397465Y-86934205D01*
X115370049Y-86995000D01*
X115368289Y-87104021D01*
X110217929Y-87104021D01*
X110180298Y-86725601D01*
X110159610Y-86255022D01*
X110158406Y-86110018D01*
X110160334Y-85612095D01*
X110161019Y-85577758D01*
X117300055Y-85577758D01*
X117383278Y-85591316D01*
X117493092Y-85575749D01*
X117494403Y-85546847D01*
X117381086Y-85526636D01*
X117332125Y-85540163D01*
X117300055Y-85577758D01*
X110161019Y-85577758D01*
X110163758Y-85440704D01*
X114690103Y-85440704D01*
X114690202Y-85528223D01*
X114767996Y-85556168D01*
X114813980Y-85503658D01*
X114824464Y-85476084D01*
X124145501Y-85476084D01*
X124160670Y-85588559D01*
X124218673Y-85736149D01*
X124259729Y-85733754D01*
X124293778Y-85573296D01*
X124306887Y-85469707D01*
X124311628Y-85406061D01*
X126702073Y-85406061D01*
X126715382Y-85471000D01*
X126775478Y-85582401D01*
X126797392Y-85598000D01*
X126826989Y-85528863D01*
X126830667Y-85471000D01*
X126786358Y-85358307D01*
X126748657Y-85344000D01*
X126702073Y-85406061D01*
X124311628Y-85406061D01*
X124320834Y-85282484D01*
X124292407Y-85236020D01*
X124222781Y-85290933D01*
X124145501Y-85476084D01*
X114824464Y-85476084D01*
X114858259Y-85387205D01*
X114851363Y-85359140D01*
X114764388Y-85356595D01*
X114690103Y-85440704D01*
X110163758Y-85440704D01*
X110166537Y-85301667D01*
X115739334Y-85301667D01*
X115785051Y-85414338D01*
X115824000Y-85428667D01*
X115899115Y-85360090D01*
X115908667Y-85301667D01*
X115862949Y-85188995D01*
X115824000Y-85174667D01*
X115748886Y-85243243D01*
X115739334Y-85301667D01*
X110166537Y-85301667D01*
X110167475Y-85254750D01*
X110177837Y-85094997D01*
X117940667Y-85094997D01*
X117973260Y-85212067D01*
X118025334Y-85217000D01*
X118103238Y-85094498D01*
X118110000Y-85042670D01*
X118062661Y-84933243D01*
X118025334Y-84920667D01*
X117957208Y-84991792D01*
X117940667Y-85094997D01*
X110177837Y-85094997D01*
X110183400Y-85009238D01*
X110211678Y-84846813D01*
X110255881Y-84738727D01*
X110319580Y-84656236D01*
X110341833Y-84633372D01*
X110454631Y-84476167D01*
X117263334Y-84476167D01*
X117335904Y-84523931D01*
X117475000Y-84539667D01*
X117634215Y-84517895D01*
X117686667Y-84476167D01*
X117614096Y-84428402D01*
X117475000Y-84412667D01*
X117315785Y-84434438D01*
X117263334Y-84476167D01*
X110454631Y-84476167D01*
X110457473Y-84472207D01*
X110490000Y-84364286D01*
X110527137Y-84279619D01*
X119972667Y-84279619D01*
X120024440Y-84329042D01*
X120140383Y-84280966D01*
X120228365Y-84198954D01*
X120297299Y-84061745D01*
X120247143Y-84013483D01*
X120118272Y-84086149D01*
X120103699Y-84100206D01*
X119998780Y-84224609D01*
X119972667Y-84279619D01*
X110527137Y-84279619D01*
X110537695Y-84255551D01*
X110574667Y-84243333D01*
X110646335Y-84173405D01*
X110659334Y-84094301D01*
X110710341Y-83940878D01*
X110834032Y-83763274D01*
X110986406Y-83609324D01*
X111123466Y-83526861D01*
X111178090Y-83530315D01*
X111290353Y-83516052D01*
X111363467Y-83448346D01*
X111481025Y-83369573D01*
X111723976Y-83258014D01*
X112055433Y-83129252D01*
X112392607Y-83013577D01*
X112976681Y-82812191D01*
X113433722Y-82620747D01*
X113803105Y-82417849D01*
X114124205Y-82182101D01*
X114412791Y-81915841D01*
X114615688Y-81718719D01*
X114768667Y-81580812D01*
X114834591Y-81534000D01*
X114871406Y-81553462D01*
X114912540Y-81624724D01*
X114963564Y-81767097D01*
X115030049Y-81999893D01*
X115117566Y-82342424D01*
X115231686Y-82814002D01*
X115357546Y-83346832D01*
X115470069Y-83726471D01*
X115616334Y-83977843D01*
X115825875Y-84117890D01*
X116128227Y-84163554D01*
X116552926Y-84131776D01*
X116691834Y-84112201D01*
X116948053Y-84054717D01*
X116993980Y-84019590D01*
X119411887Y-84019590D01*
X119475999Y-84138923D01*
X119542589Y-84158667D01*
X119578666Y-84087812D01*
X119568036Y-83936437D01*
X119528662Y-83792758D01*
X119480630Y-83800889D01*
X119448195Y-83852440D01*
X119411887Y-84019590D01*
X116993980Y-84019590D01*
X117072750Y-83959344D01*
X117076208Y-83795516D01*
X117066023Y-83770611D01*
X117608684Y-83770611D01*
X117624251Y-83880425D01*
X117653153Y-83881736D01*
X117673364Y-83768419D01*
X117659837Y-83719458D01*
X117622242Y-83687388D01*
X117608684Y-83770611D01*
X117066023Y-83770611D01*
X116968707Y-83532670D01*
X116919378Y-83435735D01*
X116831935Y-83227333D01*
X118025334Y-83227333D01*
X118096246Y-83296123D01*
X118194667Y-83312000D01*
X118332247Y-83276544D01*
X118364000Y-83227333D01*
X118293088Y-83158543D01*
X118194667Y-83142667D01*
X118057086Y-83178123D01*
X118025334Y-83227333D01*
X116831935Y-83227333D01*
X116829679Y-83221958D01*
X116739606Y-82940252D01*
X116658698Y-82632595D01*
X116631516Y-82505157D01*
X118484219Y-82505157D01*
X118491000Y-82550000D01*
X118563420Y-82630682D01*
X118575667Y-82634667D01*
X118642981Y-82575615D01*
X118660334Y-82550000D01*
X118640228Y-82478271D01*
X118575667Y-82465333D01*
X118484219Y-82505157D01*
X116631516Y-82505157D01*
X116596494Y-82340963D01*
X116562534Y-82107333D01*
X116566356Y-81973682D01*
X116583408Y-81957333D01*
X116611644Y-81881710D01*
X116615657Y-81688239D01*
X116605175Y-81534437D01*
X116601872Y-81322333D01*
X117263334Y-81322333D01*
X117309051Y-81435005D01*
X117348000Y-81449333D01*
X117423115Y-81380757D01*
X117432667Y-81322333D01*
X117415490Y-81280000D01*
X118321667Y-81280000D01*
X118340861Y-81352483D01*
X118401337Y-81364667D01*
X118517179Y-81320462D01*
X118533334Y-81280000D01*
X118472566Y-81197757D01*
X118453664Y-81195333D01*
X118338996Y-81256877D01*
X118321667Y-81280000D01*
X117415490Y-81280000D01*
X117386949Y-81209661D01*
X117348000Y-81195333D01*
X117272886Y-81263910D01*
X117263334Y-81322333D01*
X116601872Y-81322333D01*
X116600203Y-81215203D01*
X116651977Y-81009885D01*
X116667226Y-80987813D01*
X116726103Y-80839938D01*
X116710303Y-80767635D01*
X116702241Y-80628286D01*
X116759654Y-80467593D01*
X116848841Y-80345757D01*
X116982234Y-80284734D01*
X117213537Y-80264872D01*
X117315990Y-80264000D01*
X117723203Y-80299032D01*
G36*
X130302000Y-88688333D02*
G01*
X130259667Y-88730667D01*
X130217334Y-88688333D01*
X130259667Y-88646000D01*
X130302000Y-88688333D01*
G37*
X130302000Y-88688333D02*
X130259667Y-88730667D01*
X130217334Y-88688333D01*
X130259667Y-88646000D01*
X130302000Y-88688333D01*
D11*
X148793200Y-78587600D03*
X148793200Y-81087600D03*
X145034000Y-113752000D03*
X145034000Y-111252000D03*
G04 #@! TA.AperFunction,ComponentPad*
D12*
G36*
X145031949Y-78342931D02*
G01*
X143653069Y-79499949D01*
X142496051Y-78121069D01*
X143874931Y-76964051D01*
X145031949Y-78342931D01*
G37*
G04 #@! TD.AperFunction*
D13*
X142131319Y-76286247D03*
D14*
X145034000Y-98298000D03*
D15*
X152654000Y-105918000D03*
X145034000Y-100838000D03*
X152654000Y-103378000D03*
X145034000Y-103378000D03*
X152654000Y-100838000D03*
X145034000Y-105918000D03*
X152654000Y-98298000D03*
D11*
X145034000Y-93472000D03*
D16*
X145034000Y-83312000D03*
X152654000Y-83273900D03*
D11*
X152654000Y-93433900D03*
X136347200Y-67665600D03*
D16*
X136347200Y-77825600D03*
D17*
X117906800Y-75184000D03*
D13*
X120406800Y-75184000D03*
X122906800Y-75184000D03*
X117906800Y-71984000D03*
X120406800Y-71984000D03*
X122906800Y-71984000D03*
D18*
X152654000Y-103606600D02*
X153054000Y-103606600D01*
X153054000Y-103606600D02*
X154686000Y-101974600D01*
X152120600Y-103606600D02*
X152654000Y-103606600D01*
X150876000Y-102362000D02*
X152120600Y-103606600D01*
X145034000Y-101066600D02*
X146329400Y-102362000D01*
X146329400Y-102362000D02*
X150876000Y-102362000D01*
X154686000Y-101974600D02*
X155702000Y-100958600D01*
X155702000Y-100958600D02*
X155702000Y-88372950D01*
X155702000Y-88372950D02*
X155702000Y-84175600D01*
X154800300Y-83273900D02*
X152654000Y-83273900D01*
X155702000Y-84175600D02*
X154800300Y-83273900D01*
X148793200Y-78587600D02*
X151384000Y-78587600D01*
X152654000Y-79857600D02*
X152654000Y-83273900D01*
X151384000Y-78587600D02*
X152654000Y-79857600D01*
X149352000Y-111252000D02*
X145034000Y-111252000D01*
X150368000Y-110236000D02*
X149352000Y-111252000D01*
X150368000Y-108032600D02*
X150368000Y-110236000D01*
X152654000Y-106146600D02*
X152254000Y-106146600D01*
X152254000Y-106146600D02*
X150368000Y-108032600D01*
X141462647Y-76286247D02*
X142131319Y-76286247D01*
X140055600Y-68935600D02*
X140055600Y-74879200D01*
X140055600Y-74879200D02*
X141462647Y-76286247D01*
X136347200Y-67665600D02*
X138785600Y-67665600D01*
X138785600Y-67665600D02*
X140055600Y-68935600D01*
X150329900Y-93433900D02*
X152654000Y-93433900D01*
X149098000Y-92202000D02*
X150329900Y-93433900D01*
X149098000Y-86868000D02*
X149098000Y-92202000D01*
X152654000Y-101066600D02*
X153054000Y-101066600D01*
X153453999Y-94233899D02*
X152654000Y-93433900D01*
X154686000Y-95465900D02*
X153453999Y-94233899D01*
X153054000Y-101066600D02*
X154686000Y-99434600D01*
X154686000Y-99434600D02*
X154686000Y-95465900D01*
X149098000Y-85699600D02*
X149098000Y-86868000D01*
X145034000Y-83312000D02*
X146710400Y-83312000D01*
X146710400Y-83312000D02*
X149098000Y-85699600D01*
X142748000Y-81026000D02*
X142748000Y-101720600D01*
X144634000Y-103606600D02*
X145034000Y-103606600D01*
X142748000Y-101720600D02*
X144634000Y-103606600D01*
X139547600Y-77825600D02*
X136347200Y-77825600D01*
X142748000Y-81026000D02*
X139547600Y-77825600D01*
M02*
